Kufam-Italic.ufo
<glyph name="quotedbl" format="2">
  <advance width="336"/>
  <unicode hex="0022"/>
  <note>
quotedbl
</note>
  <outline>
    <contour>
      <point x="252" y="484" type="line"/>
      <point x="328" y="484" type="line"/>
      <point x="376" y="720" type="line"/>
      <point x="292" y="720" type="line"/>
    </contour>
    <contour>
      <point x="96" y="484" type="line"/>
      <point x="172" y="484" type="line"/>
      <point x="220" y="720" type="line"/>
      <point x="136" y="720" type="line"/>
    </contour>
  </outline>
</glyph>
<glyph name="ampersand" format="2">
  <advance width="644"/>
  <unicode hex="0026"/>
  <note>
ampersand
</note>
  <outline>
    <contour>
      <point x="36" y="160" type="curve" smooth="yes"/>
      <point x="36" y="24"/>
      <point x="148" y="-12"/>
      <point x="272" y="-12" type="curve" smooth="yes"/>
      <point x="344" y="-12"/>
      <point x="416" y="4"/>
      <point x="468" y="24" type="curve"/>
      <point x="472" y="32" type="line"/>
      <point x="472" y="80"/>
      <point x="484" y="158"/>
      <point x="492" y="198" type="curve" smooth="yes"/>
      <point x="512" y="300" type="line"/>
      <point x="592" y="300" type="line"/>
      <point x="608" y="384" type="line"/>
      <point x="304" y="384" type="line" smooth="yes"/>
      <point x="230" y="384"/>
      <point x="180" y="412"/>
      <point x="180" y="488" type="curve" smooth="yes"/>
      <point x="180" y="596"/>
      <point x="284" y="644"/>
      <point x="400" y="644" type="curve" smooth="yes"/>
      <point x="468" y="644"/>
      <point x="528" y="628"/>
      <point x="556" y="612" type="curve"/>
      <point x="564" y="612" type="line"/>
      <point x="582" y="704" type="line"/>
      <point x="549" y="720"/>
      <point x="464" y="732"/>
      <point x="408" y="732" type="curve" smooth="yes"/>
      <point x="220" y="732"/>
      <point x="84" y="648"/>
      <point x="84" y="484" type="curve" smooth="yes"/>
      <point x="84" y="404"/>
      <point x="124" y="360"/>
      <point x="180" y="332" type="curve"/>
      <point x="188" y="356" type="line"/>
      <point x="100" y="324"/>
      <point x="36" y="260"/>
    </contour>
    <contour>
      <point x="280" y="68" type="curve" smooth="yes"/>
      <point x="192" y="68"/>
      <point x="128" y="88"/>
      <point x="128" y="168" type="curve" smooth="yes"/>
      <point x="128" y="252"/>
      <point x="196" y="300"/>
      <point x="300" y="300" type="curve" smooth="yes"/>
      <point x="418" y="300" type="line"/>
      <point x="388" y="144" type="line" smooth="yes"/>
      <point x="383" y="118"/>
      <point x="379" y="87"/>
      <point x="380" y="60" type="curve"/>
      <point x="396" y="88" type="line"/>
      <point x="356" y="72"/>
      <point x="322" y="68"/>
    </contour>
  </outline>
</glyph>
<glyph name="parenleft" format="2">
  <advance width="356"/>
  <unicode hex="0028"/>
  <note>
parenleft
</note>
  <outline>
    <contour>
      <point x="164" y="-88" type="curve"/>
      <point x="252" y="-88" type="line"/>
      <point x="252" y="-84" type="line"/>
      <point x="196" y="-8"/>
      <point x="164" y="84"/>
      <point x="164" y="200" type="curve" smooth="yes"/>
      <point x="164" y="420"/>
      <point x="260" y="612"/>
      <point x="416" y="756" type="curve"/>
      <point x="416" y="760" type="line"/>
      <point x="320" y="760" type="line"/>
      <point x="164" y="616"/>
      <point x="80" y="420"/>
      <point x="80" y="200" type="curve" smooth="yes"/>
      <point x="80" y="84"/>
      <point x="116" y="-28"/>
    </contour>
  </outline>
</glyph>
<glyph name="parenright" format="2">
  <advance width="356"/>
  <unicode hex="0029"/>
  <note>
parenright
</note>
  <outline>
    <contour>
      <point x="-35" y="-84" type="curve"/>
      <point x="-35" y="-88" type="line"/>
      <point x="61" y="-88" type="line"/>
      <point x="217" y="56"/>
      <point x="301" y="252"/>
      <point x="301" y="472" type="curve" smooth="yes"/>
      <point x="301" y="588"/>
      <point x="265" y="700"/>
      <point x="217" y="760" type="curve"/>
      <point x="129" y="760" type="line"/>
      <point x="129" y="756" type="line"/>
      <point x="185" y="680"/>
      <point x="217" y="588"/>
      <point x="217" y="472" type="curve" smooth="yes"/>
      <point x="217" y="252"/>
      <point x="121" y="60"/>
    </contour>
  </outline>
</glyph>
<glyph name="asterisk" format="2">
  <advance width="544"/>
  <unicode hex="002A"/>
  <note>
asterisk
</note>
  <outline>
    <contour>
      <point x="238" y="280" type="line"/>
      <point x="322" y="280" type="line"/>
      <point x="350" y="500" type="line"/>
      <point x="406" y="720" type="line"/>
      <point x="322" y="720" type="line"/>
      <point x="290" y="500" type="line"/>
    </contour>
    <contour>
      <point x="314" y="472" type="line"/>
      <point x="474" y="340" type="line"/>
      <point x="522" y="408" type="line"/>
      <point x="330" y="524" type="line"/>
      <point x="166" y="656" type="line"/>
      <point x="118" y="588" type="line"/>
    </contour>
    <contour>
      <point x="122" y="352" type="line"/>
      <point x="322" y="472" type="line"/>
      <point x="554" y="572" type="line"/>
      <point x="518" y="648" type="line"/>
      <point x="318" y="524" type="line"/>
      <point x="86" y="428" type="line"/>
    </contour>
  </outline>
</glyph>
<glyph name="comma" format="2">
  <advance width="280"/>
  <unicode hex="002C"/>
  <note>
comma
</note>
  <outline>
    <contour>
      <point x="68" y="-12" type="curve"/>
      <point x="-32" y="-148" type="line"/>
      <point x="-32" y="-156" type="line"/>
      <point x="44" y="-156" type="line"/>
      <point x="128" y="-32" type="line" smooth="yes"/>
      <point x="148" y="-2"/>
      <point x="164" y="28"/>
      <point x="164" y="60" type="curve" smooth="yes"/>
      <point x="164" y="96"/>
      <point x="144" y="120"/>
      <point x="108" y="120" type="curve" smooth="yes"/>
      <point x="67" y="120"/>
      <point x="36" y="84"/>
      <point x="36" y="44" type="curve" smooth="yes"/>
      <point x="36" y="8"/>
      <point x="53" y="-5"/>
    </contour>
  </outline>
</glyph>
<glyph name="period" format="2">
  <advance width="280"/>
  <unicode hex="002E"/>
  <note>
period
</note>
  <outline>
    <contour>
      <point x="94" y="-8" type="curve" smooth="yes"/>
      <point x="136" y="-8"/>
      <point x="164" y="32"/>
      <point x="164" y="68" type="curve" smooth="yes"/>
      <point x="164" y="100"/>
      <point x="144" y="120"/>
      <point x="110" y="120" type="curve" smooth="yes"/>
      <point x="66" y="120"/>
      <point x="40" y="80"/>
      <point x="40" y="44" type="curve" smooth="yes"/>
      <point x="40" y="12"/>
      <point x="58" y="-8"/>
    </contour>
  </outline>
</glyph>
<glyph name="slash" format="2">
  <advance width="516"/>
  <unicode hex="002F"/>
  <note>
slash
</note>
  <outline>
    <contour>
      <point x="-32" y="0" type="line"/>
      <point x="56" y="0" type="line"/>
      <point x="588" y="720" type="line"/>
      <point x="500" y="720" type="line"/>
    </contour>
  </outline>
</glyph>
<glyph name="zero" format="2">
  <advance width="616"/>
  <unicode hex="0030"/>
  <note>
zero
</note>
  <outline>
    <contour>
      <point x="272" y="-12" type="curve" smooth="yes"/>
      <point x="516" y="-12"/>
      <point x="600" y="294"/>
      <point x="600" y="484" type="curve" smooth="yes"/>
      <point x="600" y="636"/>
      <point x="528" y="732"/>
      <point x="384" y="732" type="curve" smooth="yes"/>
      <point x="140" y="732"/>
      <point x="56" y="426"/>
      <point x="56" y="236" type="curve" smooth="yes"/>
      <point x="56" y="84"/>
      <point x="128" y="-12"/>
    </contour>
    <contour>
      <point x="276" y="72" type="curve" smooth="yes"/>
      <point x="196" y="72"/>
      <point x="152" y="124"/>
      <point x="152" y="236" type="curve" smooth="yes"/>
      <point x="152" y="368"/>
      <point x="208" y="648"/>
      <point x="380" y="648" type="curve" smooth="yes"/>
      <point x="460" y="648"/>
      <point x="504" y="596"/>
      <point x="504" y="484" type="curve" smooth="yes"/>
      <point x="504" y="352"/>
      <point x="452" y="72"/>
    </contour>
  </outline>
</glyph>
<glyph name="one" format="2">
  <advance width="616"/>
  <unicode hex="0031"/>
  <note>
one
</note>
  <outline>
    <contour>
      <point x="228" y="12" type="line"/>
      <point x="324" y="12" type="line"/>
      <point x="426" y="536" type="line" smooth="yes"/>
      <point x="434" y="576"/>
      <point x="452" y="668"/>
      <point x="464" y="704" type="curve"/>
      <point x="464" y="716" type="line"/>
      <point x="443" y="722"/>
      <point x="408" y="728"/>
      <point x="360" y="728" type="curve" smooth="yes"/>
      <point x="292" y="728"/>
      <point x="204" y="720"/>
      <point x="172" y="708" type="curve"/>
      <point x="160" y="640" type="line"/>
      <point x="355" y="640" type="line"/>
      <point x="348" y="624"/>
      <point x="337" y="572"/>
      <point x="332" y="548" type="curve" smooth="yes"/>
    </contour>
    <contour>
      <point x="26" y="0" type="line"/>
      <point x="506" y="0" type="line"/>
      <point x="522" y="84" type="line"/>
      <point x="42" y="84" type="line"/>
    </contour>
  </outline>
</glyph>
<glyph name="two" format="2">
  <advance width="616"/>
  <unicode hex="0032"/>
  <note>
two
</note>
  <outline>
    <contour>
      <point x="24" y="0" type="curve"/>
      <point x="26" y="0" type="line"/>
      <point x="36" y="0" type="line"/>
      <point x="118" y="68" type="line"/>
      <point x="117" y="71"/>
      <point x="116" y="83"/>
      <point x="116" y="92" type="curve" smooth="yes"/>
      <point x="116" y="167"/>
      <point x="173" y="223"/>
      <point x="288" y="252" type="curve" smooth="yes"/>
      <point x="336" y="264" type="line" smooth="yes"/>
      <point x="475" y="299"/>
      <point x="584" y="372"/>
      <point x="584" y="532" type="curve" smooth="yes"/>
      <point x="584" y="640"/>
      <point x="517" y="732"/>
      <point x="332" y="732" type="curve" smooth="yes"/>
      <point x="276" y="732"/>
      <point x="216" y="720"/>
      <point x="168" y="700" type="curve"/>
      <point x="152" y="612" type="line"/>
      <point x="160" y="612" type="line"/>
      <point x="208" y="632"/>
      <point x="260" y="648"/>
      <point x="328" y="648" type="curve" smooth="yes"/>
      <point x="433" y="648"/>
      <point x="488" y="607"/>
      <point x="488" y="532" type="curve" smooth="yes"/>
      <point x="488" y="424"/>
      <point x="424" y="374"/>
      <point x="320" y="348" type="curve" smooth="yes"/>
      <point x="272" y="336" type="line" smooth="yes"/>
      <point x="91" y="291"/>
      <point x="20" y="188"/>
      <point x="20" y="40" type="curve" smooth="yes"/>
      <point x="20" y="19"/>
      <point x="22" y="8"/>
    </contour>
    <contour>
      <point x="36" y="0" type="line"/>
      <point x="500" y="0" type="line"/>
      <point x="516" y="84" type="line"/>
      <point x="52" y="84" type="line"/>
    </contour>
  </outline>
</glyph>
<glyph name="three" format="2">
  <advance width="616"/>
  <unicode hex="0033"/>
  <note>
three
</note>
  <outline>
    <contour>
      <point x="208" y="384" type="line"/>
      <point x="292" y="360" type="line"/>
      <point x="528" y="576" type="line" smooth="yes"/>
      <point x="573" y="618"/>
      <point x="592" y="658"/>
      <point x="592" y="708" type="curve"/>
      <point x="584" y="720" type="line"/>
      <point x="560" y="720" type="line"/>
    </contour>
    <contour>
      <point x="154" y="636" type="line"/>
      <point x="556" y="636" type="line"/>
      <point x="572" y="720" type="line"/>
      <point x="170" y="720" type="line"/>
    </contour>
    <contour>
      <point x="32" y="32" type="line"/>
      <point x="72" y="8"/>
      <point x="148" y="-12"/>
      <point x="228" y="-12" type="curve" smooth="yes"/>
      <point x="412" y="-12"/>
      <point x="532" y="84"/>
      <point x="532" y="224" type="curve" smooth="yes"/>
      <point x="532" y="352"/>
      <point x="448" y="416"/>
      <point x="300" y="416" type="curve"/>
      <point x="208" y="384" type="line"/>
      <point x="216" y="344" type="line"/>
      <point x="288" y="344" type="line" smooth="yes"/>
      <point x="388" y="344"/>
      <point x="440" y="304"/>
      <point x="440" y="224" type="curve" smooth="yes"/>
      <point x="440" y="148"/>
      <point x="388" y="72"/>
      <point x="232" y="72" type="curve" smooth="yes"/>
      <point x="152" y="72"/>
      <point x="92" y="96"/>
      <point x="56" y="120" type="curve"/>
      <point x="48" y="120" type="line"/>
    </contour>
  </outline>
</glyph>
<glyph name="five" format="2">
  <advance width="616"/>
  <unicode hex="0035"/>
  <note>
five
</note>
  <outline>
    <contour>
      <point x="192" y="636" type="line"/>
      <point x="588" y="636" type="line"/>
      <point x="604" y="720" type="line"/>
      <point x="324" y="720" type="line" smooth="yes"/>
      <point x="256" y="720"/>
      <point x="212" y="716"/>
      <point x="180" y="709" type="curve"/>
    </contour>
    <contour>
      <point x="112" y="332" type="line"/>
      <point x="220" y="396" type="line"/>
      <point x="256" y="588" type="line" smooth="yes"/>
      <point x="264" y="631"/>
      <point x="260" y="668"/>
      <point x="260" y="696" type="curve"/>
      <point x="260" y="712" type="line"/>
      <point x="180" y="709" type="line"/>
      <point x="176" y="700" type="line"/>
      <point x="176" y="663"/>
      <point x="160" y="576"/>
      <point x="152" y="536" type="curve" smooth="yes"/>
    </contour>
    <contour>
      <point x="28" y="32" type="line"/>
      <point x="68" y="8"/>
      <point x="148" y="-12"/>
      <point x="228" y="-12" type="curve" smooth="yes"/>
      <point x="432" y="-12"/>
      <point x="540" y="92"/>
      <point x="540" y="228" type="curve" smooth="yes"/>
      <point x="540" y="352"/>
      <point x="464" y="436"/>
      <point x="304" y="436" type="curve" smooth="yes"/>
      <point x="220" y="436"/>
      <point x="176" y="412"/>
      <point x="136" y="396" type="curve"/>
      <point x="112" y="332" type="line"/>
      <point x="116" y="328" type="line"/>
      <point x="156" y="340"/>
      <point x="216" y="356"/>
      <point x="288" y="356" type="curve" smooth="yes"/>
      <point x="400" y="356"/>
      <point x="444" y="308"/>
      <point x="444" y="228" type="curve" smooth="yes"/>
      <point x="444" y="148"/>
      <point x="388" y="72"/>
      <point x="232" y="72" type="curve" smooth="yes"/>
      <point x="152" y="72"/>
      <point x="88" y="96"/>
      <point x="52" y="120" type="curve"/>
      <point x="44" y="120" type="line"/>
    </contour>
  </outline>
</glyph>
<glyph name="eight" format="2">
  <advance width="616"/>
  <unicode hex="0038"/>
  <note>
eight
</note>
  <outline>
    <contour>
      <point x="36" y="172" type="curve" smooth="yes"/>
      <point x="36" y="68"/>
      <point x="112" y="-12"/>
      <point x="276" y="-12" type="curve" smooth="yes"/>
      <point x="424" y="-12"/>
      <point x="552" y="64"/>
      <point x="552" y="204" type="curve" smooth="yes"/>
      <point x="552" y="312"/>
      <point x="463" y="366"/>
      <point x="368" y="404" type="curve" smooth="yes"/>
      <point x="328" y="420" type="line" smooth="yes"/>
      <point x="265" y="445"/>
      <point x="220" y="468"/>
      <point x="220" y="536" type="curve" smooth="yes"/>
      <point x="220" y="600"/>
      <point x="276" y="652"/>
      <point x="372" y="652" type="curve" smooth="yes"/>
      <point x="460" y="652"/>
      <point x="504" y="616"/>
      <point x="504" y="544" type="curve" smooth="yes"/>
      <point x="504" y="462"/>
      <point x="427" y="408"/>
      <point x="380" y="388" type="curve"/>
      <point x="414" y="331" type="line"/>
      <point x="502" y="375"/>
      <point x="596" y="440"/>
      <point x="596" y="560" type="curve" smooth="yes"/>
      <point x="596" y="652"/>
      <point x="528" y="732"/>
      <point x="380" y="732" type="curve" smooth="yes"/>
      <point x="204" y="732"/>
      <point x="126" y="629"/>
      <point x="126" y="524" type="curve" smooth="yes"/>
      <point x="126" y="428"/>
      <point x="198" y="377"/>
      <point x="280" y="344" type="curve" smooth="yes"/>
      <point x="320" y="328" type="line" smooth="yes"/>
      <point x="385" y="302"/>
      <point x="456" y="276"/>
      <point x="456" y="200" type="curve" smooth="yes"/>
      <point x="456" y="120"/>
      <point x="383" y="68"/>
      <point x="280" y="68" type="curve" smooth="yes"/>
      <point x="184" y="68"/>
      <point x="128" y="108"/>
      <point x="128" y="180" type="curve" smooth="yes"/>
      <point x="128" y="276"/>
      <point x="228" y="336"/>
      <point x="324" y="356" type="curve"/>
      <point x="280" y="416" type="line"/>
      <point x="152" y="380"/>
      <point x="36" y="296"/>
    </contour>
  </outline>
</glyph>
<glyph name="nine" format="2">
  <advance width="616"/>
  <unicode hex="0039"/>
  <note>
nine
</note>
  <outline>
    <contour>
      <point x="200" y="-12" type="curve" smooth="yes"/>
      <point x="490" y="-12"/>
      <point x="600" y="234"/>
      <point x="600" y="470" type="curve" smooth="yes"/>
      <point x="600" y="630"/>
      <point x="518" y="732"/>
      <point x="356" y="732" type="curve" smooth="yes"/>
      <point x="192" y="732"/>
      <point x="92" y="610"/>
      <point x="92" y="468" type="curve" smooth="yes"/>
      <point x="92" y="320"/>
      <point x="174" y="252"/>
      <point x="308" y="252" type="curve" smooth="yes"/>
      <point x="396" y="252"/>
      <point x="452" y="288"/>
      <point x="500" y="336" type="curve"/>
      <point x="544" y="428" type="line"/>
      <point x="520" y="428" type="line"/>
      <point x="472" y="372"/>
      <point x="410" y="332"/>
      <point x="330" y="332" type="curve" smooth="yes"/>
      <point x="238" y="332"/>
      <point x="184" y="380"/>
      <point x="184" y="472" type="curve" smooth="yes"/>
      <point x="184" y="556"/>
      <point x="234" y="652"/>
      <point x="352" y="652" type="curve" smooth="yes"/>
      <point x="454" y="652"/>
      <point x="504" y="592"/>
      <point x="504" y="470" type="curve" smooth="yes"/>
      <point x="504" y="315"/>
      <point x="444" y="72"/>
      <point x="214" y="72" type="curve" smooth="yes"/>
      <point x="154" y="72"/>
      <point x="114" y="84"/>
      <point x="88" y="96" type="curve"/>
      <point x="80" y="96" type="line"/>
      <point x="62" y="8" type="line"/>
      <point x="92" y="-4"/>
      <point x="144" y="-12"/>
    </contour>
  </outline>
</glyph>
<glyph name="less" format="2">
  <advance width="616"/>
  <unicode hex="003C"/>
  <note>
less
</note>
  <outline>
    <contour>
      <point x="84" y="288" type="line"/>
      <point x="524" y="64" type="line"/>
      <point x="532" y="64" type="line"/>
      <point x="532" y="152" type="line"/>
      <point x="200" y="316" type="line"/>
      <point x="532" y="484" type="line"/>
      <point x="532" y="572" type="line"/>
      <point x="524" y="572" type="line"/>
      <point x="84" y="344" type="line"/>
    </contour>
  </outline>
</glyph>
<glyph name="equal" format="2">
  <advance width="616"/>
  <unicode hex="003D"/>
  <note>
equal
</note>
  <outline>
    <contour>
      <point x="64" y="456" type="line"/>
      <point x="64" y="376" type="line"/>
      <point x="552" y="376" type="line"/>
      <point x="552" y="456" type="line"/>
    </contour>
    <contour>
      <point x="64" y="256" type="line"/>
      <point x="64" y="176" type="line"/>
      <point x="552" y="176" type="line"/>
      <point x="552" y="256" type="line"/>
    </contour>
  </outline>
</glyph>
<glyph name="at" format="2">
  <advance width="966"/>
  <unicode hex="0040"/>
  <note>
at
</note>
  <outline>
    <contour>
      <point x="476" y="-156" type="curve" smooth="yes"/>
      <point x="544" y="-156"/>
      <point x="610" y="-144"/>
      <point x="650" y="-128" type="curve"/>
      <point x="664" y="-42" type="line"/>
      <point x="656" y="-42" type="line"/>
      <point x="612" y="-62"/>
      <point x="544" y="-76"/>
      <point x="480" y="-76" type="curve" smooth="yes"/>
      <point x="284" y="-76"/>
      <point x="140" y="16"/>
      <point x="140" y="224" type="curve" smooth="yes"/>
      <point x="140" y="492"/>
      <point x="320" y="648"/>
      <point x="552" y="648" type="curve" smooth="yes"/>
      <point x="732" y="648"/>
      <point x="856" y="556"/>
      <point x="856" y="404" type="curve" smooth="yes"/>
      <point x="856" y="236"/>
      <point x="771" y="153"/>
      <point x="643" y="122" type="curve"/>
      <point x="648" y="153"/>
      <point x="656" y="190"/>
      <point x="660" y="212" type="curve" smooth="yes"/>
      <point x="680" y="320" type="line" smooth="yes"/>
      <point x="703" y="445"/>
      <point x="648" y="508"/>
      <point x="520" y="508" type="curve" smooth="yes"/>
      <point x="468" y="508"/>
      <point x="424" y="496"/>
      <point x="386" y="480" type="curve"/>
      <point x="372" y="404" type="line"/>
      <point x="380" y="404" type="line"/>
      <point x="408" y="416"/>
      <point x="452" y="432"/>
      <point x="500" y="432" type="curve" smooth="yes"/>
      <point x="588" y="432"/>
      <point x="620" y="396"/>
      <point x="596" y="304" type="curve"/>
      <point x="572" y="172" type="line" smooth="yes"/>
      <point x="567" y="141"/>
      <point x="567" y="114"/>
      <point x="572" y="92" type="curve"/>
      <point x="612" y="116" type="line"/>
      <point x="572" y="108"/>
      <point x="536" y="108"/>
      <point x="508" y="108" type="curve" smooth="yes"/>
      <point x="420" y="108"/>
      <point x="372" y="124"/>
      <point x="372" y="176" type="curve" smooth="yes"/>
      <point x="372" y="228"/>
      <point x="416" y="260"/>
      <point x="504" y="260" type="curve" smooth="yes"/>
      <point x="544" y="260"/>
      <point x="575" y="253"/>
      <point x="596" y="244" type="curve"/>
      <point x="608" y="312" type="line"/>
      <point x="588" y="320"/>
      <point x="564" y="328"/>
      <point x="508" y="328" type="curve" smooth="yes"/>
      <point x="372" y="328"/>
      <point x="292" y="268"/>
      <point x="292" y="172" type="curve" smooth="yes"/>
      <point x="292" y="76"/>
      <point x="372" y="36"/>
      <point x="504" y="36" type="curve" smooth="yes"/>
      <point x="764" y="36"/>
      <point x="944" y="160"/>
      <point x="944" y="408" type="curve" smooth="yes"/>
      <point x="944" y="604"/>
      <point x="792" y="732"/>
      <point x="556" y="732" type="curve" smooth="yes"/>
      <point x="264" y="732"/>
      <point x="48" y="536"/>
      <point x="48" y="224" type="curve" smooth="yes"/>
      <point x="48" y="-32"/>
      <point x="228" y="-156"/>
    </contour>
  </outline>
</glyph>
<glyph name="B" format="2">
  <advance width="640"/>
  <unicode hex="0042"/>
  <note>
B
</note>
  <anchor x="267" y="0" name="bottom"/>
  <anchor x="407" y="720" name="top"/>
  <outline>
    <contour>
      <point x="108" y="0" type="line"/>
      <point x="338" y="0" type="line" smooth="yes"/>
      <point x="493" y="0"/>
      <point x="570" y="104"/>
      <point x="570" y="200" type="curve" smooth="yes"/>
      <point x="570" y="268"/>
      <point x="532" y="316"/>
      <point x="468" y="336" type="curve"/>
      <point x="468" y="312" type="line"/>
      <point x="576" y="356"/>
      <point x="628" y="458"/>
      <point x="628" y="548" type="curve" smooth="yes"/>
      <point x="628" y="664"/>
      <point x="562" y="720"/>
      <point x="418" y="720" type="curve" smooth="yes"/>
      <point x="248" y="720" type="line"/>
      <point x="232" y="636" type="line"/>
      <point x="418" y="636" type="line" smooth="yes"/>
      <point x="490" y="636"/>
      <point x="532" y="612"/>
      <point x="532" y="544" type="curve" smooth="yes"/>
      <point x="532" y="456"/>
      <point x="470" y="364"/>
      <point x="362" y="364" type="curve" smooth="yes"/>
      <point x="180" y="364" type="line"/>
      <point x="164" y="280" type="line"/>
      <point x="376" y="280" type="line" smooth="yes"/>
      <point x="436" y="280"/>
      <point x="474" y="256"/>
      <point x="474" y="204" type="curve" smooth="yes"/>
      <point x="474" y="124"/>
      <point x="410" y="84"/>
      <point x="338" y="84" type="curve" smooth="yes"/>
      <point x="124" y="84" type="line"/>
    </contour>
    <contour>
      <point x="44" y="0" type="line"/>
      <point x="140" y="0" type="line"/>
      <point x="280" y="720" type="line"/>
      <point x="184" y="720" type="line"/>
    </contour>
  </outline>
</glyph>
<glyph name="C" format="2">
  <advance width="648"/>
  <unicode hex="0043"/>
  <note>
C
</note>
  <anchor x="313" y="0" name="bottom"/>
  <anchor x="453" y="720" name="top"/>
  <outline>
    <contour>
      <point x="68" y="296" type="curve" smooth="yes"/>
      <point x="68" y="104"/>
      <point x="172" y="-12"/>
      <point x="376" y="-12" type="curve" smooth="yes"/>
      <point x="436" y="-12"/>
      <point x="492" y="0"/>
      <point x="532" y="20" type="curve"/>
      <point x="552" y="112" type="line"/>
      <point x="544" y="112" type="line"/>
      <point x="500" y="88"/>
      <point x="444" y="76"/>
      <point x="384" y="76" type="curve" smooth="yes"/>
      <point x="248" y="76"/>
      <point x="168" y="140"/>
      <point x="168" y="296" type="curve" smooth="yes"/>
      <point x="168" y="476"/>
      <point x="280" y="644"/>
      <point x="472" y="644" type="curve" smooth="yes"/>
      <point x="548" y="644"/>
      <point x="592" y="632"/>
      <point x="630" y="608" type="curve"/>
      <point x="638" y="608" type="line"/>
      <point x="656" y="700" type="line"/>
      <point x="616" y="720"/>
      <point x="544" y="732"/>
      <point x="484" y="732" type="curve" smooth="yes"/>
      <point x="208" y="732"/>
      <point x="68" y="512"/>
    </contour>
  </outline>
</glyph>
<glyph name="E" format="2">
  <advance width="616"/>
  <unicode hex="0045"/>
  <note>
E
</note>
  <anchor x="255" y="0" name="bottom"/>
  <anchor x="510" y="0" name="ogonek"/>
  <anchor x="395" y="720" name="top"/>
  <anchor x="107" y="720" name="topleft"/>
  <outline>
    <contour>
      <point x="44" y="0" type="line"/>
      <point x="140" y="0" type="line"/>
      <point x="280" y="720" type="line"/>
      <point x="184" y="720" type="line"/>
    </contour>
    <contour>
      <point x="108" y="0" type="line"/>
      <point x="510" y="0" type="line"/>
      <point x="526" y="84" type="line"/>
      <point x="124" y="84" type="line"/>
    </contour>
    <contour>
      <point x="176" y="336" type="line"/>
      <point x="510" y="336" type="line"/>
      <point x="526" y="420" type="line"/>
      <point x="192" y="420" type="line"/>
    </contour>
    <contour>
      <point x="232" y="636" type="line"/>
      <point x="622" y="636" type="line"/>
      <point x="638" y="720" type="line"/>
      <point x="248" y="720" type="line"/>
    </contour>
  </outline>
</glyph>
<glyph name="G" format="2">
  <advance width="684"/>
  <unicode hex="0047"/>
  <note>
G
</note>
  <anchor x="289" y="0" name="bottom"/>
  <anchor x="429" y="720" name="top"/>
  <outline>
    <contour>
      <point x="70" y="296" type="curve" smooth="yes"/>
      <point x="70" y="104"/>
      <point x="174" y="-12"/>
      <point x="378" y="-12" type="curve" smooth="yes"/>
      <point x="438" y="-12"/>
      <point x="514" y="0"/>
      <point x="560" y="24" type="curve"/>
      <point x="626" y="364" type="line"/>
      <point x="530" y="364" type="line"/>
      <point x="470" y="52" type="line"/>
      <point x="495" y="90" type="line"/>
      <point x="463" y="78"/>
      <point x="424" y="72"/>
      <point x="386" y="72" type="curve" smooth="yes"/>
      <point x="251" y="72"/>
      <point x="170" y="140"/>
      <point x="170" y="296" type="curve" smooth="yes"/>
      <point x="170" y="484"/>
      <point x="284" y="644"/>
      <point x="484" y="644" type="curve" smooth="yes"/>
      <point x="560" y="644"/>
      <point x="614" y="627"/>
      <point x="652" y="608" type="curve"/>
      <point x="660" y="608" type="line"/>
      <point x="678" y="700" type="line"/>
      <point x="638" y="720"/>
      <point x="556" y="732"/>
      <point x="496" y="732" type="curve" smooth="yes"/>
      <point x="216" y="732"/>
      <point x="70" y="520"/>
    </contour>
  </outline>
</glyph>
<glyph name="I" format="2">
  <advance width="288"/>
  <unicode hex="0049"/>
  <note>
I
</note>
  <anchor x="91" y="0" name="bottom"/>
  <anchor x="140" y="0" name="ogonek"/>
  <anchor x="231" y="720" name="top"/>
  <anchor x="107" y="720" name="topleft"/>
  <outline>
    <contour>
      <point x="184" y="720" type="line"/>
      <point x="44" y="0" type="line"/>
      <point x="140" y="0" type="line"/>
      <point x="280" y="720" type="line"/>
    </contour>
  </outline>
</glyph>
<glyph name="J" format="2">
  <advance width="412"/>
  <unicode hex="004A"/>
  <note>
J
</note>
  <anchor x="153" y="0" name="bottom"/>
  <anchor x="293" y="720" name="top"/>
  <outline>
    <contour>
      <point x="72" y="-12" type="curve" smooth="yes"/>
      <point x="208" y="-12"/>
      <point x="294" y="52"/>
      <point x="322" y="194" type="curve" smooth="yes"/>
      <point x="424" y="720" type="line"/>
      <point x="328" y="720" type="line"/>
      <point x="226" y="194" type="line" smooth="yes"/>
      <point x="207" y="100"/>
      <point x="156" y="72"/>
      <point x="76" y="72" type="curve" smooth="yes"/>
      <point x="40" y="72"/>
      <point x="4" y="80"/>
      <point x="-12" y="88" type="curve"/>
      <point x="-20" y="88" type="line"/>
      <point x="-36" y="4" type="line"/>
      <point x="-12" y="-4"/>
      <point x="24" y="-12"/>
    </contour>
  </outline>
</glyph>
<glyph name="K" format="2">
  <advance width="672"/>
  <unicode hex="004B"/>
  <note>
K
</note>
  <anchor x="283" y="0" name="bottom"/>
  <anchor x="423" y="720" name="top"/>
  <outline>
    <contour>
      <point x="156" y="280" type="line"/>
      <point x="280" y="280" type="line" smooth="yes"/>
      <point x="368" y="280"/>
      <point x="448" y="328"/>
      <point x="510" y="420" type="curve" smooth="yes"/>
      <point x="706" y="712" type="line"/>
      <point x="706" y="720" type="line"/>
      <point x="604" y="720" type="line"/>
      <point x="424" y="448" type="line" smooth="yes"/>
      <point x="392" y="400"/>
      <point x="352" y="364"/>
      <point x="284" y="364" type="curve" smooth="yes"/>
      <point x="172" y="364" type="line"/>
    </contour>
    <contour>
      <point x="44" y="0" type="line"/>
      <point x="140" y="0" type="line"/>
      <point x="280" y="720" type="line"/>
      <point x="184" y="720" type="line"/>
    </contour>
    <contour>
      <point x="456" y="0" type="line"/>
      <point x="562" y="0" type="line"/>
      <point x="562" y="8" type="line"/>
      <point x="412" y="348" type="line"/>
      <point x="328" y="308" type="line"/>
    </contour>
  </outline>
</glyph>
<glyph name="M" format="2">
  <advance width="820"/>
  <unicode hex="004D"/>
  <note>
M
</note>
  <anchor x="357" y="0" name="bottom"/>
  <anchor x="497" y="720" name="top"/>
  <outline>
    <contour>
      <point x="184" y="720" type="line"/>
      <point x="44" y="0" type="line"/>
      <point x="140" y="0" type="line"/>
      <point x="252" y="580" type="line"/>
      <point x="224" y="576" type="line"/>
      <point x="370" y="248" type="line"/>
      <point x="446" y="248" type="line"/>
      <point x="720" y="576" type="line"/>
      <point x="688" y="580" type="line"/>
      <point x="576" y="0" type="line"/>
      <point x="672" y="0" type="line"/>
      <point x="812" y="720" type="line"/>
      <point x="732" y="720" type="line"/>
      <point x="408" y="328" type="line"/>
      <point x="440" y="324" type="line"/>
      <point x="264" y="720" type="line"/>
    </contour>
  </outline>
</glyph>
<glyph name="S" format="2">
  <advance width="584"/>
  <unicode hex="0053"/>
  <note>
S
</note>
  <anchor x="239" y="0" name="bottom"/>
  <anchor x="379" y="720" name="top"/>
  <outline>
    <contour>
      <point x="44" y="120" type="line"/>
      <point x="26" y="28" type="line"/>
      <point x="80" y="4"/>
      <point x="152" y="-12"/>
      <point x="236" y="-12" type="curve" smooth="yes"/>
      <point x="416" y="-12"/>
      <point x="526" y="56"/>
      <point x="526" y="196" type="curve" smooth="yes"/>
      <point x="526" y="296"/>
      <point x="455" y="341"/>
      <point x="372" y="364" type="curve" smooth="yes"/>
      <point x="300" y="384" type="line" smooth="yes"/>
      <point x="237" y="401"/>
      <point x="200" y="424"/>
      <point x="200" y="490" type="curve" smooth="yes"/>
      <point x="200" y="606"/>
      <point x="300" y="644"/>
      <point x="420" y="644" type="curve" smooth="yes"/>
      <point x="492" y="644"/>
      <point x="540" y="628"/>
      <point x="568" y="612" type="curve"/>
      <point x="576" y="612" type="line"/>
      <point x="594" y="704" type="line"/>
      <point x="561" y="720"/>
      <point x="496" y="732"/>
      <point x="420" y="732" type="curve" smooth="yes"/>
      <point x="236" y="732"/>
      <point x="102" y="650"/>
      <point x="102" y="484" type="curve" smooth="yes"/>
      <point x="102" y="364"/>
      <point x="177" y="323"/>
      <point x="260" y="300" type="curve" smooth="yes"/>
      <point x="332" y="280" type="line" smooth="yes"/>
      <point x="391" y="264"/>
      <point x="428" y="250"/>
      <point x="428" y="188" type="curve" smooth="yes"/>
      <point x="428" y="108"/>
      <point x="344" y="76"/>
      <point x="240" y="76" type="curve" smooth="yes"/>
      <point x="156" y="76"/>
      <point x="96" y="96"/>
      <point x="52" y="120" type="curve"/>
    </contour>
  </outline>
</glyph>
<glyph name="T" format="2">
  <advance width="584"/>
  <unicode hex="0054"/>
  <note>
T
</note>
  <anchor x="242" y="0" name="bottom"/>
  <anchor x="309" y="360" name="center"/>
  <anchor x="379" y="720" name="top"/>
  <outline>
    <contour>
      <point x="102" y="720" type="line"/>
      <point x="86" y="636" type="line"/>
      <point x="317" y="636" type="line"/>
      <point x="194" y="0" type="line"/>
      <point x="290" y="0" type="line"/>
      <point x="413" y="636" type="line"/>
      <point x="646" y="636" type="line"/>
      <point x="662" y="720" type="line"/>
    </contour>
  </outline>
</glyph>
<glyph name="V" format="2">
  <advance width="646"/>
  <unicode hex="0056"/>
  <note>
V
</note>
  <anchor x="270" y="0" name="bottom"/>
  <anchor x="410" y="720" name="top"/>
  <outline>
    <contour>
      <point x="42" y="16" type="curve"/>
      <point x="42" y="4" type="line"/>
      <point x="92" y="-8"/>
      <point x="142" y="-12"/>
      <point x="190" y="-12" type="curve" smooth="yes"/>
      <point x="390" y="-12"/>
      <point x="469" y="71"/>
      <point x="524" y="232" type="curve" smooth="yes"/>
      <point x="690" y="720" type="line"/>
      <point x="590" y="720" type="line"/>
      <point x="428" y="240" type="line" smooth="yes"/>
      <point x="393" y="135"/>
      <point x="342" y="72"/>
      <point x="210" y="72" type="curve" smooth="yes"/>
      <point x="178" y="72"/>
      <point x="156" y="76"/>
      <point x="132" y="80" type="curve"/>
      <point x="144" y="52" type="line"/>
      <point x="153" y="71"/>
      <point x="162" y="99"/>
      <point x="166" y="124" type="curve" smooth="yes"/>
      <point x="282" y="720" type="line"/>
      <point x="186" y="720" type="line"/>
      <point x="78" y="164" type="line" smooth="yes"/>
      <point x="70" y="124"/>
      <point x="54" y="56"/>
    </contour>
  </outline>
</glyph>
<glyph name="W" format="2">
  <advance width="1044"/>
  <unicode hex="0057"/>
  <note>
W
</note>
  <anchor x="469" y="0" name="bottom"/>
  <anchor x="609" y="720" name="top"/>
  <outline>
    <contour>
      <point x="608" y="-12" type="curve" smooth="yes"/>
      <point x="772" y="-12"/>
      <point x="845" y="77"/>
      <point x="908" y="236" type="curve" smooth="yes"/>
      <point x="1100" y="720" type="line"/>
      <point x="1000" y="720" type="line"/>
      <point x="808" y="232" type="line" smooth="yes"/>
      <point x="770" y="134"/>
      <point x="728" y="72"/>
      <point x="632" y="72" type="curve" smooth="yes"/>
      <point x="604" y="72"/>
      <point x="588" y="72"/>
      <point x="560" y="84" type="curve"/>
      <point x="580" y="60" type="line"/>
      <point x="588" y="88"/>
      <point x="596" y="127"/>
      <point x="600" y="176" type="curve" smooth="yes"/>
      <point x="644" y="720" type="line"/>
      <point x="548" y="720" type="line"/>
      <point x="504" y="176" type="line" smooth="yes"/>
      <point x="501" y="136"/>
      <point x="490" y="56"/>
      <point x="480" y="16" type="curve"/>
      <point x="480" y="4" type="line"/>
      <point x="524" y="-4"/>
      <point x="564" y="-12"/>
    </contour>
    <contour>
      <point x="208" y="-12" type="curve" smooth="yes"/>
      <point x="364" y="-12"/>
      <point x="435" y="72"/>
      <point x="496" y="232" type="curve" smooth="yes"/>
      <point x="528" y="316" type="line"/>
      <point x="552" y="588" type="line"/>
      <point x="408" y="232" type="line" smooth="yes"/>
      <point x="368" y="134"/>
      <point x="328" y="72"/>
      <point x="232" y="72" type="curve" smooth="yes"/>
      <point x="199" y="72"/>
      <point x="184" y="76"/>
      <point x="168" y="80" type="curve"/>
      <point x="180" y="56" type="line"/>
      <point x="186" y="88"/>
      <point x="191" y="126"/>
      <point x="196" y="176" type="curve" smooth="yes"/>
      <point x="244" y="720" type="line"/>
      <point x="148" y="720" type="line"/>
      <point x="104" y="176" type="line" smooth="yes"/>
      <point x="98" y="104"/>
      <point x="88" y="60"/>
      <point x="76" y="16" type="curve"/>
      <point x="76" y="4" type="line"/>
      <point x="120" y="-6"/>
      <point x="164" y="-12"/>
    </contour>
  </outline>
</glyph>
<glyph name="X" format="2">
  <advance width="656"/>
  <unicode hex="0058"/>
  <note>
X
</note>
  <anchor x="275" y="0" name="bottom"/>
  <anchor x="415" y="720" name="top"/>
  <outline>
    <contour>
      <point x="-16" y="0" type="line"/>
      <point x="88" y="0" type="line"/>
      <point x="380" y="336" type="line"/>
      <point x="712" y="712" type="line"/>
      <point x="712" y="720" type="line"/>
      <point x="608" y="720" type="line"/>
      <point x="324" y="392" type="line"/>
      <point x="-16" y="8" type="line"/>
    </contour>
    <contour>
      <point x="476" y="0" type="line"/>
      <point x="572" y="0" type="line"/>
      <point x="572" y="8" type="line"/>
      <point x="380" y="396" type="line"/>
      <point x="220" y="720" type="line"/>
      <point x="124" y="720" type="line"/>
      <point x="124" y="712" type="line"/>
      <point x="316" y="324" type="line"/>
    </contour>
  </outline>
</glyph>
<glyph name="Y" format="2">
  <advance width="612"/>
  <unicode hex="0059"/>
  <note>
Y
</note>
  <anchor x="253" y="0" name="bottom"/>
  <anchor x="393" y="720" name="top"/>
  <anchor x="107" y="720" name="topleft"/>
  <outline>
    <contour>
      <point x="268" y="307" type="line"/>
      <point x="208" y="0" type="line"/>
      <point x="304" y="0" type="line"/>
      <point x="363" y="304" type="line"/>
      <point x="692" y="712" type="line"/>
      <point x="692" y="720" type="line"/>
      <point x="588" y="720" type="line"/>
      <point x="304" y="360" type="line"/>
      <point x="340" y="364" type="line"/>
      <point x="198" y="720" type="line"/>
      <point x="100" y="720" type="line"/>
      <point x="100" y="712" type="line"/>
    </contour>
  </outline>
</glyph>
<glyph name="bracketleft" format="2">
  <advance width="344"/>
  <unicode hex="005B"/>
  <note>
bracketleft
</note>
  <outline>
    <contour>
      <point x="212" y="760" type="line"/>
      <point x="48" y="-88" type="line"/>
      <point x="256" y="-88" type="line"/>
      <point x="270" y="-12" type="line"/>
      <point x="146" y="-12" type="line"/>
      <point x="281" y="684" type="line"/>
      <point x="406" y="684" type="line"/>
      <point x="420" y="760" type="line"/>
    </contour>
  </outline>
</glyph>
<glyph name="backslash" format="2">
  <advance width="516"/>
  <unicode hex="005C"/>
  <note>
backslash
</note>
  <outline>
    <contour>
      <point x="366" y="0" type="line"/>
      <point x="446" y="0" type="line"/>
      <point x="190" y="720" type="line"/>
      <point x="110" y="720" type="line"/>
    </contour>
  </outline>
</glyph>
<glyph name="bracketright" format="2">
  <advance width="344"/>
  <unicode hex="005D"/>
  <note>
bracketright
</note>
  <outline>
    <contour>
      <point x="113" y="760" type="line"/>
      <point x="99" y="684" type="line"/>
      <point x="222" y="684" type="line"/>
      <point x="87" y="-12" type="line"/>
      <point x="-37" y="-12" type="line"/>
      <point x="-51" y="-88" type="line"/>
      <point x="157" y="-88" type="line"/>
      <point x="321" y="760" type="line"/>
    </contour>
  </outline>
</glyph>
<glyph name="underscore" format="2">
  <advance width="500"/>
  <unicode hex="005F"/>
  <note>
underscore
</note>
  <outline>
    <contour>
      <point x="432" y="-12" type="line"/>
      <point x="-36" y="-12" type="line"/>
      <point x="-52" y="-92" type="line"/>
      <point x="416" y="-92" type="line"/>
    </contour>
  </outline>
</glyph>
<glyph name="a" format="2">
  <advance width="590"/>
  <unicode hex="0061"/>
  <note>
a
</note>
  <anchor x="242" y="0" name="bottom"/>
  <anchor x="468" y="28" name="ogonek"/>
  <anchor x="348" y="544" name="top"/>
  <outline>
    <contour>
      <point x="252" y="-12" type="curve" smooth="yes"/>
      <point x="328" y="-12"/>
      <point x="400" y="4"/>
      <point x="468" y="28" type="curve"/>
      <point x="472" y="36" type="line"/>
      <point x="472" y="88"/>
      <point x="481" y="141"/>
      <point x="492" y="200" type="curve" smooth="yes"/>
      <point x="516" y="324" type="line" smooth="yes"/>
      <point x="545" y="475"/>
      <point x="480" y="556"/>
      <point x="312" y="556" type="curve" smooth="yes"/>
      <point x="248" y="556"/>
      <point x="204" y="546"/>
      <point x="152" y="528" type="curve"/>
      <point x="136" y="444" type="line"/>
      <point x="148" y="444" type="line"/>
      <point x="184" y="460"/>
      <point x="236" y="476"/>
      <point x="296" y="476" type="curve" smooth="yes"/>
      <point x="412" y="476"/>
      <point x="448" y="434"/>
      <point x="427" y="328" type="curve" smooth="yes"/>
      <point x="392" y="148" type="line" smooth="yes"/>
      <point x="386" y="117"/>
      <point x="383" y="92"/>
      <point x="386" y="62" type="curve"/>
      <point x="404" y="92" type="line"/>
      <point x="360" y="72"/>
      <point x="316" y="64"/>
      <point x="256" y="64" type="curve" smooth="yes"/>
      <point x="184" y="64"/>
      <point x="132" y="88"/>
      <point x="132" y="148" type="curve" smooth="yes"/>
      <point x="132" y="224"/>
      <point x="192" y="256"/>
      <point x="296" y="256" type="curve" smooth="yes"/>
      <point x="356" y="256"/>
      <point x="392" y="244"/>
      <point x="428" y="228" type="curve"/>
      <point x="428" y="308" type="line"/>
      <point x="411" y="314"/>
      <point x="364" y="332"/>
      <point x="292" y="332" type="curve" smooth="yes"/>
      <point x="156" y="332"/>
      <point x="40" y="276"/>
      <point x="40" y="144" type="curve" smooth="yes"/>
      <point x="40" y="44"/>
      <point x="116" y="-12"/>
    </contour>
  </outline>
</glyph>
<glyph name="b" format="2">
  <advance width="618"/>
  <unicode hex="0062"/>
  <note>
b
</note>
  <anchor x="256" y="0" name="bottom"/>
  <anchor x="404" y="760" name="top"/>
  <outline>
    <contour>
      <point x="248" y="-12" type="curve" smooth="yes"/>
      <point x="440" y="-12"/>
      <point x="580" y="120"/>
      <point x="580" y="320" type="curve" smooth="yes"/>
      <point x="580" y="472"/>
      <point x="484" y="556"/>
      <point x="348" y="556" type="curve" smooth="yes"/>
      <point x="302" y="556"/>
      <point x="262" y="546"/>
      <point x="228" y="532" type="curve"/>
      <point x="220" y="458" type="line"/>
      <point x="240" y="465"/>
      <point x="276" y="476"/>
      <point x="328" y="476" type="curve" smooth="yes"/>
      <point x="428" y="476"/>
      <point x="486" y="428"/>
      <point x="486" y="320" type="curve" smooth="yes"/>
      <point x="486" y="160"/>
      <point x="388" y="68"/>
      <point x="252" y="68" type="curve" smooth="yes"/>
      <point x="206" y="68"/>
      <point x="160" y="76"/>
      <point x="136" y="84" type="curve"/>
      <point x="144" y="68" type="line"/>
      <point x="152" y="85"/>
      <point x="160" y="111"/>
      <point x="168" y="148" type="curve" smooth="yes"/>
      <point x="288" y="760" type="line"/>
      <point x="190" y="760" type="line"/>
      <point x="186" y="752" type="line"/>
      <point x="187" y="716"/>
      <point x="170" y="628"/>
      <point x="162" y="588" type="curve" smooth="yes"/>
      <point x="76" y="152" type="line" smooth="yes"/>
      <point x="68" y="112"/>
      <point x="56" y="64"/>
      <point x="44" y="32" type="curve"/>
      <point x="48" y="24" type="line"/>
      <point x="100" y="0"/>
      <point x="176" y="-12"/>
    </contour>
  </outline>
</glyph>
<glyph name="c" format="2">
  <advance width="504"/>
  <unicode hex="0063"/>
  <note>
c
</note>
  <anchor x="249" y="0" name="bottom"/>
  <anchor x="346" y="544" name="top"/>
  <outline>
    <contour>
      <point x="48" y="220" type="curve" smooth="yes"/>
      <point x="48" y="76"/>
      <point x="132" y="-8"/>
      <point x="292" y="-8" type="curve" smooth="yes"/>
      <point x="340" y="-8"/>
      <point x="384" y="0"/>
      <point x="420" y="16" type="curve"/>
      <point x="436" y="100" type="line"/>
      <point x="428" y="100" type="line"/>
      <point x="397" y="86"/>
      <point x="356" y="72"/>
      <point x="304" y="72" type="curve" smooth="yes"/>
      <point x="204" y="72"/>
      <point x="142" y="120"/>
      <point x="142" y="220" type="curve" smooth="yes"/>
      <point x="142" y="384"/>
      <point x="252" y="476"/>
      <point x="388" y="476" type="curve" smooth="yes"/>
      <point x="440" y="476"/>
      <point x="472" y="464"/>
      <point x="496" y="450" type="curve"/>
      <point x="504" y="450" type="line"/>
      <point x="520" y="532" type="line"/>
      <point x="492" y="548"/>
      <point x="440" y="556"/>
      <point x="392" y="556" type="curve" smooth="yes"/>
      <point x="196" y="556"/>
      <point x="48" y="424"/>
    </contour>
  </outline>
</glyph>
<glyph name="e" format="2">
  <advance width="598"/>
  <unicode hex="0065"/>
  <note>
e
</note>
  <anchor x="252" y="0" name="bottom"/>
  <anchor x="461" y="20" name="ogonek"/>
  <anchor x="357" y="544" name="top"/>
  <outline>
    <contour>
      <point x="305" y="-8" type="curve" smooth="yes"/>
      <point x="369" y="-8"/>
      <point x="429" y="4"/>
      <point x="461" y="20" type="curve"/>
      <point x="477" y="104" type="line"/>
      <point x="469" y="104" type="line"/>
      <point x="438" y="88"/>
      <point x="381" y="72"/>
      <point x="313" y="72" type="curve" smooth="yes"/>
      <point x="209" y="72"/>
      <point x="143" y="120"/>
      <point x="143" y="220" type="curve" smooth="yes"/>
      <point x="143" y="240" type="line" smooth="yes"/>
      <point x="143" y="352"/>
      <point x="217" y="476"/>
      <point x="345" y="476" type="curve" smooth="yes"/>
      <point x="433" y="476"/>
      <point x="467" y="432"/>
      <point x="467" y="360" type="curve" smooth="yes"/>
      <point x="467" y="350"/>
      <point x="465" y="332"/>
      <point x="461" y="316" type="curve"/>
      <point x="113" y="316" type="line"/>
      <point x="113" y="240" type="line"/>
      <point x="541" y="240" type="line"/>
      <point x="551" y="276"/>
      <point x="561" y="320"/>
      <point x="561" y="364" type="curve" smooth="yes"/>
      <point x="561" y="476"/>
      <point x="489" y="556"/>
      <point x="349" y="556" type="curve" smooth="yes"/>
      <point x="161" y="556"/>
      <point x="49" y="392"/>
      <point x="49" y="220" type="curve" smooth="yes"/>
      <point x="49" y="76"/>
      <point x="137" y="-8"/>
    </contour>
  </outline>
</glyph>
<glyph name="g" format="2">
  <advance width="618"/>
  <unicode hex="0067"/>
  <note>
g
</note>
  <anchor x="209" y="-240" name="bottom"/>
  <anchor x="362" y="544" name="top"/>
  <outline>
    <contour>
      <point x="164" y="-240" type="curve" smooth="yes"/>
      <point x="356" y="-240"/>
      <point x="446" y="-144"/>
      <point x="476" y="8" type="curve" smooth="yes"/>
      <point x="552" y="396" type="line" smooth="yes"/>
      <point x="560" y="436"/>
      <point x="572" y="480"/>
      <point x="584" y="512" type="curve"/>
      <point x="580" y="520" type="line"/>
      <point x="524" y="544"/>
      <point x="456" y="556"/>
      <point x="384" y="556" type="curve" smooth="yes"/>
      <point x="188" y="556"/>
      <point x="52" y="428"/>
      <point x="52" y="232" type="curve" smooth="yes"/>
      <point x="52" y="76"/>
      <point x="160" y="4"/>
      <point x="304" y="4" type="curve" smooth="yes"/>
      <point x="344" y="4"/>
      <point x="376" y="12"/>
      <point x="396" y="20" type="curve"/>
      <point x="412" y="100" type="line"/>
      <point x="392" y="92"/>
      <point x="364" y="84"/>
      <point x="316" y="84" type="curve" smooth="yes"/>
      <point x="210" y="84"/>
      <point x="146" y="124"/>
      <point x="146" y="232" type="curve" smooth="yes"/>
      <point x="146" y="388"/>
      <point x="240" y="476"/>
      <point x="376" y="476" type="curve" smooth="yes"/>
      <point x="432" y="476"/>
      <point x="460" y="468"/>
      <point x="500" y="448" type="curve"/>
      <point x="480" y="474" type="line"/>
      <point x="474" y="458"/>
      <point x="467" y="436"/>
      <point x="460" y="400" type="curve" smooth="yes"/>
      <point x="388" y="28" type="line"/>
      <point x="368" y="-92"/>
      <point x="300" y="-160"/>
      <point x="172" y="-160" type="curve" smooth="yes"/>
      <point x="128" y="-160"/>
      <point x="76" y="-152"/>
      <point x="36" y="-132" type="curve"/>
      <point x="28" y="-132" type="line"/>
      <point x="12" y="-216" type="line"/>
      <point x="52" y="-232"/>
      <point x="116" y="-240"/>
    </contour>
  </outline>
</glyph>
<glyph name="l" format="2">
  <advance width="284"/>
  <unicode hex="006C"/>
  <note>
l
</note>
  <anchor x="84" y="0" name="bottom"/>
  <anchor x="180" y="390" name="center"/>
  <anchor x="349" y="360" name="periodCAT"/>
  <anchor x="246" y="760" name="top"/>
  <anchor x="362" y="544" name="topright"/>
  <outline>
    <contour>
      <point x="44" y="0" type="line"/>
      <point x="136" y="0" type="line"/>
      <point x="284" y="760" type="line"/>
      <point x="186" y="760" type="line"/>
      <point x="182" y="752" type="line"/>
      <point x="183" y="716"/>
      <point x="166" y="628"/>
      <point x="158" y="588" type="curve" smooth="yes"/>
    </contour>
  </outline>
</glyph>
<glyph name="m" format="2">
  <advance width="956"/>
  <unicode hex="006D"/>
  <note>
m
</note>
  <anchor x="425" y="0" name="bottom"/>
  <anchor x="531" y="544" name="top"/>
  <outline>
    <contour>
      <point x="44" y="0" type="line"/>
      <point x="136" y="0" type="line"/>
      <point x="212" y="392" type="line" smooth="yes"/>
      <point x="217" y="422"/>
      <point x="219" y="453"/>
      <point x="220" y="476" type="curve"/>
      <point x="200" y="452" type="line"/>
      <point x="238" y="466"/>
      <point x="288" y="476"/>
      <point x="332" y="476" type="curve" smooth="yes"/>
      <point x="416" y="476"/>
      <point x="457" y="452"/>
      <point x="457" y="370" type="curve" smooth="yes"/>
      <point x="457" y="353"/>
      <point x="455" y="334"/>
      <point x="451" y="312" type="curve" smooth="yes"/>
      <point x="391" y="0" type="line"/>
      <point x="483" y="0" type="line"/>
      <point x="543" y="312" type="line" smooth="yes"/>
      <point x="548" y="339"/>
      <point x="551" y="364"/>
      <point x="551" y="384" type="curve" smooth="yes"/>
      <point x="551" y="504"/>
      <point x="480" y="556"/>
      <point x="348" y="556" type="curve" smooth="yes"/>
      <point x="296" y="556"/>
      <point x="200" y="540"/>
      <point x="140" y="516" type="curve"/>
      <point x="136" y="508" type="line"/>
      <point x="134" y="472"/>
      <point x="128" y="432"/>
      <point x="120" y="392" type="curve" smooth="yes"/>
    </contour>
    <contour>
      <point x="720" y="0" type="line"/>
      <point x="812" y="0" type="line"/>
      <point x="872" y="312" type="line" smooth="yes"/>
      <point x="877" y="339"/>
      <point x="880" y="364"/>
      <point x="880" y="384" type="curve" smooth="yes"/>
      <point x="880" y="512"/>
      <point x="800" y="556"/>
      <point x="675" y="556" type="curve" smooth="yes"/>
      <point x="612" y="556"/>
      <point x="540" y="536"/>
      <point x="484" y="512" type="curve"/>
      <point x="528" y="444" type="line"/>
      <point x="568" y="464"/>
      <point x="608" y="476"/>
      <point x="660" y="476" type="curve" smooth="yes"/>
      <point x="744" y="476"/>
      <point x="786" y="452"/>
      <point x="786" y="370" type="curve" smooth="yes"/>
      <point x="786" y="353"/>
      <point x="784" y="334"/>
      <point x="780" y="312" type="curve" smooth="yes"/>
    </contour>
  </outline>
</glyph>
<glyph name="p" format="2">
  <advance width="618"/>
  <unicode hex="0070"/>
  <note>
p
</note>
  <anchor x="256" y="0" name="bottom"/>
  <anchor x="362" y="544" name="top"/>
  <outline>
    <contour>
      <point x="140" y="92" type="curve"/>
      <point x="124" y="12" type="line"/>
      <point x="148" y="0"/>
      <point x="200" y="-12"/>
      <point x="252" y="-12" type="curve" smooth="yes"/>
      <point x="444" y="-12"/>
      <point x="578" y="120"/>
      <point x="578" y="320" type="curve" smooth="yes"/>
      <point x="578" y="476"/>
      <point x="480" y="556"/>
      <point x="344" y="556" type="curve" smooth="yes"/>
      <point x="272" y="556"/>
      <point x="200" y="540"/>
      <point x="142" y="520" type="curve"/>
      <point x="138" y="512" type="line"/>
      <point x="136" y="476"/>
      <point x="130" y="436"/>
      <point x="122" y="396" type="curve" smooth="yes"/>
      <point x="0" y="-232" type="line"/>
      <point x="92" y="-232" type="line"/>
      <point x="214" y="396" type="line" smooth="yes"/>
      <point x="220" y="425"/>
      <point x="221" y="455"/>
      <point x="220" y="480" type="curve"/>
      <point x="204" y="452" type="line"/>
      <point x="238" y="466"/>
      <point x="280" y="476"/>
      <point x="328" y="476" type="curve" smooth="yes"/>
      <point x="428" y="476"/>
      <point x="484" y="428"/>
      <point x="484" y="320" type="curve" smooth="yes"/>
      <point x="484" y="160"/>
      <point x="392" y="68"/>
      <point x="256" y="68" type="curve" smooth="yes"/>
      <point x="192" y="68"/>
      <point x="160" y="80"/>
    </contour>
  </outline>
</glyph>
<glyph name="q" format="2">
  <advance width="618"/>
  <unicode hex="0071"/>
  <note>
q
</note>
  <anchor x="256" y="0" name="bottom"/>
  <anchor x="362" y="544" name="top"/>
  <outline>
    <contour>
      <point x="404" y="8" type="curve"/>
      <point x="424" y="92" type="line"/>
      <point x="392" y="76"/>
      <point x="352" y="68"/>
      <point x="304" y="68" type="curve" smooth="yes"/>
      <point x="200" y="68"/>
      <point x="142" y="116"/>
      <point x="142" y="224" type="curve" smooth="yes"/>
      <point x="142" y="384"/>
      <point x="232" y="476"/>
      <point x="372" y="476" type="curve" smooth="yes"/>
      <point x="428" y="476"/>
      <point x="460" y="468"/>
      <point x="496" y="448" type="curve"/>
      <point x="484" y="476" type="line"/>
      <point x="472" y="452"/>
      <point x="466" y="429"/>
      <point x="460" y="396" type="curve" smooth="yes"/>
      <point x="338" y="-232" type="line"/>
      <point x="430" y="-232" type="line"/>
      <point x="554" y="404" type="line" smooth="yes"/>
      <point x="562" y="444"/>
      <point x="572" y="480"/>
      <point x="584" y="512" type="curve"/>
      <point x="580" y="520" type="line"/>
      <point x="524" y="544"/>
      <point x="452" y="556"/>
      <point x="380" y="556" type="curve" smooth="yes"/>
      <point x="180" y="556"/>
      <point x="48" y="424"/>
      <point x="48" y="224" type="curve" smooth="yes"/>
      <point x="48" y="68"/>
      <point x="148" y="-12"/>
      <point x="292" y="-12" type="curve" smooth="yes"/>
      <point x="332" y="-12"/>
      <point x="372" y="-4"/>
    </contour>
  </outline>
</glyph>
<glyph name="u" format="2">
  <advance width="632"/>
  <unicode hex="0075"/>
  <note>
u
</note>
  <anchor x="263" y="0" name="bottom"/>
  <anchor x="500" y="28" name="ogonek"/>
  <anchor x="369" y="544" name="top"/>
  <anchor x="529" y="544" name="topright"/>
  <outline>
    <contour>
      <point x="76" y="160" type="curve" smooth="yes"/>
      <point x="76" y="32"/>
      <point x="164" y="-12"/>
      <point x="288" y="-12" type="curve" smooth="yes"/>
      <point x="340" y="-12"/>
      <point x="440" y="4"/>
      <point x="500" y="28" type="curve"/>
      <point x="504" y="36" type="line"/>
      <point x="506" y="72"/>
      <point x="512" y="112"/>
      <point x="520" y="152" type="curve" smooth="yes"/>
      <point x="596" y="544" type="line"/>
      <point x="498" y="544" type="line"/>
      <point x="494" y="536" type="line"/>
      <point x="495" y="500"/>
      <point x="480" y="420"/>
      <point x="472" y="380" type="curve" smooth="yes"/>
      <point x="428" y="152" type="line" smooth="yes"/>
      <point x="421" y="122"/>
      <point x="420" y="90"/>
      <point x="420" y="68" type="curve"/>
      <point x="440" y="92" type="line"/>
      <point x="400" y="76"/>
      <point x="348" y="68"/>
      <point x="304" y="68" type="curve" smooth="yes"/>
      <point x="220" y="68"/>
      <point x="170" y="92"/>
      <point x="170" y="174" type="curve" smooth="yes"/>
      <point x="170" y="191"/>
      <point x="172" y="210"/>
      <point x="176" y="232" type="curve" smooth="yes"/>
      <point x="236" y="544" type="line"/>
      <point x="138" y="544" type="line"/>
      <point x="134" y="536" type="line"/>
      <point x="135" y="500"/>
      <point x="120" y="420"/>
      <point x="112" y="380" type="curve" smooth="yes"/>
      <point x="84" y="232" type="line" smooth="yes"/>
      <point x="79" y="205"/>
      <point x="76" y="180"/>
    </contour>
  </outline>
</glyph>
<glyph name="w" format="2">
  <advance width="772"/>
  <unicode hex="0077"/>
  <note>
w
</note>
  <anchor x="333" y="0" name="bottom"/>
  <anchor x="439" y="544" name="top"/>
  <outline>
    <contour>
      <point x="68" y="532" type="line"/>
      <point x="112" y="0" type="line"/>
      <point x="220" y="0" type="line"/>
      <point x="436" y="424" type="line"/>
      <point x="408" y="424" type="line"/>
      <point x="456" y="0" type="line"/>
      <point x="564" y="0" type="line"/>
      <point x="816" y="532" type="line"/>
      <point x="816" y="544" type="line"/>
      <point x="724" y="544" type="line"/>
      <point x="512" y="76" type="line"/>
      <point x="528" y="72" type="line"/>
      <point x="480" y="544" type="line"/>
      <point x="412" y="544" type="line"/>
      <point x="172" y="76" type="line"/>
      <point x="192" y="56" type="line"/>
      <point x="164" y="544" type="line"/>
      <point x="68" y="544" type="line"/>
    </contour>
  </outline>
</glyph>
<glyph name="y" format="2">
  <advance width="536"/>
  <unicode hex="0079"/>
  <note>
y
</note>
  <anchor x="354" y="0" name="bottom"/>
  <anchor x="321" y="544" name="top"/>
  <outline>
    <contour>
      <point x="34" y="-232" type="line"/>
      <point x="126" y="-232" type="line"/>
      <point x="578" y="532" type="line"/>
      <point x="578" y="544" type="line"/>
      <point x="486" y="544" type="line"/>
      <point x="188" y="28" type="line"/>
      <point x="34" y="-220" type="line"/>
    </contour>
    <contour>
      <point x="176" y="-28" type="line"/>
      <point x="240" y="104" type="line"/>
      <point x="162" y="544" type="line"/>
      <point x="66" y="544" type="line"/>
      <point x="66" y="532" type="line"/>
    </contour>
  </outline>
</glyph>
<glyph name="braceright" format="2">
  <advance width="372"/>
  <unicode hex="007D"/>
  <note>
braceright
</note>
  <outline>
    <contour>
      <point x="-51" y="-88" type="line"/>
      <point x="33" y="-88" type="line" smooth="yes"/>
      <point x="133" y="-88"/>
      <point x="183" y="-32"/>
      <point x="201" y="60" type="curve" smooth="yes"/>
      <point x="233" y="220" type="line" smooth="yes"/>
      <point x="241" y="260"/>
      <point x="265" y="292"/>
      <point x="313" y="292" type="curve" smooth="yes"/>
      <point x="360" y="292" type="line"/>
      <point x="377" y="380" type="line"/>
      <point x="329" y="380" type="line" smooth="yes"/>
      <point x="277" y="380"/>
      <point x="269" y="412"/>
      <point x="277" y="452" type="curve" smooth="yes"/>
      <point x="309" y="612" type="line" smooth="yes"/>
      <point x="327" y="704"/>
      <point x="289" y="760"/>
      <point x="189" y="760" type="curve" smooth="yes"/>
      <point x="117" y="760" type="line"/>
      <point x="103" y="684" type="line"/>
      <point x="177" y="684" type="line" smooth="yes"/>
      <point x="217" y="684"/>
      <point x="233" y="664"/>
      <point x="225" y="620" type="curve" smooth="yes"/>
      <point x="193" y="456" type="line" smooth="yes"/>
      <point x="179" y="384"/>
      <point x="211" y="346"/>
      <point x="261" y="336" type="curve"/>
      <point x="207" y="326"/>
      <point x="159" y="288"/>
      <point x="145" y="216" type="curve" smooth="yes"/>
      <point x="115" y="60" type="line" smooth="yes"/>
      <point x="105" y="8"/>
      <point x="81" y="-12"/>
      <point x="41" y="-12" type="curve" smooth="yes"/>
      <point x="-35" y="-12" type="line"/>
    </contour>
  </outline>
</glyph>
<glyph name="cent" format="2">
  <advance width="616"/>
  <unicode hex="00A2"/>
  <note>
cent
</note>
  <outline>
    <contour>
      <point x="370" y="604" type="line"/>
      <point x="454" y="604" type="line"/>
      <point x="492" y="800" type="line"/>
      <point x="408" y="800" type="line"/>
    </contour>
    <contour>
      <point x="102" y="320" type="curve" smooth="yes"/>
      <point x="102" y="176"/>
      <point x="186" y="92"/>
      <point x="346" y="92" type="curve" smooth="yes"/>
      <point x="394" y="92"/>
      <point x="438" y="100"/>
      <point x="474" y="116" type="curve"/>
      <point x="490" y="200" type="line"/>
      <point x="482" y="200" type="line"/>
      <point x="451" y="186"/>
      <point x="410" y="172"/>
      <point x="358" y="172" type="curve" smooth="yes"/>
      <point x="258" y="172"/>
      <point x="196" y="220"/>
      <point x="196" y="320" type="curve" smooth="yes"/>
      <point x="196" y="484"/>
      <point x="306" y="576"/>
      <point x="442" y="576" type="curve" smooth="yes"/>
      <point x="494" y="576"/>
      <point x="526" y="564"/>
      <point x="550" y="550" type="curve"/>
      <point x="558" y="550" type="line"/>
      <point x="574" y="632" type="line"/>
      <point x="546" y="648"/>
      <point x="494" y="656"/>
      <point x="446" y="656" type="curve" smooth="yes"/>
      <point x="250" y="656"/>
      <point x="102" y="524"/>
    </contour>
    <contour>
      <point x="242" y="-64" type="line"/>
      <point x="326" y="-64" type="line"/>
      <point x="364" y="132" type="line"/>
      <point x="280" y="132" type="line"/>
    </contour>
  </outline>
</glyph>
<glyph name="yen" format="2">
  <advance width="616"/>
  <unicode hex="00A5"/>
  <note>
yen
</note>
  <outline>
    <contour>
      <point x="336" y="300" type="line"/>
      <point x="668" y="712" type="line"/>
      <point x="668" y="720" type="line"/>
      <point x="572" y="720" type="line"/>
      <point x="304" y="376" type="line"/>
    </contour>
    <contour>
      <point x="292" y="308" type="line"/>
      <point x="352" y="384" type="line"/>
      <point x="216" y="720" type="line"/>
      <point x="120" y="720" type="line"/>
      <point x="120" y="712" type="line"/>
    </contour>
    <contour>
      <point x="128" y="340" type="line"/>
      <point x="520" y="340" type="line"/>
      <point x="536" y="420" type="line"/>
      <point x="144" y="420" type="line"/>
    </contour>
    <contour>
      <point x="212" y="0" type="line"/>
      <point x="308" y="0" type="line"/>
      <point x="384" y="392" type="line"/>
      <point x="288" y="392" type="line"/>
    </contour>
    <contour>
      <point x="100" y="188" type="line"/>
      <point x="492" y="188" type="line"/>
      <point x="508" y="268" type="line"/>
      <point x="116" y="268" type="line"/>
    </contour>
  </outline>
</glyph>
<glyph name="guillemetleft" format="2">
  <advance width="564"/>
  <unicode hex="00AB"/>
  <note>
guillemotleft
</note>
  <outline>
    <contour>
      <point x="260" y="292" type="line"/>
      <point x="456" y="72" type="line"/>
      <point x="464" y="72" type="line"/>
      <point x="482" y="160" type="line"/>
      <point x="356" y="302" type="line"/>
      <point x="540" y="440" type="line"/>
      <point x="560" y="544" type="line"/>
      <point x="552" y="544" type="line"/>
      <point x="268" y="324" type="line"/>
    </contour>
    <contour>
      <point x="236" y="72" type="line"/>
      <point x="244" y="72" type="line"/>
      <point x="262" y="160" type="line"/>
      <point x="136" y="302" type="line"/>
      <point x="320" y="440" type="line"/>
      <point x="340" y="544" type="line"/>
      <point x="332" y="544" type="line"/>
      <point x="48" y="324" type="line"/>
      <point x="40" y="292" type="line"/>
    </contour>
  </outline>
</glyph>
<glyph name="logicalnot" format="2">
  <advance width="616"/>
  <unicode hex="00AC"/>
  <note>
logicalnot
</note>
  <outline>
    <contour>
      <point x="64" y="356" type="line"/>
      <point x="64" y="276" type="line"/>
      <point x="472" y="276" type="line"/>
      <point x="472" y="64" type="line"/>
      <point x="552" y="64" type="line"/>
      <point x="552" y="356" type="line"/>
    </contour>
  </outline>
</glyph>
<glyph name="degree" format="2">
  <advance width="392"/>
  <unicode hex="00B0"/>
  <note>
degree
</note>
  <outline>
    <contour>
      <point x="264" y="480" type="curve" smooth="yes"/>
      <point x="340" y="480"/>
      <point x="400" y="528"/>
      <point x="400" y="608" type="curve" smooth="yes"/>
      <point x="400" y="688"/>
      <point x="340" y="736"/>
      <point x="264" y="736" type="curve" smooth="yes"/>
      <point x="188" y="736"/>
      <point x="128" y="688"/>
      <point x="128" y="608" type="curve" smooth="yes"/>
      <point x="128" y="528"/>
      <point x="188" y="480"/>
    </contour>
    <contour>
      <point x="264" y="532" type="curve" smooth="yes"/>
      <point x="218" y="532"/>
      <point x="188" y="560"/>
      <point x="188" y="608" type="curve" smooth="yes"/>
      <point x="188" y="656"/>
      <point x="218" y="684"/>
      <point x="264" y="684" type="curve" smooth="yes"/>
      <point x="310" y="684"/>
      <point x="340" y="656"/>
      <point x="340" y="608" type="curve" smooth="yes"/>
      <point x="340" y="560"/>
      <point x="310" y="532"/>
    </contour>
  </outline>
</glyph>
<glyph name="plusminus" format="2">
  <advance width="616"/>
  <unicode hex="00B1"/>
  <note>
plusminus
</note>
  <outline>
    <contour>
      <point x="268" y="156" type="line"/>
      <point x="348" y="156" type="line"/>
      <point x="348" y="644" type="line"/>
      <point x="268" y="644" type="line"/>
    </contour>
    <contour>
      <point x="64" y="0" type="line"/>
      <point x="552" y="0" type="line"/>
      <point x="552" y="80" type="line"/>
      <point x="64" y="80" type="line"/>
    </contour>
    <contour>
      <point x="64" y="360" type="line"/>
      <point x="552" y="360" type="line"/>
      <point x="552" y="440" type="line"/>
      <point x="64" y="440" type="line"/>
    </contour>
  </outline>
</glyph>
<glyph name="guillemetright" format="2">
  <advance width="564"/>
  <unicode hex="00BB"/>
  <note>
guillemotright
</note>
  <outline>
    <contour>
      <point x="238" y="72" type="line"/>
      <point x="246" y="72" type="line"/>
      <point x="530" y="292" type="line"/>
      <point x="538" y="324" type="line"/>
      <point x="342" y="544" type="line"/>
      <point x="334" y="544" type="line"/>
      <point x="316" y="456" type="line"/>
      <point x="442" y="314" type="line"/>
      <point x="258" y="176" type="line"/>
    </contour>
    <contour>
      <point x="18" y="72" type="line"/>
      <point x="26" y="72" type="line"/>
      <point x="310" y="292" type="line"/>
      <point x="318" y="324" type="line"/>
      <point x="122" y="544" type="line"/>
      <point x="114" y="544" type="line"/>
      <point x="96" y="456" type="line"/>
      <point x="222" y="314" type="line"/>
      <point x="38" y="176" type="line"/>
    </contour>
  </outline>
</glyph>
<glyph name="questiondown" format="2">
  <advance width="500"/>
  <unicode hex="00BF"/>
  <note>
questiondown
</note>
  <outline>
    <contour>
      <point x="340" y="416" type="curve" smooth="yes"/>
      <point x="384" y="416"/>
      <point x="410" y="456"/>
      <point x="410" y="492" type="curve" smooth="yes"/>
      <point x="410" y="524"/>
      <point x="392" y="544"/>
      <point x="356" y="544" type="curve" smooth="yes"/>
      <point x="314" y="544"/>
      <point x="286" y="504"/>
      <point x="286" y="468" type="curve" smooth="yes"/>
      <point x="286" y="436"/>
      <point x="306" y="416"/>
    </contour>
    <contour>
      <point x="-8" y="-28" type="curve" smooth="yes"/>
      <point x="-8" y="-136"/>
      <point x="63" y="-196"/>
      <point x="196" y="-196" type="curve" smooth="yes"/>
      <point x="248" y="-196"/>
      <point x="300" y="-188"/>
      <point x="364" y="-160" type="curve"/>
      <point x="380" y="-72" type="line"/>
      <point x="372" y="-72" type="line"/>
      <point x="317" y="-100"/>
      <point x="272" y="-112"/>
      <point x="204" y="-112" type="curve" smooth="yes"/>
      <point x="134" y="-112"/>
      <point x="92" y="-84"/>
      <point x="92" y="-24" type="curve" smooth="yes"/>
      <point x="92" y="46"/>
      <point x="156" y="85"/>
      <point x="192" y="104" type="curve" smooth="yes"/>
      <point x="260" y="140" type="line" smooth="yes"/>
      <point x="320" y="172"/>
      <point x="344" y="220"/>
      <point x="356" y="276" type="curve" smooth="yes"/>
      <point x="372" y="348" type="line"/>
      <point x="280" y="348" type="line"/>
      <point x="264" y="280" type="line" smooth="yes"/>
      <point x="258" y="256"/>
      <point x="250" y="226"/>
      <point x="216" y="208" type="curve" smooth="yes"/>
      <point x="164" y="180" type="line" smooth="yes"/>
      <point x="119" y="156"/>
      <point x="-8" y="98"/>
    </contour>
  </outline>
</glyph>
<glyph name="Thorn" format="2">
  <advance width="594"/>
  <unicode hex="00DE"/>
  <note>
Thorn
</note>
  <outline>
    <contour>
      <point x="224" y="604" type="line"/>
      <point x="208" y="520" type="line"/>
      <point x="372" y="520" type="line" smooth="yes"/>
      <point x="440" y="520"/>
      <point x="480" y="488"/>
      <point x="480" y="412" type="curve" smooth="yes"/>
      <point x="480" y="304"/>
      <point x="416" y="208"/>
      <point x="280" y="208" type="curve" smooth="yes"/>
      <point x="144" y="208" type="line"/>
      <point x="128" y="124" type="line"/>
      <point x="280" y="124" type="line" smooth="yes"/>
      <point x="496" y="124"/>
      <point x="580" y="288"/>
      <point x="580" y="412" type="curve" smooth="yes"/>
      <point x="580" y="536"/>
      <point x="504" y="604"/>
      <point x="368" y="604" type="curve" smooth="yes"/>
    </contour>
    <contour>
      <point x="184" y="720" type="line"/>
      <point x="44" y="0" type="line"/>
      <point x="140" y="0" type="line"/>
      <point x="280" y="720" type="line"/>
    </contour>
  </outline>
</glyph>
<glyph name="germandbls" format="2">
  <advance width="588"/>
  <unicode hex="00DF"/>
  <note>
germandbls
</note>
  <outline>
    <contour>
      <point x="344" y="-8" type="curve" smooth="yes"/>
      <point x="456" y="-8"/>
      <point x="536" y="48"/>
      <point x="536" y="160" type="curve" smooth="yes"/>
      <point x="536" y="216"/>
      <point x="504" y="256"/>
      <point x="476" y="284" type="curve" smooth="yes"/>
      <point x="464" y="296" type="line" smooth="yes"/>
      <point x="444" y="316"/>
      <point x="424" y="332"/>
      <point x="424" y="368" type="curve" smooth="yes"/>
      <point x="424" y="408"/>
      <point x="456" y="437"/>
      <point x="488" y="472" type="curve" smooth="yes"/>
      <point x="519" y="506"/>
      <point x="550" y="548"/>
      <point x="550" y="612" type="curve" smooth="yes"/>
      <point x="550" y="696"/>
      <point x="492" y="760"/>
      <point x="388" y="760" type="curve" smooth="yes"/>
      <point x="256" y="760"/>
      <point x="184" y="688"/>
      <point x="156" y="540" type="curve" smooth="yes"/>
      <point x="52" y="0" type="line"/>
      <point x="144" y="0" type="line"/>
      <point x="252" y="556" type="line" smooth="yes"/>
      <point x="268" y="640"/>
      <point x="308" y="680"/>
      <point x="380" y="680" type="curve" smooth="yes"/>
      <point x="440" y="680"/>
      <point x="464" y="652"/>
      <point x="464" y="608" type="curve" smooth="yes"/>
      <point x="464" y="564"/>
      <point x="434" y="530"/>
      <point x="404" y="496" type="curve" smooth="yes"/>
      <point x="371" y="459"/>
      <point x="336" y="420"/>
      <point x="336" y="360" type="curve" smooth="yes"/>
      <point x="336" y="304"/>
      <point x="367" y="273"/>
      <point x="392" y="248" type="curve" smooth="yes"/>
      <point x="404" y="236" type="line" smooth="yes"/>
      <point x="426" y="214"/>
      <point x="448" y="196"/>
      <point x="448" y="156" type="curve" smooth="yes"/>
      <point x="448" y="96"/>
      <point x="412" y="68"/>
      <point x="344" y="68" type="curve" smooth="yes"/>
      <point x="304" y="68"/>
      <point x="278" y="78"/>
      <point x="260" y="88" type="curve"/>
      <point x="252" y="88" type="line"/>
      <point x="236" y="8" type="line"/>
      <point x="268" y="-1"/>
      <point x="296" y="-8"/>
    </contour>
    <contour>
      <point x="60" y="464" type="line"/>
      <point x="168" y="464" type="line"/>
      <point x="184" y="544" type="line"/>
      <point x="76" y="544" type="line"/>
    </contour>
  </outline>
</glyph>
<glyph name="ae" format="2">
  <advance width="961"/>
  <unicode hex="00E6"/>
  <note>
ae
</note>
  <anchor x="428" y="0" name="bottom"/>
  <anchor x="534" y="544" name="top"/>
  <outline>
    <contour>
      <point x="668" y="-8" type="curve" smooth="yes"/>
      <point x="732" y="-8"/>
      <point x="792" y="4"/>
      <point x="824" y="20" type="curve"/>
      <point x="840" y="104" type="line"/>
      <point x="832" y="104" type="line"/>
      <point x="801" y="88"/>
      <point x="744" y="72"/>
      <point x="676" y="72" type="curve" smooth="yes"/>
      <point x="572" y="72"/>
      <point x="506" y="120"/>
      <point x="506" y="220" type="curve" smooth="yes"/>
      <point x="506" y="240" type="line" smooth="yes"/>
      <point x="506" y="352"/>
      <point x="580" y="476"/>
      <point x="708" y="476" type="curve" smooth="yes"/>
      <point x="796" y="476"/>
      <point x="830" y="432"/>
      <point x="830" y="360" type="curve" smooth="yes"/>
      <point x="830" y="350"/>
      <point x="828" y="332"/>
      <point x="824" y="316" type="curve"/>
      <point x="476" y="316" type="line"/>
      <point x="476" y="240" type="line"/>
      <point x="904" y="240" type="line"/>
      <point x="914" y="276"/>
      <point x="924" y="320"/>
      <point x="924" y="364" type="curve" smooth="yes"/>
      <point x="924" y="476"/>
      <point x="852" y="556"/>
      <point x="712" y="556" type="curve" smooth="yes"/>
      <point x="524" y="556"/>
      <point x="414" y="392"/>
      <point x="414" y="220" type="curve" smooth="yes"/>
      <point x="414" y="76"/>
      <point x="501" y="-8"/>
    </contour>
    <contour>
      <point x="252" y="-12" type="curve" smooth="yes"/>
      <point x="360" y="-12"/>
      <point x="420" y="16"/>
      <point x="496" y="68" type="curve"/>
      <point x="468" y="132" type="line"/>
      <point x="452" y="132" type="line"/>
      <point x="396" y="88"/>
      <point x="332" y="64"/>
      <point x="256" y="64" type="curve" smooth="yes"/>
      <point x="184" y="64"/>
      <point x="132" y="88"/>
      <point x="132" y="148" type="curve" smooth="yes"/>
      <point x="132" y="224"/>
      <point x="192" y="256"/>
      <point x="296" y="256" type="curve" smooth="yes"/>
      <point x="356" y="256"/>
      <point x="392" y="244"/>
      <point x="428" y="228" type="curve"/>
      <point x="452" y="228" type="line"/>
      <point x="452" y="308" type="line"/>
      <point x="428" y="308" type="line"/>
      <point x="411" y="314"/>
      <point x="364" y="332"/>
      <point x="292" y="332" type="curve" smooth="yes"/>
      <point x="156" y="332"/>
      <point x="40" y="276"/>
      <point x="40" y="144" type="curve" smooth="yes"/>
      <point x="40" y="44"/>
      <point x="116" y="-12"/>
    </contour>
    <contour>
      <point x="416" y="280" type="line"/>
      <point x="524" y="388" type="line"/>
      <point x="524" y="496"/>
      <point x="456" y="556"/>
      <point x="312" y="556" type="curve" smooth="yes"/>
      <point x="248" y="556"/>
      <point x="204" y="546"/>
      <point x="152" y="528" type="curve"/>
      <point x="136" y="444" type="line"/>
      <point x="148" y="444" type="line"/>
      <point x="184" y="460"/>
      <point x="236" y="476"/>
      <point x="296" y="476" type="curve" smooth="yes"/>
      <point x="412" y="476"/>
      <point x="450" y="433"/>
      <point x="427" y="328" type="curve"/>
    </contour>
  </outline>
</glyph>
<glyph name="idotless" format="2">
  <advance width="284"/>
  <unicode hex="0131"/>
  <note>
dotlessi
</note>
  <anchor x="89" y="0" name="bottom"/>
  <anchor x="136" y="0" name="ogonek"/>
  <anchor x="197" y="544" name="top"/>
  <outline>
    <contour>
      <point x="44" y="0" type="line"/>
      <point x="136" y="0" type="line"/>
      <point x="242" y="544" type="line"/>
      <point x="144" y="544" type="line"/>
      <point x="140" y="536" type="line"/>
      <point x="141" y="500"/>
      <point x="124" y="412"/>
      <point x="116" y="372" type="curve" smooth="yes"/>
    </contour>
  </outline>
</glyph>
<glyph name="kgreenlandic" format="2">
  <advance width="540"/>
  <unicode hex="0138"/>
  <note>
k
</note>
  <anchor x="217" y="0" name="bottom"/>
  <anchor x="365" y="760" name="top"/>
  <outline>
    <contour>
      <point x="474" y="544" type="line"/>
      <point x="176" y="284" type="line"/>
      <point x="370" y="0" type="line"/>
      <point x="478" y="0" type="line"/>
      <point x="478" y="12" type="line"/>
      <point x="456" y="36"/>
      <point x="429" y="79"/>
      <point x="408" y="108" type="curve" smooth="yes"/>
      <point x="264" y="308" type="line"/>
      <point x="260" y="259" type="line"/>
      <point x="492" y="460" type="line" smooth="yes"/>
      <point x="526" y="488"/>
      <point x="561" y="516"/>
      <point x="584" y="532" type="curve"/>
      <point x="584" y="544" type="line"/>
    </contour>
    <contour>
      <point x="136" y="0" type="line"/>
      <point x="284" y="760" type="line"/>
      <point x="186" y="760" type="line"/>
      <point x="182" y="752" type="line"/>
      <point x="183" y="716"/>
      <point x="166" y="628"/>
      <point x="158" y="588" type="curve" smooth="yes"/>
      <point x="44" y="0" type="line"/>
    </contour>
  </outline>
</glyph>
<glyph name="OE" format="2">
  <advance width="1060"/>
  <unicode hex="0152"/>
  <note>
OE
</note>
  <anchor x="472" y="0" name="bottom"/>
  <anchor x="625" y="720" name="top"/>
  <outline>
    <contour>
      <point x="364" y="-12" type="curve" smooth="yes"/>
      <point x="628" y="-12"/>
      <point x="756" y="228"/>
      <point x="756" y="436" type="curve" smooth="yes"/>
      <point x="756" y="616"/>
      <point x="648" y="732"/>
      <point x="460" y="732" type="curve" smooth="yes"/>
      <point x="200" y="732"/>
      <point x="68" y="492"/>
      <point x="68" y="284" type="curve" smooth="yes"/>
      <point x="68" y="104"/>
      <point x="176" y="-12"/>
    </contour>
    <contour>
      <point x="368" y="76" type="curve" smooth="yes"/>
      <point x="248" y="76"/>
      <point x="168" y="144"/>
      <point x="168" y="284" type="curve" smooth="yes"/>
      <point x="168" y="452"/>
      <point x="260" y="644"/>
      <point x="456" y="644" type="curve" smooth="yes"/>
      <point x="576" y="644"/>
      <point x="656" y="576"/>
      <point x="656" y="436" type="curve" smooth="yes"/>
      <point x="656" y="268"/>
      <point x="564" y="76"/>
    </contour>
    <contour>
      <point x="452" y="0" type="line"/>
      <point x="954" y="0" type="line"/>
      <point x="970" y="84" type="line"/>
      <point x="468" y="84" type="line"/>
    </contour>
    <contour>
      <point x="664" y="336" type="line"/>
      <point x="954" y="336" type="line"/>
      <point x="970" y="420" type="line"/>
      <point x="680" y="420" type="line"/>
    </contour>
    <contour>
      <point x="584" y="636" type="line"/>
      <point x="1066" y="636" type="line"/>
      <point x="1082" y="720" type="line"/>
      <point x="520" y="720" type="line"/>
    </contour>
  </outline>
</glyph>
<glyph name="Tbar" format="2">
  <advance width="584"/>
  <unicode hex="0166"/>
  <note>
Tbar
</note>
  <anchor x="242" y="0" name="bottom"/>
  <anchor x="309" y="360" name="center"/>
  <anchor x="379" y="720" name="top"/>
  <outline>
    <contour>
      <point x="101" y="324" type="line"/>
      <point x="509" y="324" type="line"/>
      <point x="524" y="404" type="line"/>
      <point x="116" y="404" type="line"/>
    </contour>
    <component base="T"/>
  </outline>
</glyph>
<glyph name="longs" format="2">
  <advance width="308"/>
  <unicode hex="017F"/>
  <note>
longs
</note>
  <outline>
    <contour>
      <point x="52" y="0" type="line"/>
      <point x="144" y="0" type="line"/>
      <point x="252" y="556" type="line" smooth="yes"/>
      <point x="268" y="640"/>
      <point x="308" y="680"/>
      <point x="380" y="680" type="curve" smooth="yes"/>
      <point x="412" y="680"/>
      <point x="428" y="676"/>
      <point x="448" y="668" type="curve"/>
      <point x="456" y="668" type="line"/>
      <point x="472" y="748" type="line"/>
      <point x="452" y="756"/>
      <point x="420" y="760"/>
      <point x="388" y="760" type="curve" smooth="yes"/>
      <point x="256" y="760"/>
      <point x="184" y="688"/>
      <point x="156" y="540" type="curve"/>
    </contour>
    <contour>
      <point x="60" y="464" type="line"/>
      <point x="168" y="464" type="line"/>
      <point x="184" y="544" type="line"/>
      <point x="76" y="544" type="line"/>
    </contour>
  </outline>
</glyph>
<glyph name="schwa" format="2">
  <advance width="600"/>
  <unicode hex="0259"/>
  <outline>
    <contour>
      <point x="304" y="556" type="curve" smooth="yes"/>
      <point x="240" y="556"/>
      <point x="180" y="544"/>
      <point x="148" y="528" type="curve"/>
      <point x="132" y="444" type="line"/>
      <point x="140" y="444" type="line"/>
      <point x="171" y="460"/>
      <point x="228" y="476"/>
      <point x="296" y="476" type="curve" smooth="yes"/>
      <point x="400" y="476"/>
      <point x="466" y="428"/>
      <point x="466" y="328" type="curve" smooth="yes"/>
      <point x="466" y="308" type="line" smooth="yes"/>
      <point x="466" y="196"/>
      <point x="392" y="72"/>
      <point x="264" y="72" type="curve" smooth="yes"/>
      <point x="176" y="72"/>
      <point x="142" y="116"/>
      <point x="142" y="188" type="curve" smooth="yes"/>
      <point x="142" y="198"/>
      <point x="144" y="216"/>
      <point x="148" y="232" type="curve"/>
      <point x="496" y="232" type="line"/>
      <point x="496" y="308" type="line"/>
      <point x="68" y="308" type="line"/>
      <point x="58" y="272"/>
      <point x="48" y="228"/>
      <point x="48" y="184" type="curve" smooth="yes"/>
      <point x="48" y="72"/>
      <point x="120" y="-8"/>
      <point x="260" y="-8" type="curve" smooth="yes"/>
      <point x="448" y="-8"/>
      <point x="560" y="156"/>
      <point x="560" y="328" type="curve" smooth="yes"/>
      <point x="560" y="472"/>
      <point x="472" y="556"/>
    </contour>
  </outline>
</glyph>
<glyph name="ringhalfright" format="2">
  <advance width="200"/>
  <unicode hex="02BE"/>
  <note>
uni02BE
</note>
  <outline>
    <contour>
      <point x="79" y="504" type="curve"/>
      <point x="67" y="444" type="line"/>
      <point x="147" y="444"/>
      <point x="241" y="479"/>
      <point x="241" y="605" type="curve" smooth="yes"/>
      <point x="241" y="680"/>
      <point x="187" y="720"/>
      <point x="121" y="720" type="curve"/>
      <point x="109" y="660" type="line"/>
      <point x="149" y="656"/>
      <point x="176" y="641"/>
      <point x="176" y="603" type="curve" smooth="yes"/>
      <point x="176" y="533"/>
      <point x="131" y="508"/>
    </contour>
  </outline>
</glyph>
<glyph name="ringhalfleft" format="2">
  <advance width="200"/>
  <unicode hex="02BF"/>
  <note>
uni02BF
</note>
  <outline>
    <contour>
      <point x="203" y="444" type="curve"/>
      <point x="215" y="504" type="line"/>
      <point x="174" y="507"/>
      <point x="148" y="523"/>
      <point x="148" y="562" type="curve" smooth="yes"/>
      <point x="148" y="630"/>
      <point x="194" y="656"/>
      <point x="245" y="660" type="curve"/>
      <point x="257" y="720" type="line"/>
      <point x="177" y="720"/>
      <point x="82" y="685"/>
      <point x="82" y="559" type="curve" smooth="yes"/>
      <point x="82" y="484"/>
      <point x="137" y="444"/>
    </contour>
  </outline>
</glyph>
<glyph name="verticallinemod" format="2">
  <advance width="180"/>
  <unicode hex="02C8"/>
  <outline>
    <contour>
      <point x="94" y="484" type="line"/>
      <point x="170" y="484" type="line"/>
      <point x="228" y="760" type="line"/>
      <point x="144" y="760" type="line"/>
    </contour>
  </outline>
</glyph>
<glyph name="acutecomb" format="2">
  <unicode hex="0301"/>
  <note>
acute
</note>
  <anchor x="407" y="544" name="_top"/>
  <anchor x="453" y="760" name="top"/>
  <outline>
    <contour>
      <point x="316" y="604" type="line"/>
      <point x="396" y="604" type="line"/>
      <point x="556" y="756" type="line"/>
      <point x="556" y="760" type="line"/>
      <point x="436" y="760" type="line"/>
      <point x="316" y="608" type="line"/>
    </contour>
  </outline>
</glyph>
<glyph name="circumflexcomb" format="2">
  <unicode hex="0302"/>
  <note>
circumflex
</note>
  <anchor x="359" y="544" name="_top"/>
  <anchor x="401" y="760" name="top"/>
  <outline>
    <contour>
      <point x="201" y="604" type="line"/>
      <point x="285" y="604" type="line"/>
      <point x="391" y="700" type="line"/>
      <point x="461" y="604" type="line"/>
      <point x="533" y="604" type="line"/>
      <point x="533" y="608" type="line"/>
      <point x="452" y="760" type="line"/>
      <point x="344" y="760" type="line"/>
      <point x="201" y="608" type="line"/>
    </contour>
  </outline>
</glyph>
<glyph name="macroncomb" format="2">
  <unicode hex="0304"/>
  <note>
macron
</note>
  <anchor x="361" y="544" name="_top"/>
  <anchor x="398" y="720" name="top"/>
  <outline>
    <contour>
      <point x="236" y="720" type="line"/>
      <point x="220" y="644" type="line"/>
      <point x="544" y="644" type="line"/>
      <point x="560" y="720" type="line"/>
    </contour>
  </outline>
</glyph>
<glyph name="brevecomb" format="2">
  <unicode hex="0306"/>
  <note>
breve
</note>
  <anchor x="369" y="544" name="_top"/>
  <anchor x="415" y="760" name="top"/>
  <outline>
    <contour>
      <point x="384" y="620" type="curve" smooth="yes"/>
      <point x="476" y="620"/>
      <point x="528" y="680"/>
      <point x="540" y="760" type="curve"/>
      <point x="476" y="760" type="line"/>
      <point x="464" y="712"/>
      <point x="444" y="680"/>
      <point x="388" y="680" type="curve" smooth="yes"/>
      <point x="336" y="680"/>
      <point x="324" y="712"/>
      <point x="328" y="760" type="curve"/>
      <point x="264" y="760" type="line"/>
      <point x="248" y="684"/>
      <point x="296" y="620"/>
    </contour>
  </outline>
</glyph>
<glyph name="dotaccentcomb" format="2">
  <unicode hex="0307"/>
  <note>
dotaccent
</note>
  <anchor x="358" y="544" name="_top"/>
  <anchor x="401" y="744" name="top"/>
  <outline>
    <contour>
      <point x="380" y="624" type="curve" smooth="yes"/>
      <point x="414" y="624"/>
      <point x="448" y="652"/>
      <point x="448" y="696" type="curve" smooth="yes"/>
      <point x="448" y="724"/>
      <point x="432" y="744"/>
      <point x="396" y="744" type="curve" smooth="yes"/>
      <point x="362" y="744"/>
      <point x="328" y="716"/>
      <point x="328" y="672" type="curve" smooth="yes"/>
      <point x="328" y="644"/>
      <point x="344" y="624"/>
    </contour>
  </outline>
</glyph>
<glyph name="dieresiscomb" format="2">
  <unicode hex="0308"/>
  <note>
dieresis
</note>
  <anchor x="360" y="544" name="_top"/>
  <anchor x="403" y="744" name="top"/>
  <outline>
    <contour>
      <point x="480" y="624" type="curve" smooth="yes"/>
      <point x="514" y="624"/>
      <point x="548" y="652"/>
      <point x="548" y="696" type="curve" smooth="yes"/>
      <point x="548" y="724"/>
      <point x="532" y="744"/>
      <point x="496" y="744" type="curve" smooth="yes"/>
      <point x="462" y="744"/>
      <point x="428" y="716"/>
      <point x="428" y="672" type="curve" smooth="yes"/>
      <point x="428" y="644"/>
      <point x="444" y="624"/>
    </contour>
    <contour>
      <point x="284" y="624" type="curve" smooth="yes"/>
      <point x="318" y="624"/>
      <point x="352" y="652"/>
      <point x="352" y="696" type="curve" smooth="yes"/>
      <point x="352" y="724"/>
      <point x="336" y="744"/>
      <point x="300" y="744" type="curve" smooth="yes"/>
      <point x="266" y="744"/>
      <point x="232" y="716"/>
      <point x="232" y="672" type="curve" smooth="yes"/>
      <point x="232" y="644"/>
      <point x="248" y="624"/>
    </contour>
  </outline>
</glyph>
<glyph name="hookabovecomb" format="2">
  <unicode hex="0309"/>
  <anchor x="345" y="544" name="_top"/>
  <anchor x="397" y="815" name="top"/>
  <outline>
    <contour>
      <point x="326" y="637" type="curve"/>
      <point x="372" y="623" type="line"/>
      <point x="403" y="669"/>
      <point x="464" y="686"/>
      <point x="469" y="748" type="curve" smooth="yes"/>
      <point x="472" y="785"/>
      <point x="445" y="815"/>
      <point x="400" y="815" type="curve" smooth="yes"/>
      <point x="349" y="815"/>
      <point x="313" y="785"/>
      <point x="288" y="749" type="curve"/>
      <point x="318" y="728" type="line"/>
      <point x="333" y="746"/>
      <point x="352" y="765"/>
      <point x="376" y="765" type="curve" smooth="yes"/>
      <point x="392" y="765"/>
      <point x="404" y="752"/>
      <point x="403" y="734" type="curve" smooth="yes"/>
      <point x="401" y="694"/>
      <point x="347" y="680"/>
    </contour>
  </outline>
</glyph>
<glyph name="caroncomb" format="2">
  <unicode hex="030C"/>
  <note>
caron
</note>
  <anchor x="359" y="544" name="_top"/>
  <anchor x="401" y="760" name="top"/>
  <outline>
    <contour>
      <point x="315" y="604" type="line"/>
      <point x="423" y="604" type="line"/>
      <point x="566" y="756" type="line"/>
      <point x="566" y="760" type="line"/>
      <point x="482" y="760" type="line"/>
      <point x="375" y="663" type="line"/>
      <point x="306" y="760" type="line"/>
      <point x="234" y="760" type="line"/>
      <point x="234" y="756" type="line"/>
    </contour>
  </outline>
</glyph>
<glyph name="dblgravecomb" format="2">
  <unicode hex="030F"/>
  <anchor x="359" y="544" name="_top"/>
  <anchor x="401" y="760" name="top"/>
  <outline>
    <contour>
      <point x="258" y="604" type="line"/>
      <point x="330" y="604" type="line"/>
      <point x="330" y="608" type="line"/>
      <point x="270" y="760" type="line"/>
      <point x="158" y="760" type="line"/>
      <point x="158" y="756" type="line"/>
    </contour>
    <contour>
      <point x="440" y="604" type="line"/>
      <point x="512" y="604" type="line"/>
      <point x="512" y="608" type="line"/>
      <point x="452" y="760" type="line"/>
      <point x="340" y="760" type="line"/>
      <point x="340" y="756" type="line"/>
    </contour>
  </outline>
</glyph>
<glyph name="horncomb" format="2">
  <unicode hex="031B"/>
  <anchor x="288" y="544" name="_topright"/>
  <outline>
    <contour>
      <point x="280" y="476" type="line"/>
      <point x="392" y="476"/>
      <point x="420" y="536"/>
      <point x="431" y="616" type="curve"/>
      <point x="371" y="616" type="line"/>
      <point x="364" y="568"/>
      <point x="340" y="544"/>
      <point x="288" y="544" type="curve"/>
    </contour>
  </outline>
</glyph>
<glyph name="dotbelowcomb" format="2">
  <unicode hex="0323"/>
  <note>
dot.below
</note>
  <anchor x="253" y="0" name="_bottom"/>
  <anchor x="213" y="-204" name="bottom"/>
  <outline>
    <contour>
      <point x="220" y="-204" type="curve" smooth="yes"/>
      <point x="254" y="-204"/>
      <point x="288" y="-176"/>
      <point x="288" y="-132" type="curve" smooth="yes"/>
      <point x="288" y="-104"/>
      <point x="272" y="-84"/>
      <point x="236" y="-84" type="curve" smooth="yes"/>
      <point x="202" y="-84"/>
      <point x="168" y="-112"/>
      <point x="168" y="-156" type="curve" smooth="yes"/>
      <point x="168" y="-184"/>
      <point x="184" y="-204"/>
    </contour>
  </outline>
</glyph>
<glyph name="cedillacomb" format="2">
  <unicode hex="0327"/>
  <note>
cedilla
</note>
  <anchor x="253" y="0" name="_bottom"/>
  <anchor x="205" y="-248" name="bottom"/>
  <outline>
    <contour>
      <point x="140" y="-168" type="curve"/>
      <point x="136" y="-168" type="line"/>
      <point x="124" y="-232" type="line"/>
      <point x="148" y="-242"/>
      <point x="176" y="-248"/>
      <point x="216" y="-248" type="curve" smooth="yes"/>
      <point x="292" y="-248"/>
      <point x="364" y="-219"/>
      <point x="364" y="-132" type="curve" smooth="yes"/>
      <point x="364" y="-88"/>
      <point x="332" y="-47"/>
      <point x="274" y="-40" type="curve"/>
      <point x="288" y="24" type="line"/>
      <point x="228" y="24" type="line"/>
      <point x="200" y="-92" type="line"/>
      <point x="260" y="-92"/>
      <point x="292" y="-108"/>
      <point x="292" y="-136" type="curve" smooth="yes"/>
      <point x="292" y="-168"/>
      <point x="269" y="-184"/>
      <point x="216" y="-184" type="curve" smooth="yes"/>
      <point x="184" y="-184"/>
      <point x="164" y="-180"/>
    </contour>
  </outline>
</glyph>
<glyph name="ogonekcomb" format="2">
  <unicode hex="0328"/>
  <note>
ogonek
</note>
  <anchor x="294" y="0" name="_ogonek"/>
  <outline>
    <contour>
      <point x="265" y="-236" type="curve"/>
      <point x="277" y="-172" type="line"/>
      <point x="275" y="-172" type="line"/>
      <point x="259" y="-180"/>
      <point x="244" y="-184"/>
      <point x="230" y="-184" type="curve" smooth="yes"/>
      <point x="203" y="-184"/>
      <point x="193" y="-171"/>
      <point x="193" y="-152" type="curve" smooth="yes"/>
      <point x="193" y="-115"/>
      <point x="224" y="-69"/>
      <point x="294" y="0" type="curve"/>
      <point x="231" y="0" type="line"/>
      <point x="182" y="-47"/>
      <point x="119" y="-97"/>
      <point x="119" y="-169" type="curve" smooth="yes"/>
      <point x="119" y="-213"/>
      <point x="147" y="-248"/>
      <point x="208" y="-248" type="curve" smooth="yes"/>
      <point x="230" y="-248"/>
      <point x="249" y="-244"/>
    </contour>
  </outline>
</glyph>
<glyph name="macronbelowcomb" format="2">
  <unicode hex="0331"/>
  <note>
macron.below
</note>
  <anchor x="255" y="0" name="_bottom"/>
  <anchor x="221" y="-176" name="bottom"/>
  <outline>
    <contour>
      <point x="86" y="-104" type="line"/>
      <point x="70" y="-176" type="line"/>
      <point x="370" y="-176" type="line"/>
      <point x="386" y="-104" type="line"/>
    </contour>
  </outline>
</glyph>
<glyph name="slashshortcomb" format="2">
  <unicode hex="0337"/>
  <anchor x="182" y="390" name="_center"/>
  <outline>
    <contour>
      <point x="12" y="244" type="line"/>
      <point x="344" y="456" type="line"/>
      <point x="362" y="544" type="line"/>
      <point x="354" y="544" type="line"/>
      <point x="22" y="332" type="line"/>
      <point x="4" y="244" type="line"/>
    </contour>
  </outline>
</glyph>
<glyph name="slashlongcomb" format="2">
  <unicode hex="0338"/>
  <anchor x="306" y="274" name="_center"/>
  <outline>
    <contour>
      <point x="18" y="-88" type="line"/>
      <point x="102" y="-88" type="line"/>
      <point x="586" y="636" type="line"/>
      <point x="502" y="636" type="line"/>
    </contour>
  </outline>
</glyph>
<glyph name="Delta" format="2">
  <advance width="630"/>
  <unicode hex="0394"/>
  <unicode hex="03B4"/>
  <note>
uni0394
</note>
  <outline>
    <contour>
      <point x="352" y="720" type="line"/>
      <point x="-24" y="0" type="line"/>
      <point x="556" y="0" type="line"/>
      <point x="460" y="720" type="line"/>
    </contour>
    <contour>
      <point x="109" y="80" type="line"/>
      <point x="388" y="620" type="line"/>
      <point x="458" y="80" type="line"/>
    </contour>
  </outline>
</glyph>
<glyph name="Omega" format="2">
  <advance width="794"/>
  <unicode hex="03A9"/>
  <unicode hex="03C9"/>
  <note>
uni03A9
</note>
  <outline>
    <contour>
      <point x="16" y="80" type="line"/>
      <point x="0" y="0" type="line"/>
      <point x="284" y="0" type="line"/>
      <point x="296" y="72" type="line"/>
      <point x="217" y="111"/>
      <point x="172" y="198"/>
      <point x="172" y="304" type="curve" smooth="yes"/>
      <point x="172" y="491"/>
      <point x="291" y="652"/>
      <point x="476" y="652" type="curve" smooth="yes"/>
      <point x="609" y="652"/>
      <point x="672" y="567"/>
      <point x="672" y="452" type="curve" smooth="yes"/>
      <point x="672" y="282"/>
      <point x="558" y="126"/>
      <point x="424" y="72" type="curve"/>
      <point x="412" y="0" type="line"/>
      <point x="696" y="0" type="line"/>
      <point x="712" y="80" type="line"/>
      <point x="564" y="80" type="line"/>
      <point x="641" y="128"/>
      <point x="768" y="266"/>
      <point x="768" y="456" type="curve" smooth="yes"/>
      <point x="768" y="614"/>
      <point x="670" y="732"/>
      <point x="484" y="732" type="curve" smooth="yes"/>
      <point x="245" y="732"/>
      <point x="76" y="542"/>
      <point x="76" y="308" type="curve" smooth="yes"/>
      <point x="76" y="199"/>
      <point x="121" y="113"/>
      <point x="168" y="80" type="curve"/>
    </contour>
  </outline>
</glyph>
<glyph name="pi" format="2">
  <advance width="638"/>
  <unicode hex="03C0"/>
  <note>
pi
</note>
  <outline>
    <contour>
      <point x="504" y="468" type="line"/>
      <point x="524" y="544" type="line"/>
      <point x="211" y="544" type="line"/>
      <point x="200" y="468" type="line"/>
    </contour>
    <contour>
      <point x="48" y="0" type="line"/>
      <point x="140" y="0" type="line"/>
      <point x="246" y="544" type="line"/>
      <point x="148" y="544" type="line"/>
      <point x="144" y="536" type="line"/>
      <point x="145" y="500"/>
      <point x="128" y="412"/>
      <point x="120" y="372" type="curve" smooth="yes"/>
    </contour>
    <contour>
      <point x="472" y="372" type="curve" smooth="yes"/>
      <point x="400" y="0" type="line"/>
      <point x="492" y="0" type="line"/>
      <point x="598" y="544" type="line"/>
      <point x="500" y="544" type="line"/>
      <point x="496" y="536" type="line"/>
      <point x="497" y="500"/>
      <point x="480" y="412"/>
    </contour>
  </outline>
</glyph>
<glyph name="number-ar" format="2">
  <advance width="1245"/>
  <unicode hex="0600"/>
  <outline>
    <contour>
      <point x="22" y="0" type="line"/>
      <point x="1177" y="0" type="line"/>
      <point x="1205" y="77" type="line"/>
      <point x="1205" y="85" type="line"/>
      <point x="981" y="85" type="line" smooth="yes"/>
      <point x="907" y="85"/>
      <point x="845" y="128"/>
      <point x="845" y="194" type="curve" smooth="yes"/>
      <point x="845" y="274"/>
      <point x="902" y="338"/>
      <point x="1089" y="468" type="curve"/>
      <point x="1057" y="544" type="line"/>
      <point x="1049" y="544" type="line"/>
      <point x="857" y="415"/>
      <point x="757" y="307"/>
      <point x="757" y="196" type="curve" smooth="yes"/>
      <point x="757" y="111"/>
      <point x="805" y="76"/>
      <point x="856" y="50" type="curve"/>
      <point x="889" y="85" type="line"/>
      <point x="22" y="85" type="line"/>
    </contour>
  </outline>
</glyph>
<glyph name="year-ar" format="2">
  <advance width="1956"/>
  <unicode hex="0601"/>
  <outline>
    <contour>
      <point x="622" y="0" type="curve"/>
      <point x="1617" y="0" type="line"/>
      <point x="1704" y="0"/>
      <point x="1745" y="-10"/>
      <point x="1804" y="-59" type="curve"/>
      <point x="1860" y="11" type="line"/>
      <point x="1802" y="64"/>
      <point x="1747" y="85"/>
      <point x="1649" y="85" type="curve"/>
      <point x="817" y="85" type="line"/>
      <point x="855" y="47" type="line"/>
      <point x="855" y="394" type="line"/>
      <point x="847" y="394" type="line"/>
      <point x="763" y="382" type="line"/>
      <point x="763" y="160" type="line" smooth="yes"/>
      <point x="763" y="118"/>
      <point x="770" y="83"/>
      <point x="775" y="64" type="curve"/>
      <point x="809" y="85" type="line"/>
      <point x="642" y="85" type="line" smooth="yes"/>
      <point x="536" y="85"/>
      <point x="475" y="137"/>
      <point x="445" y="330" type="curve"/>
      <point x="371" y="390" type="line"/>
      <point x="278" y="370"/>
      <point x="138" y="318"/>
      <point x="40" y="264" type="curve"/>
      <point x="59" y="182" type="line"/>
      <point x="67" y="182" type="line"/>
      <point x="176" y="240"/>
      <point x="331" y="296"/>
      <point x="389" y="302" type="curve"/>
      <point x="376" y="335" type="line"/>
      <point x="387" y="136"/>
      <point x="452" y="0"/>
    </contour>
  </outline>
</glyph>
<glyph name="perthousand-ar" format="2">
  <advance width="628"/>
  <unicode hex="0609"/>
  <outline>
    <contour>
      <point x="20" y="12" type="line"/>
      <point x="20" y="0" type="line"/>
      <point x="113" y="0" type="line"/>
      <point x="511" y="708" type="line"/>
      <point x="511" y="720" type="line"/>
      <point x="418" y="720" type="line"/>
    </contour>
    <component base="zero-ar" xOffset="-65" yOffset="219"/>
    <component base="zero-ar" xOffset="376" yOffset="-192"/>
    <component base="zero-ar" xOffset="202" yOffset="-193"/>
  </outline>
</glyph>
<glyph name="dateseparator-ar" format="2">
  <advance width="239"/>
  <unicode hex="060D"/>
  <outline>
    <contour>
      <point x="130" y="0" type="line"/>
      <point x="130" y="48" type="line" smooth="yes"/>
      <point x="130" y="134"/>
      <point x="128" y="292"/>
      <point x="160" y="396" type="curve" smooth="yes"/>
      <point x="167" y="419"/>
      <point x="184" y="476"/>
      <point x="195" y="498" type="curve"/>
      <point x="195" y="506" type="line"/>
      <point x="114" y="524" type="line"/>
      <point x="103" y="499"/>
      <point x="89" y="464"/>
      <point x="80" y="425" type="curve" smooth="yes"/>
      <point x="47" y="280"/>
      <point x="45" y="168"/>
      <point x="45" y="48" type="curve" smooth="yes"/>
      <point x="45" y="0" type="line"/>
    </contour>
  </outline>
</glyph>
<glyph name="verseComma-ar" format="2">
  <advance width="1557"/>
  <unicode hex="060E"/>
  <outline>
    <contour>
      <point x="348" y="85" type="line" smooth="yes"/>
      <point x="225" y="85"/>
      <point x="152" y="138"/>
      <point x="152" y="226" type="curve" smooth="yes"/>
      <point x="152" y="303"/>
      <point x="202" y="386"/>
      <point x="317" y="428" type="curve"/>
      <point x="259" y="416" type="line"/>
      <point x="410" y="382"/>
      <point x="463" y="244"/>
      <point x="464" y="132" type="curve" smooth="yes"/>
      <point x="465" y="46" type="line"/>
      <point x="556" y="46" type="line"/>
      <point x="556" y="156" type="line" smooth="yes"/>
      <point x="556" y="329"/>
      <point x="429" y="476"/>
      <point x="296" y="476" type="curve" smooth="yes"/>
      <point x="183" y="476"/>
      <point x="60" y="364"/>
      <point x="60" y="224" type="curve" smooth="yes"/>
      <point x="60" y="71"/>
      <point x="184" y="0"/>
      <point x="328" y="0" type="curve" smooth="yes"/>
      <point x="1218" y="0" type="line" smooth="yes"/>
      <point x="1305" y="0"/>
      <point x="1346" y="-10"/>
      <point x="1405" y="-59" type="curve"/>
      <point x="1461" y="11" type="line"/>
      <point x="1403" y="64"/>
      <point x="1348" y="85"/>
      <point x="1250" y="85" type="curve" smooth="yes"/>
    </contour>
  </outline>
</glyph>
<glyph name="dal-ar" format="2">
  <advance width="752"/>
  <unicode hex="062F"/>
  <note>
uni062F
</note>
  <anchor x="480" y="0" name="*entry"/>
  <anchor x="346" y="0" name="bottom"/>
  <anchor x="336" y="0" name="ring"/>
  <anchor x="384" y="436" name="top"/>
  <outline>
    <contour>
      <point x="44" y="8" type="line"/>
      <point x="44" y="0" type="line"/>
      <point x="490" y="0" type="line" smooth="yes"/>
      <point x="628" y="0"/>
      <point x="692" y="74"/>
      <point x="692" y="177" type="curve" smooth="yes"/>
      <point x="692" y="272"/>
      <point x="629" y="358"/>
      <point x="580" y="406" type="curve"/>
      <point x="568" y="406" type="line"/>
      <point x="528" y="395"/>
      <point x="468" y="394"/>
      <point x="416" y="394" type="curve" smooth="yes"/>
      <point x="384" y="394" type="line" smooth="yes"/>
      <point x="316" y="394"/>
      <point x="234" y="401"/>
      <point x="172" y="422" type="curve"/>
      <point x="164" y="422" type="line"/>
      <point x="144" y="346" type="line"/>
      <point x="221" y="322"/>
      <point x="299" y="314"/>
      <point x="380" y="314" type="curve" smooth="yes"/>
      <point x="416" y="314" type="line" smooth="yes"/>
      <point x="487" y="314"/>
      <point x="507" y="315"/>
      <point x="567" y="327" type="curve"/>
      <point x="518" y="342" type="line"/>
      <point x="571" y="291"/>
      <point x="600" y="222"/>
      <point x="600" y="171" type="curve" smooth="yes"/>
      <point x="600" y="106"/>
      <point x="561" y="85"/>
      <point x="511" y="85" type="curve" smooth="yes"/>
      <point x="72" y="85" type="line"/>
    </contour>
  </outline>
</glyph>
<glyph name="dammatan-ar" format="2">
  <unicode hex="064C"/>
  <note>
uni064C
</note>
  <anchor x="173" y="521" name="_top"/>
  <anchor x="171" y="800" name="top"/>
  <outline>
    <contour>
      <point x="165" y="652" type="line"/>
      <point x="158" y="660"/>
      <point x="149" y="675"/>
      <point x="149" y="699" type="curve" smooth="yes"/>
      <point x="149" y="759"/>
      <point x="201" y="808"/>
      <point x="252" y="808" type="curve" smooth="yes"/>
      <point x="296" y="808"/>
      <point x="327" y="777"/>
      <point x="327" y="740" type="curve" smooth="yes"/>
      <point x="327" y="664"/>
      <point x="250" y="623"/>
      <point x="187" y="623" type="curve" smooth="yes"/>
      <point x="147" y="623"/>
      <point x="124" y="632"/>
      <point x="99" y="652" type="curve"/>
      <point x="56" y="591" type="line"/>
      <point x="10" y="625" type="line"/>
      <point x="84" y="719" type="line"/>
      <point x="91" y="719" type="line"/>
      <point x="121" y="689"/>
      <point x="155" y="669"/>
      <point x="192" y="669" type="curve" smooth="yes"/>
      <point x="249" y="669"/>
      <point x="279" y="705"/>
      <point x="279" y="733" type="curve" smooth="yes"/>
      <point x="279" y="759"/>
      <point x="255" y="771"/>
      <point x="227" y="771" type="curve"/>
      <point x="251" y="775" type="line"/>
      <point x="213" y="761"/>
      <point x="199" y="732"/>
      <point x="199" y="702" type="curve" smooth="yes"/>
      <point x="199" y="677"/>
      <point x="208" y="665"/>
      <point x="221" y="654" type="curve"/>
    </contour>
  </outline>
</glyph>
<glyph name="fatha-ar" format="2">
  <unicode hex="064E"/>
  <note>
uni064E
</note>
  <anchor x="174" y="512" name="_top"/>
  <anchor x="164" y="700" name="top"/>
  <outline>
    <contour>
      <point x="42" y="615" type="line"/>
      <point x="50" y="615" type="line"/>
      <point x="308" y="699" type="line"/>
      <point x="308" y="755" type="line"/>
      <point x="300" y="755" type="line"/>
      <point x="42" y="671" type="line"/>
    </contour>
  </outline>
</glyph>
<glyph name="damma-ar" format="2">
  <unicode hex="064F"/>
  <note>
uni064F
</note>
  <anchor x="178" y="539" name="_top"/>
  <anchor x="186" y="828" name="top"/>
  <outline>
    <contour>
      <point x="151" y="652" type="line"/>
      <point x="144" y="660"/>
      <point x="135" y="675"/>
      <point x="135" y="699" type="curve" smooth="yes"/>
      <point x="135" y="759"/>
      <point x="187" y="808"/>
      <point x="238" y="808" type="curve" smooth="yes"/>
      <point x="282" y="808"/>
      <point x="313" y="777"/>
      <point x="313" y="740" type="curve" smooth="yes"/>
      <point x="313" y="664"/>
      <point x="236" y="623"/>
      <point x="173" y="623" type="curve" smooth="yes"/>
      <point x="120" y="623"/>
      <point x="87" y="640"/>
      <point x="40" y="688" type="curve"/>
      <point x="70" y="719" type="line"/>
      <point x="77" y="719" type="line"/>
      <point x="107" y="689"/>
      <point x="141" y="669"/>
      <point x="178" y="669" type="curve" smooth="yes"/>
      <point x="235" y="669"/>
      <point x="265" y="705"/>
      <point x="265" y="733" type="curve" smooth="yes"/>
      <point x="265" y="759"/>
      <point x="241" y="771"/>
      <point x="213" y="771" type="curve"/>
      <point x="237" y="775" type="line"/>
      <point x="199" y="761"/>
      <point x="185" y="732"/>
      <point x="185" y="702" type="curve" smooth="yes"/>
      <point x="185" y="677"/>
      <point x="194" y="665"/>
      <point x="207" y="654" type="curve"/>
    </contour>
  </outline>
</glyph>
<glyph name="shadda-ar" format="2">
  <unicode hex="0651"/>
  <note>
uni0651
</note>
  <anchor x="170" y="521" name="_top"/>
  <anchor x="170" y="783" name="top"/>
  <outline>
    <contour>
      <point x="109" y="608" type="curve" smooth="yes"/>
      <point x="139" y="608"/>
      <point x="168" y="618"/>
      <point x="185" y="662" type="curve"/>
      <point x="166" y="660" type="line"/>
      <point x="174" y="649"/>
      <point x="198" y="630"/>
      <point x="229" y="630" type="curve" smooth="yes"/>
      <point x="278" y="630"/>
      <point x="330" y="661"/>
      <point x="330" y="816" type="curve" smooth="yes"/>
      <point x="330" y="828" type="line"/>
      <point x="323" y="828" type="line"/>
      <point x="272" y="820" type="line"/>
      <point x="272" y="800" type="line" smooth="yes"/>
      <point x="272" y="729"/>
      <point x="257" y="686"/>
      <point x="251" y="672" type="curve"/>
      <point x="282" y="683" type="line"/>
      <point x="236" y="681"/>
      <point x="201" y="677"/>
      <point x="178" y="729" type="curve"/>
      <point x="191" y="683" type="line"/>
      <point x="196" y="704"/>
      <point x="200" y="732"/>
      <point x="200" y="769" type="curve" smooth="yes"/>
      <point x="200" y="781" type="line"/>
      <point x="193" y="781" type="line"/>
      <point x="142" y="773" type="line"/>
      <point x="142" y="753" type="line" smooth="yes"/>
      <point x="142" y="698"/>
      <point x="136" y="656"/>
      <point x="120" y="639" type="curve"/>
      <point x="145" y="653" type="line"/>
      <point x="111" y="648"/>
      <point x="78" y="656"/>
      <point x="78" y="751" type="curve" smooth="yes"/>
      <point x="78" y="788" type="line"/>
      <point x="71" y="788" type="line"/>
      <point x="20" y="780" type="line"/>
      <point x="20" y="738" type="line" smooth="yes"/>
      <point x="20" y="640"/>
      <point x="68" y="608"/>
    </contour>
  </outline>
</glyph>
<glyph name="noonghunnaabove-ar" format="2">
  <unicode hex="0658"/>
  <note>
uni0658
</note>
  <outline>
    <contour>
      <point x="101" y="662" type="curve"/>
      <point x="97" y="662" type="line"/>
      <point x="82" y="629" type="line"/>
      <point x="100" y="606"/>
      <point x="132" y="584"/>
      <point x="171" y="584" type="curve" smooth="yes"/>
      <point x="232" y="584"/>
      <point x="264" y="632"/>
      <point x="264" y="711" type="curve" smooth="yes"/>
      <point x="264" y="741"/>
      <point x="255" y="776"/>
      <point x="247" y="805" type="curve"/>
      <point x="242" y="805" type="line"/>
      <point x="198" y="800" type="line"/>
      <point x="209" y="760"/>
      <point x="215" y="734"/>
      <point x="215" y="700" type="curve" smooth="yes"/>
      <point x="215" y="664"/>
      <point x="208" y="638"/>
      <point x="186" y="610" type="curve"/>
      <point x="232" y="644" type="line"/>
      <point x="209" y="630"/>
      <point x="197" y="623"/>
      <point x="186" y="623" type="curve" smooth="yes"/>
      <point x="155" y="623"/>
      <point x="125" y="635"/>
    </contour>
  </outline>
</glyph>
<glyph name="two-ar" format="2">
  <advance width="588"/>
  <unicode hex="0662"/>
  <note>
uni0662
</note>
  <outline>
    <contour>
      <point x="100" y="748" type="line"/>
      <point x="100" y="0" type="line"/>
      <point x="192" y="0" type="line"/>
      <point x="192" y="526" type="line"/>
      <point x="168" y="530" type="line"/>
      <point x="204" y="457"/>
      <point x="259" y="417"/>
      <point x="341" y="417" type="curve" smooth="yes"/>
      <point x="444" y="417"/>
      <point x="548" y="479"/>
      <point x="548" y="732" type="curve" smooth="yes"/>
      <point x="548" y="760" type="line"/>
      <point x="536" y="760" type="line"/>
      <point x="456" y="743" type="line"/>
      <point x="456" y="704" type="line" smooth="yes"/>
      <point x="456" y="635"/>
      <point x="453" y="566"/>
      <point x="420" y="507" type="curve"/>
      <point x="393" y="498"/>
      <point x="370" y="497"/>
      <point x="350" y="497" type="curve" smooth="yes"/>
      <point x="242" y="497"/>
      <point x="192" y="580"/>
      <point x="192" y="668" type="curve" smooth="yes"/>
      <point x="192" y="687"/>
      <point x="193" y="721"/>
      <point x="200" y="752" type="curve"/>
      <point x="198" y="760" type="line"/>
    </contour>
  </outline>
</glyph>
<glyph name="three-ar" format="2">
  <advance width="726"/>
  <unicode hex="0663"/>
  <note>
uni0663
</note>
  <outline>
    <contour>
      <point x="448" y="732" type="curve" smooth="yes"/>
      <point x="448" y="760" type="line"/>
      <point x="436" y="760" type="line"/>
      <point x="356" y="743" type="line"/>
      <point x="356" y="704" type="line" smooth="yes"/>
      <point x="356" y="630"/>
      <point x="353" y="544"/>
      <point x="334" y="490" type="curve"/>
      <point x="367" y="537" type="line"/>
      <point x="338" y="499"/>
      <point x="319" y="502"/>
      <point x="293" y="502" type="curve" smooth="yes"/>
      <point x="205" y="502"/>
      <point x="192" y="594"/>
      <point x="192" y="642" type="curve" smooth="yes"/>
      <point x="192" y="680"/>
      <point x="194" y="725"/>
      <point x="200" y="752" type="curve"/>
      <point x="198" y="760" type="line"/>
      <point x="100" y="748" type="line"/>
      <point x="100" y="0" type="line"/>
      <point x="192" y="0" type="line"/>
      <point x="192" y="457" type="line"/>
      <point x="213" y="433"/>
      <point x="243" y="417"/>
      <point x="287" y="417" type="curve" smooth="yes"/>
      <point x="422" y="417"/>
      <point x="448" y="586"/>
    </contour>
    <contour>
      <point x="398" y="501" type="line"/>
      <point x="427" y="449"/>
      <point x="463" y="417"/>
      <point x="525" y="417" type="curve" smooth="yes"/>
      <point x="614" y="417"/>
      <point x="686" y="479"/>
      <point x="686" y="732" type="curve" smooth="yes"/>
      <point x="686" y="760" type="line"/>
      <point x="674" y="760" type="line"/>
      <point x="594" y="743" type="line"/>
      <point x="594" y="704" type="line" smooth="yes"/>
      <point x="594" y="630"/>
      <point x="590" y="544"/>
      <point x="571" y="490" type="curve"/>
      <point x="609" y="539" type="line"/>
      <point x="577" y="507"/>
      <point x="557" y="502"/>
      <point x="538" y="502" type="curve" smooth="yes"/>
      <point x="476" y="502"/>
      <point x="450" y="541"/>
      <point x="426" y="590" type="curve"/>
    </contour>
  </outline>
</glyph>
<glyph name="nine-ar" format="2">
  <advance width="594"/>
  <unicode hex="0669"/>
  <note>
uni0669
</note>
  <outline>
    <contour>
      <point x="432" y="321" type="line"/>
      <point x="361" y="290"/>
      <point x="316" y="278"/>
      <point x="258" y="278" type="curve" smooth="yes"/>
      <point x="166" y="278"/>
      <point x="50" y="330"/>
      <point x="50" y="481" type="curve" smooth="yes"/>
      <point x="50" y="600"/>
      <point x="150" y="765"/>
      <point x="310" y="765" type="curve" smooth="yes"/>
      <point x="393" y="765"/>
      <point x="494" y="680"/>
      <point x="494" y="488" type="curve" smooth="yes"/>
      <point x="494" y="0" type="line"/>
      <point x="403" y="0" type="line"/>
      <point x="403" y="410" type="line"/>
      <point x="403" y="510"/>
      <point x="397" y="660"/>
      <point x="257" y="714" type="curve"/>
      <point x="321" y="714" type="line"/>
      <point x="170" y="669"/>
      <point x="142" y="551"/>
      <point x="142" y="492" type="curve" smooth="yes"/>
      <point x="142" y="382"/>
      <point x="226" y="358"/>
      <point x="281" y="358" type="curve" smooth="yes"/>
      <point x="327" y="358"/>
      <point x="369" y="367"/>
      <point x="433" y="403" type="curve"/>
    </contour>
  </outline>
</glyph>
<glyph name="thousandseparator-ar" format="2">
  <advance width="276"/>
  <unicode hex="066C"/>
  <note>
uni066C
</note>
  <outline>
    <contour>
      <point x="58" y="552" type="line"/>
      <point x="104" y="534" type="line"/>
      <point x="147" y="559"/>
      <point x="182" y="609"/>
      <point x="182" y="657" type="curve" smooth="yes"/>
      <point x="182" y="709"/>
      <point x="152" y="741"/>
      <point x="111" y="741" type="curve" smooth="yes"/>
      <point x="73" y="741"/>
      <point x="49" y="715"/>
      <point x="49" y="682" type="curve" smooth="yes"/>
      <point x="49" y="650"/>
      <point x="72" y="629"/>
      <point x="108" y="628" type="curve"/>
      <point x="96" y="588"/>
      <point x="58" y="560"/>
      <point x="58" y="560" type="curve"/>
    </contour>
  </outline>
</glyph>
<glyph name="qafDotless-ar" format="2">
  <advance width="722"/>
  <unicode hex="066F"/>
  <note>
uni066F
</note>
  <anchor x="338" y="-260" name="bottom"/>
  <anchor x="402" y="476" name="top"/>
  <outline>
    <contour>
      <point x="338" y="-260" type="curve" smooth="yes"/>
      <point x="571" y="-260"/>
      <point x="662" y="-58"/>
      <point x="662" y="156" type="curve" smooth="yes"/>
      <point x="662" y="329"/>
      <point x="535" y="476"/>
      <point x="402" y="476" type="curve" smooth="yes"/>
      <point x="289" y="476"/>
      <point x="166" y="364"/>
      <point x="166" y="224" type="curve" smooth="yes"/>
      <point x="166" y="68"/>
      <point x="290" y="-5"/>
      <point x="439" y="-5" type="curve" smooth="yes"/>
      <point x="477" y="-5"/>
      <point x="529" y="-1"/>
      <point x="577" y="15" type="curve"/>
      <point x="585" y="100" type="line"/>
      <point x="541" y="84"/>
      <point x="498" y="80"/>
      <point x="459" y="80" type="curve" smooth="yes"/>
      <point x="331" y="80"/>
      <point x="258" y="135"/>
      <point x="258" y="236" type="curve" smooth="yes"/>
      <point x="258" y="313"/>
      <point x="308" y="390"/>
      <point x="423" y="418" type="curve"/>
      <point x="365" y="416" type="line"/>
      <point x="516" y="382"/>
      <point x="570" y="244"/>
      <point x="570" y="132" type="curve" smooth="yes"/>
      <point x="570" y="6"/>
      <point x="551" y="-102"/>
      <point x="472" y="-184" type="curve"/>
      <point x="518" y="-148" type="line"/>
      <point x="476" y="-170"/>
      <point x="439" y="-180"/>
      <point x="374" y="-180" type="curve" smooth="yes"/>
      <point x="290" y="-180"/>
      <point x="190" y="-152"/>
      <point x="100" y="-80" type="curve"/>
      <point x="92" y="-80" type="line"/>
      <point x="60" y="-152" type="line"/>
      <point x="60" y="-156"/>
      <point x="191" y="-260"/>
    </contour>
  </outline>
</glyph>
<glyph name="fullstop-ar" format="2">
  <advance width="552"/>
  <unicode hex="06D4"/>
  <note>
uni06D4
</note>
  <outline>
    <contour>
      <point x="572" y="85" type="line"/>
      <point x="524" y="85" type="line" smooth="yes"/>
      <point x="438" y="85"/>
      <point x="281" y="85"/>
      <point x="176" y="115" type="curve" smooth="yes"/>
      <point x="153" y="122"/>
      <point x="96" y="139"/>
      <point x="74" y="150" type="curve"/>
      <point x="66" y="150" type="line"/>
      <point x="48" y="69" type="line"/>
      <point x="73" y="58"/>
      <point x="108" y="44"/>
      <point x="147" y="35" type="curve" smooth="yes"/>
      <point x="292" y="1"/>
      <point x="404" y="0"/>
      <point x="524" y="0" type="curve" smooth="yes"/>
      <point x="552" y="0" type="line"/>
      <point x="572" y="20" type="line"/>
    </contour>
  </outline>
</glyph>
<glyph name="one-persian" format="2">
  <advance width="292"/>
  <unicode hex="06F1"/>
  <note>
uni06F1
</note>
  <outline>
    <contour>
      <point x="100" y="748" type="line"/>
      <point x="100" y="0" type="line"/>
      <point x="192" y="0" type="line"/>
      <point x="192" y="606" type="line" smooth="yes"/>
      <point x="192" y="646"/>
      <point x="192" y="716"/>
      <point x="200" y="752" type="curve"/>
      <point x="198" y="760" type="line"/>
    </contour>
  </outline>
</glyph>
<glyph name="four-persian" format="2">
  <advance width="609"/>
  <unicode hex="06F4"/>
  <note>
uni06F4
</note>
  <outline>
    <contour>
      <point x="565" y="446" type="line"/>
      <point x="565" y="458" type="line"/>
      <point x="497" y="458" type="line" smooth="yes"/>
      <point x="400" y="458"/>
      <point x="338" y="510"/>
      <point x="336" y="586" type="curve"/>
      <point x="329" y="547" type="line"/>
      <point x="345" y="623"/>
      <point x="409" y="682"/>
      <point x="503" y="682" type="curve" smooth="yes"/>
      <point x="553" y="682" type="line"/>
      <point x="569" y="750" type="line"/>
      <point x="569" y="762" type="line"/>
      <point x="517" y="762" type="line" smooth="yes"/>
      <point x="359" y="762"/>
      <point x="265" y="667"/>
      <point x="265" y="570" type="curve" smooth="yes"/>
      <point x="265" y="484"/>
      <point x="333" y="408"/>
      <point x="467" y="408" type="curve"/>
      <point x="403" y="429" type="line"/>
      <point x="319" y="439"/>
      <point x="239" y="472"/>
      <point x="174" y="581" type="curve"/>
      <point x="192" y="515" type="line"/>
      <point x="192" y="678"/>
      <point x="193" y="719"/>
      <point x="200" y="752" type="curve"/>
      <point x="198" y="760" type="line"/>
      <point x="100" y="750" type="line"/>
      <point x="100" y="0" type="line"/>
      <point x="192" y="0" type="line"/>
      <point x="192" y="483" type="line"/>
      <point x="175" y="466" type="line"/>
      <point x="231" y="394"/>
      <point x="323" y="363"/>
      <point x="409" y="363" type="curve" smooth="yes"/>
      <point x="480" y="363"/>
      <point x="545" y="377"/>
      <point x="545" y="377" type="curve"/>
    </contour>
  </outline>
</glyph>
<glyph name="six-persian" format="2">
  <advance width="402"/>
  <unicode hex="06F6"/>
  <note>
uni06F6
</note>
  <outline>
    <contour>
      <point x="262" y="435" type="line"/>
      <point x="76" y="21" type="line"/>
      <point x="76" y="14" type="line"/>
      <point x="185" y="-7" type="line"/>
      <point x="367" y="446" type="line"/>
      <point x="367" y="458" type="line"/>
      <point x="299" y="458" type="line" smooth="yes"/>
      <point x="202" y="458"/>
      <point x="140" y="510"/>
      <point x="138" y="586" type="curve"/>
      <point x="131" y="547" type="line"/>
      <point x="147" y="623"/>
      <point x="211" y="682"/>
      <point x="305" y="682" type="curve" smooth="yes"/>
      <point x="355" y="682" type="line"/>
      <point x="371" y="750" type="line"/>
      <point x="371" y="762" type="line"/>
      <point x="319" y="762" type="line" smooth="yes"/>
      <point x="161" y="762"/>
      <point x="67" y="667"/>
      <point x="67" y="556" type="curve" smooth="yes"/>
      <point x="67" y="468"/>
      <point x="135" y="378"/>
      <point x="269" y="378" type="curve"/>
    </contour>
  </outline>
</glyph>
<glyph name="rehLoop-ar" format="2">
  <advance width="704"/>
  <unicode hex="08AA"/>
  <anchor x="550" y="0" name="*entry"/>
  <anchor x="479" y="-34" name="bar"/>
  <anchor x="259" y="-260" name="bottom"/>
  <anchor x="259" y="-260" name="ring"/>
  <anchor x="472" y="440" name="top"/>
  <outline>
    <contour>
      <point x="544" y="-213" type="curve"/>
      <point x="552" y="-213" type="line"/>
      <point x="616" y="-179" type="line"/>
      <point x="496" y="9"/>
      <point x="395" y="113"/>
      <point x="256" y="113" type="curve" smooth="yes"/>
      <point x="162" y="113"/>
      <point x="60" y="35"/>
      <point x="60" y="-77" type="curve" smooth="yes"/>
      <point x="60" y="-200"/>
      <point x="165" y="-260"/>
      <point x="259" y="-260" type="curve" smooth="yes"/>
      <point x="437" y="-260"/>
      <point x="546" y="-131"/>
      <point x="546" y="148" type="curve" smooth="yes"/>
      <point x="546" y="270"/>
      <point x="541" y="354"/>
      <point x="531" y="440" type="curve"/>
      <point x="523" y="440" type="line"/>
      <point x="435" y="428" type="line"/>
      <point x="445" y="341"/>
      <point x="454" y="252"/>
      <point x="454" y="144" type="curve" smooth="yes"/>
      <point x="454" y="-24"/>
      <point x="425" y="-110"/>
      <point x="388" y="-172" type="curve"/>
      <point x="419" y="-148" type="line"/>
      <point x="374" y="-172"/>
      <point x="319" y="-180"/>
      <point x="288" y="-180" type="curve" smooth="yes"/>
      <point x="201" y="-180"/>
      <point x="152" y="-135"/>
      <point x="152" y="-69" type="curve" smooth="yes"/>
      <point x="152" y="-12"/>
      <point x="190" y="39"/>
      <point x="277" y="65" type="curve"/>
      <point x="219" y="53" type="line"/>
      <point x="381" y="28"/>
      <point x="439" y="-74"/>
    </contour>
  </outline>
</glyph>
<glyph name="endash" format="2">
  <advance width="500"/>
  <unicode hex="2013"/>
  <note>
endash
</note>
  <outline>
    <contour>
      <point x="40" y="372" type="line"/>
      <point x="24" y="292" type="line"/>
      <point x="492" y="292" type="line"/>
      <point x="508" y="372" type="line"/>
    </contour>
  </outline>
</glyph>
<glyph name="quoteright" format="2">
  <advance width="280"/>
  <unicode hex="2019"/>
  <note>
quoteright
</note>
  <outline>
    <contour>
      <point x="188" y="596" type="curve"/>
      <point x="88" y="460" type="line"/>
      <point x="88" y="452" type="line"/>
      <point x="164" y="452" type="line"/>
      <point x="248" y="576" type="line" smooth="yes"/>
      <point x="268" y="606"/>
      <point x="284" y="636"/>
      <point x="284" y="668" type="curve" smooth="yes"/>
      <point x="284" y="704"/>
      <point x="264" y="728"/>
      <point x="228" y="728" type="curve" smooth="yes"/>
      <point x="187" y="728"/>
      <point x="156" y="692"/>
      <point x="156" y="652" type="curve" smooth="yes"/>
      <point x="156" y="616"/>
      <point x="173" y="603"/>
    </contour>
  </outline>
</glyph>
<glyph name="quotedblleft" format="2">
  <advance width="484"/>
  <unicode hex="201C"/>
  <note>
quotedblleft
</note>
  <outline>
    <contour>
      <point x="384" y="444" type="curve" smooth="yes"/>
      <point x="425" y="444"/>
      <point x="456" y="480"/>
      <point x="456" y="520" type="curve" smooth="yes"/>
      <point x="456" y="556"/>
      <point x="439" y="569"/>
      <point x="424" y="576" type="curve"/>
      <point x="524" y="712" type="line"/>
      <point x="524" y="720" type="line"/>
      <point x="448" y="720" type="line"/>
      <point x="364" y="596" type="line" smooth="yes"/>
      <point x="344" y="566"/>
      <point x="328" y="536"/>
      <point x="328" y="504" type="curve" smooth="yes"/>
      <point x="328" y="468"/>
      <point x="348" y="444"/>
    </contour>
    <contour>
      <point x="180" y="444" type="curve" smooth="yes"/>
      <point x="221" y="444"/>
      <point x="252" y="480"/>
      <point x="252" y="520" type="curve" smooth="yes"/>
      <point x="252" y="556"/>
      <point x="235" y="569"/>
      <point x="220" y="576" type="curve"/>
      <point x="320" y="712" type="line"/>
      <point x="320" y="720" type="line"/>
      <point x="244" y="720" type="line"/>
      <point x="160" y="596" type="line" smooth="yes"/>
      <point x="140" y="566"/>
      <point x="124" y="536"/>
      <point x="124" y="504" type="curve" smooth="yes"/>
      <point x="124" y="468"/>
      <point x="144" y="444"/>
    </contour>
  </outline>
</glyph>
<glyph name="quotedblright" format="2">
  <advance width="484"/>
  <unicode hex="201D"/>
  <note>
quotedblright
</note>
  <outline>
    <contour>
      <point x="292" y="452" type="line"/>
      <point x="368" y="452" type="line"/>
      <point x="452" y="576" type="line" smooth="yes"/>
      <point x="472" y="606"/>
      <point x="488" y="636"/>
      <point x="488" y="668" type="curve" smooth="yes"/>
      <point x="488" y="704"/>
      <point x="468" y="728"/>
      <point x="432" y="728" type="curve" smooth="yes"/>
      <point x="391" y="728"/>
      <point x="360" y="692"/>
      <point x="360" y="652" type="curve" smooth="yes"/>
      <point x="360" y="616"/>
      <point x="377" y="603"/>
      <point x="392" y="596" type="curve"/>
      <point x="292" y="460" type="line"/>
    </contour>
    <contour>
      <point x="88" y="452" type="line"/>
      <point x="164" y="452" type="line"/>
      <point x="248" y="576" type="line" smooth="yes"/>
      <point x="268" y="606"/>
      <point x="284" y="636"/>
      <point x="284" y="668" type="curve" smooth="yes"/>
      <point x="284" y="704"/>
      <point x="264" y="728"/>
      <point x="228" y="728" type="curve" smooth="yes"/>
      <point x="187" y="728"/>
      <point x="156" y="692"/>
      <point x="156" y="652" type="curve" smooth="yes"/>
      <point x="156" y="616"/>
      <point x="173" y="603"/>
      <point x="188" y="596" type="curve"/>
      <point x="88" y="460" type="line"/>
    </contour>
  </outline>
</glyph>
<glyph name="quotedblbase" format="2">
  <advance width="484"/>
  <unicode hex="201E"/>
  <note>
quotedblbase
</note>
  <outline>
    <contour>
      <point x="172" y="-156" type="line"/>
      <point x="248" y="-156" type="line"/>
      <point x="332" y="-32" type="line" smooth="yes"/>
      <point x="352" y="-2"/>
      <point x="368" y="28"/>
      <point x="368" y="60" type="curve" smooth="yes"/>
      <point x="368" y="96"/>
      <point x="348" y="120"/>
      <point x="312" y="120" type="curve" smooth="yes"/>
      <point x="271" y="120"/>
      <point x="240" y="84"/>
      <point x="240" y="44" type="curve" smooth="yes"/>
      <point x="240" y="8"/>
      <point x="257" y="-5"/>
      <point x="272" y="-12" type="curve"/>
      <point x="172" y="-148" type="line"/>
    </contour>
    <contour>
      <point x="-32" y="-156" type="line"/>
      <point x="44" y="-156" type="line"/>
      <point x="128" y="-32" type="line" smooth="yes"/>
      <point x="148" y="-2"/>
      <point x="164" y="28"/>
      <point x="164" y="60" type="curve" smooth="yes"/>
      <point x="164" y="96"/>
      <point x="144" y="120"/>
      <point x="108" y="120" type="curve" smooth="yes"/>
      <point x="67" y="120"/>
      <point x="36" y="84"/>
      <point x="36" y="44" type="curve" smooth="yes"/>
      <point x="36" y="8"/>
      <point x="53" y="-5"/>
      <point x="68" y="-12" type="curve"/>
      <point x="-32" y="-148" type="line"/>
    </contour>
  </outline>
</glyph>
<glyph name="daggerdbl" format="2">
  <advance width="544"/>
  <unicode hex="2021"/>
  <note>
daggerdbl
</note>
  <outline>
    <contour>
      <point x="128" y="-248" type="line"/>
      <point x="216" y="-248" type="line"/>
      <point x="404" y="720" type="line"/>
      <point x="316" y="720" type="line"/>
    </contour>
    <contour>
      <point x="48" y="380" type="line"/>
      <point x="544" y="380" type="line"/>
      <point x="560" y="460" type="line"/>
      <point x="64" y="460" type="line"/>
    </contour>
    <contour>
      <point x="-24" y="0" type="line"/>
      <point x="468" y="0" type="line"/>
      <point x="484" y="76" type="line"/>
      <point x="-12" y="76" type="line"/>
    </contour>
  </outline>
</glyph>
<glyph name="bullet" format="2">
  <advance width="480"/>
  <unicode hex="2022"/>
  <note>
bullet
</note>
  <outline>
    <contour>
      <point x="260" y="200" type="curve" smooth="yes"/>
      <point x="348" y="200"/>
      <point x="424" y="264"/>
      <point x="424" y="364" type="curve" smooth="yes"/>
      <point x="424" y="464"/>
      <point x="348" y="528"/>
      <point x="260" y="528" type="curve" smooth="yes"/>
      <point x="172" y="528"/>
      <point x="96" y="464"/>
      <point x="96" y="364" type="curve" smooth="yes"/>
      <point x="96" y="264"/>
      <point x="172" y="200"/>
    </contour>
  </outline>
</glyph>
<glyph name="ellipsis" format="2">
  <advance width="840"/>
  <unicode hex="2026"/>
  <note>
ellipsis
</note>
  <outline>
    <contour>
      <point x="40" y="44" type="curve" smooth="yes"/>
      <point x="40" y="12"/>
      <point x="58" y="-8"/>
      <point x="94" y="-8" type="curve" smooth="yes"/>
      <point x="136" y="-8"/>
      <point x="164" y="32"/>
      <point x="164" y="68" type="curve" smooth="yes"/>
      <point x="164" y="100"/>
      <point x="144" y="120"/>
      <point x="110" y="120" type="curve" smooth="yes"/>
      <point x="66" y="120"/>
      <point x="40" y="80"/>
    </contour>
    <contour>
      <point x="320" y="44" type="curve" smooth="yes"/>
      <point x="320" y="12"/>
      <point x="338" y="-8"/>
      <point x="374" y="-8" type="curve" smooth="yes"/>
      <point x="416" y="-8"/>
      <point x="444" y="32"/>
      <point x="444" y="68" type="curve" smooth="yes"/>
      <point x="444" y="100"/>
      <point x="424" y="120"/>
      <point x="390" y="120" type="curve" smooth="yes"/>
      <point x="346" y="120"/>
      <point x="320" y="80"/>
    </contour>
    <contour>
      <point x="600" y="44" type="curve" smooth="yes"/>
      <point x="600" y="12"/>
      <point x="618" y="-8"/>
      <point x="654" y="-8" type="curve" smooth="yes"/>
      <point x="696" y="-8"/>
      <point x="724" y="32"/>
      <point x="724" y="68" type="curve" smooth="yes"/>
      <point x="724" y="100"/>
      <point x="704" y="120"/>
      <point x="670" y="120" type="curve" smooth="yes"/>
      <point x="626" y="120"/>
      <point x="600" y="80"/>
    </contour>
  </outline>
</glyph>
<glyph name="guilsinglleft" format="2">
  <advance width="344"/>
  <unicode hex="2039"/>
  <note>
guilsinglleft
</note>
  <outline>
    <contour>
      <point x="236" y="72" type="line"/>
      <point x="244" y="72" type="line"/>
      <point x="262" y="160" type="line"/>
      <point x="136" y="302" type="line"/>
      <point x="320" y="440" type="line"/>
      <point x="340" y="544" type="line"/>
      <point x="332" y="544" type="line"/>
      <point x="48" y="324" type="line"/>
      <point x="40" y="292" type="line"/>
    </contour>
  </outline>
</glyph>
<glyph name="fraction" format="2">
  <advance width="160"/>
  <unicode hex="2044"/>
  <note>
fraction
</note>
  <outline>
    <contour>
      <point x="-244" y="0" type="line"/>
      <point x="-156" y="0" type="line"/>
      <point x="444" y="720" type="line"/>
      <point x="356" y="720" type="line"/>
    </contour>
  </outline>
</glyph>
<glyph name="zeroinferior" format="2">
  <advance width="397"/>
  <unicode hex="2080"/>
  <note>
uni2080
</note>
  <outline>
    <contour>
      <point x="129" y="-167" type="curve" smooth="yes"/>
      <point x="277" y="-167"/>
      <point x="330" y="-7"/>
      <point x="329" y="99" type="curve" smooth="yes"/>
      <point x="328" y="188"/>
      <point x="281" y="246"/>
      <point x="187" y="246" type="curve" smooth="yes"/>
      <point x="39" y="246"/>
      <point x="-11" y="86"/>
      <point x="-11" y="-20" type="curve" smooth="yes"/>
      <point x="-11" y="-109"/>
      <point x="35" y="-167"/>
    </contour>
    <contour>
      <point x="133" y="-99" type="curve" smooth="yes"/>
      <point x="93" y="-99"/>
      <point x="72" y="-75"/>
      <point x="71" y="-26" type="curve" smooth="yes"/>
      <point x="70" y="42"/>
      <point x="98" y="179"/>
      <point x="184" y="179" type="curve" smooth="yes"/>
      <point x="224" y="179"/>
      <point x="245" y="154"/>
      <point x="245" y="105" type="curve" smooth="yes"/>
      <point x="246" y="37"/>
      <point x="219" y="-99"/>
    </contour>
  </outline>
</glyph>
<glyph name="threeinferior" format="2">
  <advance width="397"/>
  <unicode hex="2083"/>
  <note>
uni2083
</note>
  <outline>
    <contour>
      <point x="97" y="-168" type="curve" smooth="yes"/>
      <point x="220" y="-168"/>
      <point x="292" y="-113"/>
      <point x="291" y="-33" type="curve" smooth="yes"/>
      <point x="290" y="33"/>
      <point x="243" y="73"/>
      <point x="155" y="73" type="curve"/>
      <point x="159" y="51" type="line"/>
      <point x="287" y="160" type="line" smooth="yes"/>
      <point x="312" y="182"/>
      <point x="325" y="203"/>
      <point x="323" y="231" type="curve"/>
      <point x="318" y="240" type="line"/>
      <point x="53" y="240" type="line"/>
      <point x="40" y="173" type="line"/>
      <point x="208" y="173" type="line"/>
      <point x="74" y="51" type="line"/>
      <point x="81" y="21" type="line"/>
      <point x="130" y="21" type="line" smooth="yes"/>
      <point x="181" y="21"/>
      <point x="208" y="3"/>
      <point x="209" y="-33" type="curve" smooth="yes"/>
      <point x="209" y="-72"/>
      <point x="177" y="-102"/>
      <point x="98" y="-102" type="curve" smooth="yes"/>
      <point x="52" y="-102"/>
      <point x="14" y="-88"/>
      <point x="-5" y="-77" type="curve"/>
      <point x="-11" y="-77" type="line"/>
      <point x="-23" y="-145" type="line"/>
      <point x="0" y="-157"/>
      <point x="49" y="-168"/>
    </contour>
  </outline>
</glyph>
<glyph name="fiveinferior" format="2">
  <advance width="397"/>
  <unicode hex="2085"/>
  <note>
uni2085
</note>
  <outline>
    <contour>
      <point x="-15" y="-76" type="line"/>
      <point x="-26" y="-144" type="line"/>
      <point x="-4" y="-156"/>
      <point x="46" y="-168"/>
      <point x="94" y="-168" type="curve" smooth="yes"/>
      <point x="226" y="-168"/>
      <point x="295" y="-110"/>
      <point x="295" y="-29" type="curve"/>
      <point x="294" y="36"/>
      <point x="247" y="84"/>
      <point x="149" y="84" type="curve" smooth="yes"/>
      <point x="128" y="84"/>
      <point x="108" y="82"/>
      <point x="95" y="77" type="curve"/>
      <point x="107" y="56" type="line"/>
      <point x="124" y="142" type="line" smooth="yes"/>
      <point x="128" y="162"/>
      <point x="129" y="181"/>
      <point x="126" y="195" type="curve"/>
      <point x="95" y="173" type="line"/>
      <point x="313" y="173" type="line"/>
      <point x="327" y="240" type="line"/>
      <point x="144" y="240" type="line" smooth="yes"/>
      <point x="104" y="240"/>
      <point x="81" y="238"/>
      <point x="61" y="233" type="curve"/>
      <point x="58" y="228" type="line"/>
      <point x="58" y="205"/>
      <point x="49" y="163"/>
      <point x="44" y="140" type="curve" smooth="yes"/>
      <point x="20" y="16" type="line"/>
      <point x="24" y="13" type="line"/>
      <point x="47" y="18"/>
      <point x="77" y="26"/>
      <point x="121" y="26" type="curve" smooth="yes"/>
      <point x="185" y="26"/>
      <point x="210" y="5"/>
      <point x="210" y="-30" type="curve" smooth="yes"/>
      <point x="211" y="-71"/>
      <point x="175" y="-101"/>
      <point x="95" y="-101" type="curve" smooth="yes"/>
      <point x="47" y="-101"/>
      <point x="12" y="-90"/>
      <point x="-9" y="-76" type="curve"/>
    </contour>
  </outline>
</glyph>
<glyph name="eightinferior" format="2">
  <advance width="397"/>
  <unicode hex="2088"/>
  <note>
uni2088
</note>
  <outline>
    <contour>
      <point x="132" y="-168" type="curve" smooth="yes"/>
      <point x="231" y="-168"/>
      <point x="302" y="-121"/>
      <point x="302" y="-44" type="curve" smooth="yes"/>
      <point x="302" y="-1"/>
      <point x="260" y="38"/>
      <point x="205" y="60" type="curve" smooth="yes"/>
      <point x="172" y="73" type="line" smooth="yes"/>
      <point x="132" y="89"/>
      <point x="107" y="98"/>
      <point x="107" y="132" type="curve" smooth="yes"/>
      <point x="107" y="161"/>
      <point x="135" y="185"/>
      <point x="181" y="185" type="curve" smooth="yes"/>
      <point x="225" y="185"/>
      <point x="250" y="168"/>
      <point x="250" y="136" type="curve" smooth="yes"/>
      <point x="250" y="98"/>
      <point x="210" y="70"/>
      <point x="179" y="60" type="curve"/>
      <point x="233" y="31" type="line"/>
      <point x="285" y="54"/>
      <point x="329" y="89"/>
      <point x="329" y="148" type="curve" smooth="yes"/>
      <point x="329" y="203"/>
      <point x="280" y="248"/>
      <point x="188" y="248" type="curve" smooth="yes"/>
      <point x="74" y="248"/>
      <point x="25" y="186"/>
      <point x="25" y="122" type="curve" smooth="yes"/>
      <point x="25" y="74"/>
      <point x="62" y="43"/>
      <point x="102" y="29" type="curve" smooth="yes"/>
      <point x="141" y="15" type="line" smooth="yes"/>
      <point x="180" y="1"/>
      <point x="219" y="-12"/>
      <point x="219" y="-49" type="curve" smooth="yes"/>
      <point x="219" y="-84"/>
      <point x="182" y="-105"/>
      <point x="132" y="-105" type="curve" smooth="yes"/>
      <point x="83" y="-105"/>
      <point x="57" y="-85"/>
      <point x="57" y="-54" type="curve" smooth="yes"/>
      <point x="57" y="-13"/>
      <point x="98" y="14"/>
      <point x="145" y="25" type="curve"/>
      <point x="83" y="55" type="line"/>
      <point x="23" y="32"/>
      <point x="-21" y="-9"/>
      <point x="-21" y="-66" type="curve" smooth="yes"/>
      <point x="-21" y="-125"/>
      <point x="29" y="-168"/>
    </contour>
  </outline>
</glyph>
<glyph name="colonsign" format="2">
  <advance width="616"/>
  <unicode hex="20A1"/>
  <outline>
    <contour>
      <point x="348" y="-12" type="curve" smooth="yes"/>
      <point x="396" y="-12"/>
      <point x="449" y="-8"/>
      <point x="488" y="8" type="curve"/>
      <point x="505" y="96" type="line"/>
      <point x="501" y="96" type="line"/>
      <point x="462" y="80"/>
      <point x="424" y="72"/>
      <point x="360" y="72" type="curve" smooth="yes"/>
      <point x="232" y="72"/>
      <point x="164" y="144"/>
      <point x="164" y="284" type="curve" smooth="yes"/>
      <point x="164" y="428"/>
      <point x="236" y="648"/>
      <point x="472" y="648" type="curve" smooth="yes"/>
      <point x="532" y="648"/>
      <point x="572" y="638"/>
      <point x="604" y="624" type="curve"/>
      <point x="608" y="624" type="line"/>
      <point x="625" y="712" type="line"/>
      <point x="592" y="724"/>
      <point x="540" y="732"/>
      <point x="488" y="732" type="curve" smooth="yes"/>
      <point x="176" y="732"/>
      <point x="68" y="464"/>
      <point x="68" y="284" type="curve" smooth="yes"/>
      <point x="68" y="104"/>
      <point x="168" y="-12"/>
    </contour>
    <contour>
      <point x="404" y="800" type="line"/>
      <point x="84" y="-84" type="line"/>
      <point x="160" y="-84" type="line"/>
      <point x="480" y="800" type="line"/>
    </contour>
    <contour>
      <point x="534" y="800" type="line"/>
      <point x="214" y="-84" type="line"/>
      <point x="290" y="-84" type="line"/>
      <point x="610" y="800" type="line"/>
    </contour>
  </outline>
</glyph>
<glyph name="franc" format="2">
  <advance width="572"/>
  <unicode hex="20A3"/>
  <outline>
    <contour>
      <point x="44" y="0" type="line"/>
      <point x="140" y="0" type="line"/>
      <point x="280" y="720" type="line"/>
      <point x="184" y="720" type="line"/>
    </contour>
    <contour>
      <point x="156" y="300" type="line"/>
      <point x="490" y="300" type="line"/>
      <point x="506" y="384" type="line"/>
      <point x="172" y="384" type="line"/>
    </contour>
    <contour>
      <point x="232" y="636" type="line"/>
      <point x="610" y="636" type="line"/>
      <point x="626" y="720" type="line"/>
      <point x="248" y="720" type="line"/>
    </contour>
    <contour>
      <point x="-17" y="124" type="line"/>
      <point x="320" y="124" type="line"/>
      <point x="336" y="208" type="line"/>
      <point x="-1" y="208" type="line"/>
    </contour>
  </outline>
</glyph>
<glyph name="won" format="2">
  <advance width="984"/>
  <unicode hex="20A9"/>
  <outline>
    <contour>
      <point x="579" y="-12" type="curve" smooth="yes"/>
      <point x="715" y="-12"/>
      <point x="787" y="77"/>
      <point x="849" y="236" type="curve" smooth="yes"/>
      <point x="1039" y="720" type="line"/>
      <point x="941" y="720" type="line"/>
      <point x="750" y="232" type="line" smooth="yes"/>
      <point x="712" y="134"/>
      <point x="667" y="72"/>
      <point x="599" y="72" type="curve" smooth="yes"/>
      <point x="563" y="72"/>
      <point x="553" y="75"/>
      <point x="530" y="82" type="curve"/>
      <point x="545" y="53" type="line"/>
      <point x="553" y="90"/>
      <point x="562" y="145"/>
      <point x="565" y="176" type="curve" smooth="yes"/>
      <point x="613" y="720" type="line"/>
      <point x="515" y="720" type="line"/>
      <point x="471" y="176" type="line" smooth="yes"/>
      <point x="468" y="136"/>
      <point x="456" y="56"/>
      <point x="446" y="16" type="curve"/>
      <point x="446" y="4" type="line"/>
      <point x="496" y="-8"/>
      <point x="531" y="-12"/>
    </contour>
    <contour>
      <point x="211" y="-12" type="curve" smooth="yes"/>
      <point x="347" y="-12"/>
      <point x="409" y="77"/>
      <point x="473" y="236" type="curve" smooth="yes"/>
      <point x="507" y="320" type="line"/>
      <point x="533" y="584" type="line"/>
      <point x="390" y="232" type="line" smooth="yes"/>
      <point x="351" y="135"/>
      <point x="307" y="72"/>
      <point x="231" y="72" type="curve" smooth="yes"/>
      <point x="195" y="72"/>
      <point x="185" y="77"/>
      <point x="162" y="82" type="curve"/>
      <point x="177" y="53" type="line"/>
      <point x="185" y="90"/>
      <point x="194" y="145"/>
      <point x="197" y="176" type="curve" smooth="yes"/>
      <point x="245" y="720" type="line"/>
      <point x="147" y="720" type="line"/>
      <point x="103" y="176" type="line" smooth="yes"/>
      <point x="100" y="136"/>
      <point x="88" y="56"/>
      <point x="78" y="16" type="curve"/>
      <point x="78" y="4" type="line"/>
      <point x="128" y="-8"/>
      <point x="163" y="-12"/>
    </contour>
    <contour>
      <point x="41" y="400" type="line"/>
      <point x="1001" y="400" type="line"/>
      <point x="1016" y="480" type="line"/>
      <point x="56" y="480" type="line"/>
    </contour>
    <contour>
      <point x="8" y="228" type="line"/>
      <point x="968" y="228" type="line"/>
      <point x="983" y="308" type="line"/>
      <point x="23" y="308" type="line"/>
    </contour>
  </outline>
</glyph>
<glyph name="kip" format="2">
  <advance width="579"/>
  <unicode hex="20AD"/>
  <outline>
    <contour>
      <point x="56" y="0" type="line"/>
      <point x="152" y="0" type="line"/>
      <point x="292" y="720" type="line"/>
      <point x="196" y="720" type="line"/>
    </contour>
    <contour>
      <point x="26" y="280" type="line"/>
      <point x="510" y="280" type="line"/>
      <point x="526" y="364" type="line"/>
      <point x="42" y="364" type="line"/>
    </contour>
    <contour>
      <point x="347" y="281" type="line"/>
      <point x="636" y="712" type="line"/>
      <point x="638" y="720" type="line"/>
      <point x="532" y="720" type="line"/>
      <point x="266" y="306" type="line"/>
      <point x="404" y="0" type="line"/>
      <point x="504" y="0" type="line"/>
      <point x="506" y="8" type="line"/>
      <point x="351" y="347" type="line"/>
    </contour>
  </outline>
</glyph>
<glyph name="guarani" format="2">
  <advance width="684"/>
  <unicode hex="20B2"/>
  <anchor x="271" y="0" name="bottom"/>
  <anchor x="411" y="720" name="top"/>
  <outline>
    <contour>
      <point x="409" y="800" type="line"/>
      <point x="231" y="-112" type="line"/>
      <point x="315" y="-112" type="line"/>
      <point x="493" y="800" type="line"/>
    </contour>
    <contour>
      <point x="52" y="296" type="curve" smooth="yes"/>
      <point x="52" y="104"/>
      <point x="156" y="-12"/>
      <point x="360" y="-12" type="curve" smooth="yes"/>
      <point x="420" y="-12"/>
      <point x="496" y="0"/>
      <point x="542" y="24" type="curve"/>
      <point x="608" y="364" type="line"/>
      <point x="512" y="364" type="line"/>
      <point x="452" y="52" type="line"/>
      <point x="477" y="90" type="line"/>
      <point x="445" y="78"/>
      <point x="406" y="72"/>
      <point x="368" y="72" type="curve" smooth="yes"/>
      <point x="233" y="72"/>
      <point x="152" y="140"/>
      <point x="152" y="296" type="curve" smooth="yes"/>
      <point x="152" y="484"/>
      <point x="266" y="644"/>
      <point x="466" y="644" type="curve" smooth="yes"/>
      <point x="542" y="644"/>
      <point x="596" y="627"/>
      <point x="634" y="608" type="curve"/>
      <point x="642" y="608" type="line"/>
      <point x="660" y="700" type="line"/>
      <point x="620" y="720"/>
      <point x="538" y="732"/>
      <point x="478" y="732" type="curve" smooth="yes"/>
      <point x="198" y="732"/>
      <point x="52" y="520"/>
    </contour>
  </outline>
</glyph>
<glyph name="rupeeIndian" format="2">
  <advance width="604"/>
  <unicode hex="20B9"/>
  <outline>
    <contour>
      <point x="310" y="0" type="line"/>
      <point x="440" y="0" type="line"/>
      <point x="440" y="8" type="line"/>
      <point x="197" y="284" type="line"/>
      <point x="153" y="244" type="line"/>
      <point x="209" y="244" type="line" smooth="yes"/>
      <point x="399" y="244"/>
      <point x="536" y="367"/>
      <point x="536" y="517" type="curve" smooth="yes"/>
      <point x="536" y="661"/>
      <point x="462" y="720"/>
      <point x="298" y="720" type="curve" smooth="yes"/>
      <point x="174" y="720" type="line"/>
      <point x="158" y="636" type="line"/>
      <point x="298" y="636" type="line" smooth="yes"/>
      <point x="390" y="636"/>
      <point x="434" y="604"/>
      <point x="434" y="515" type="curve" smooth="yes"/>
      <point x="434" y="438"/>
      <point x="370" y="328"/>
      <point x="230" y="328" type="curve" smooth="yes"/>
      <point x="128" y="328" type="line"/>
      <point x="87" y="260" type="line"/>
    </contour>
    <contour>
      <point x="120" y="444" type="line"/>
      <point x="616" y="444" type="line"/>
      <point x="632" y="524" type="line"/>
      <point x="136" y="524" type="line"/>
    </contour>
    <contour>
      <point x="178" y="640" type="line"/>
      <point x="654" y="640" type="line"/>
      <point x="670" y="720" type="line"/>
      <point x="194" y="720" type="line"/>
    </contour>
  </outline>
</glyph>
<glyph name="liraTurkish" format="2">
  <advance width="632"/>
  <unicode hex="20BA"/>
  <outline>
    <contour>
      <point x="251" y="-12" type="curve" smooth="yes"/>
      <point x="448" y="-12"/>
      <point x="513" y="73"/>
      <point x="557" y="218" type="curve" smooth="yes"/>
      <point x="582" y="300" type="line"/>
      <point x="582" y="308" type="line"/>
      <point x="491" y="308" type="line"/>
      <point x="462" y="214" type="line" smooth="yes"/>
      <point x="430" y="112"/>
      <point x="388" y="72"/>
      <point x="271" y="72" type="curve" smooth="yes"/>
      <point x="229" y="72"/>
      <point x="209" y="74"/>
      <point x="191" y="79" type="curve"/>
      <point x="205" y="54" type="line"/>
      <point x="209" y="73"/>
      <point x="216" y="98"/>
      <point x="221" y="124" type="curve" smooth="yes"/>
      <point x="337" y="720" type="line"/>
      <point x="241" y="720" type="line"/>
      <point x="135" y="176" type="line" smooth="yes"/>
      <point x="127" y="136"/>
      <point x="112" y="56"/>
      <point x="98" y="16" type="curve"/>
      <point x="98" y="4" type="line"/>
      <point x="148" y="-8"/>
      <point x="191" y="-12"/>
    </contour>
    <contour>
      <point x="20" y="240" type="line"/>
      <point x="28" y="240" type="line"/>
      <point x="449" y="388" type="line"/>
      <point x="466" y="476" type="line"/>
      <point x="458" y="476" type="line"/>
      <point x="37" y="328" type="line"/>
    </contour>
    <contour>
      <point x="51" y="400" type="line"/>
      <point x="59" y="400" type="line"/>
      <point x="480" y="548" type="line"/>
      <point x="497" y="636" type="line"/>
      <point x="489" y="636" type="line"/>
      <point x="68" y="488" type="line"/>
    </contour>
  </outline>
</glyph>
<glyph name="numero" format="2">
  <advance width="1170"/>
  <unicode hex="2116"/>
  <note>
afii61352
</note>
  <anchor x="315" y="0" name="bottom"/>
  <anchor x="455" y="720" name="top"/>
  <outline>
    <contour>
      <point x="732" y="124" type="line"/>
      <point x="1052" y="124" type="line"/>
      <point x="1064" y="196" type="line"/>
      <point x="744" y="196" type="line"/>
    </contour>
    <contour>
      <point x="756" y="256" type="line"/>
      <point x="1076" y="256" type="line"/>
      <point x="1088" y="328" type="line"/>
      <point x="768" y="328" type="line"/>
    </contour>
    <contour>
      <point x="952" y="388" type="curve" smooth="yes"/>
      <point x="1066" y="388"/>
      <point x="1168" y="461"/>
      <point x="1168" y="592" type="curve" smooth="yes"/>
      <point x="1168" y="680"/>
      <point x="1100" y="732"/>
      <point x="1004" y="732" type="curve" smooth="yes"/>
      <point x="890" y="732"/>
      <point x="792" y="658"/>
      <point x="792" y="528" type="curve" smooth="yes"/>
      <point x="792" y="439"/>
      <point x="856" y="388"/>
    </contour>
    <contour>
      <point x="960" y="456" type="curve" smooth="yes"/>
      <point x="913" y="456"/>
      <point x="876" y="479"/>
      <point x="876" y="532" type="curve" smooth="yes"/>
      <point x="876" y="621"/>
      <point x="943" y="664"/>
      <point x="1000" y="664" type="curve" smooth="yes"/>
      <point x="1047" y="664"/>
      <point x="1080" y="640"/>
      <point x="1080" y="588" type="curve" smooth="yes"/>
      <point x="1080" y="498"/>
      <point x="1017" y="456"/>
    </contour>
    <component base="N"/>
  </outline>
</glyph>
<glyph name="upArrow" format="2">
  <advance width="728"/>
  <unicode hex="2191"/>
  <note>
uni2191
</note>
  <outline>
    <contour>
      <point x="340" y="-52" type="line"/>
      <point x="428" y="-52" type="line"/>
      <point x="424" y="356" type="line" smooth="yes"/>
      <point x="423" y="408"/>
      <point x="422" y="444"/>
      <point x="420" y="470" type="curve"/>
      <point x="433" y="453"/>
      <point x="448" y="440"/>
      <point x="464" y="426" type="curve" smooth="yes"/>
      <point x="576" y="324" type="line"/>
      <point x="628" y="384" type="line"/>
      <point x="488" y="512" type="line" smooth="yes"/>
      <point x="467" y="531"/>
      <point x="432" y="568"/>
      <point x="404" y="604" type="curve"/>
      <point x="364" y="604" type="line"/>
      <point x="336" y="568"/>
      <point x="301" y="531"/>
      <point x="280" y="512" type="curve" smooth="yes"/>
      <point x="140" y="384" type="line"/>
      <point x="192" y="324" type="line"/>
      <point x="304" y="426" type="line" smooth="yes"/>
      <point x="319" y="440"/>
      <point x="334" y="453"/>
      <point x="347" y="470" type="curve"/>
      <point x="346" y="444"/>
      <point x="344" y="407"/>
      <point x="344" y="356" type="curve" smooth="yes"/>
    </contour>
  </outline>
</glyph>
<glyph name="northWestArrow" format="2">
  <advance width="728"/>
  <unicode hex="2196"/>
  <note>
uni2196
</note>
  <outline>
    <contour>
      <point x="585" y="13" type="line"/>
      <point x="647" y="75" type="line"/>
      <point x="356" y="361" type="line" smooth="yes"/>
      <point x="318" y="397"/>
      <point x="292" y="422"/>
      <point x="272" y="439" type="curve"/>
      <point x="293" y="436"/>
      <point x="313" y="438"/>
      <point x="335" y="439" type="curve" smooth="yes"/>
      <point x="486" y="446" type="line"/>
      <point x="480" y="525" type="line"/>
      <point x="291" y="516" type="line" smooth="yes"/>
      <point x="262" y="515"/>
      <point x="211" y="516"/>
      <point x="166" y="522" type="curve"/>
      <point x="138" y="494" type="line"/>
      <point x="144" y="449"/>
      <point x="145" y="398"/>
      <point x="144" y="369" type="curve" smooth="yes"/>
      <point x="135" y="180" type="line"/>
      <point x="214" y="174" type="line"/>
      <point x="221" y="325" type="line" smooth="yes"/>
      <point x="222" y="346"/>
      <point x="224" y="366"/>
      <point x="221" y="387" type="curve"/>
      <point x="238" y="368"/>
      <point x="263" y="340"/>
      <point x="299" y="304" type="curve" smooth="yes"/>
    </contour>
  </outline>
</glyph>
<glyph name="southEastArrow" format="2">
  <advance width="728"/>
  <unicode hex="2198"/>
  <note>
uni2198
</note>
  <outline>
    <contour>
      <point x="183" y="539" type="line"/>
      <point x="121" y="477" type="line"/>
      <point x="412" y="191" type="line" smooth="yes"/>
      <point x="448" y="155"/>
      <point x="476" y="130"/>
      <point x="495" y="113" type="curve"/>
      <point x="474" y="115"/>
      <point x="454" y="114"/>
      <point x="433" y="113" type="curve" smooth="yes"/>
      <point x="282" y="106" type="line"/>
      <point x="288" y="27" type="line"/>
      <point x="477" y="36" type="line" smooth="yes"/>
      <point x="506" y="37"/>
      <point x="557" y="36"/>
      <point x="602" y="30" type="curve"/>
      <point x="630" y="58" type="line"/>
      <point x="624" y="103"/>
      <point x="623" y="154"/>
      <point x="624" y="183" type="curve" smooth="yes"/>
      <point x="633" y="372" type="line"/>
      <point x="554" y="378" type="line"/>
      <point x="547" y="227" type="line"/>
      <point x="545" y="205"/>
      <point x="544" y="185"/>
      <point x="547" y="164" type="curve"/>
      <point x="530" y="184"/>
      <point x="505" y="210"/>
      <point x="469" y="248" type="curve" smooth="yes"/>
    </contour>
  </outline>
</glyph>
<glyph name="southWestArrow" format="2">
  <advance width="728"/>
  <unicode hex="2199"/>
  <note>
uni2199
</note>
  <outline>
    <contour>
      <point x="647" y="477" type="line"/>
      <point x="585" y="539" type="line"/>
      <point x="299" y="248" type="line" smooth="yes"/>
      <point x="263" y="212"/>
      <point x="238" y="184"/>
      <point x="221" y="165" type="curve"/>
      <point x="223" y="186"/>
      <point x="222" y="206"/>
      <point x="221" y="227" type="curve" smooth="yes"/>
      <point x="214" y="378" type="line"/>
      <point x="135" y="372" type="line"/>
      <point x="144" y="183" type="line" smooth="yes"/>
      <point x="145" y="154"/>
      <point x="144" y="103"/>
      <point x="138" y="58" type="curve"/>
      <point x="166" y="30" type="line"/>
      <point x="211" y="36"/>
      <point x="262" y="37"/>
      <point x="291" y="36" type="curve" smooth="yes"/>
      <point x="480" y="27" type="line"/>
      <point x="486" y="106" type="line"/>
      <point x="335" y="113" type="line"/>
      <point x="313" y="115"/>
      <point x="293" y="116"/>
      <point x="272" y="113" type="curve"/>
      <point x="292" y="130"/>
      <point x="318" y="155"/>
      <point x="356" y="191" type="curve" smooth="yes"/>
    </contour>
  </outline>
</glyph>
<glyph name="partialdiff" format="2">
  <advance width="616"/>
  <unicode hex="2202"/>
  <note>
partialdiff
</note>
  <outline>
    <contour>
      <point x="257" y="-12" type="curve" smooth="yes"/>
      <point x="496" y="-12"/>
      <point x="595" y="245"/>
      <point x="595" y="456" type="curve" smooth="yes"/>
      <point x="595" y="623"/>
      <point x="506" y="732"/>
      <point x="325" y="732" type="curve" smooth="yes"/>
      <point x="269" y="732"/>
      <point x="232" y="724"/>
      <point x="197" y="712" type="curve"/>
      <point x="180" y="624" type="line"/>
      <point x="188" y="624" type="line"/>
      <point x="219" y="636"/>
      <point x="253" y="648"/>
      <point x="313" y="648" type="curve" smooth="yes"/>
      <point x="441" y="648"/>
      <point x="499" y="579"/>
      <point x="499" y="456" type="curve" smooth="yes"/>
      <point x="499" y="439"/>
      <point x="498" y="420"/>
      <point x="496" y="399" type="curve"/>
      <point x="470" y="434"/>
      <point x="421" y="468"/>
      <point x="326" y="468" type="curve" smooth="yes"/>
      <point x="188" y="468"/>
      <point x="46" y="372"/>
      <point x="46" y="181" type="curve" smooth="yes"/>
      <point x="46" y="72"/>
      <point x="119" y="-12"/>
    </contour>
    <contour>
      <point x="327" y="388" type="curve" smooth="yes"/>
      <point x="407" y="388"/>
      <point x="453" y="354"/>
      <point x="481" y="309" type="curve"/>
      <point x="453" y="189"/>
      <point x="389" y="68"/>
      <point x="264" y="68" type="curve" smooth="yes"/>
      <point x="175" y="68"/>
      <point x="139" y="120"/>
      <point x="139" y="187" type="curve" smooth="yes"/>
      <point x="139" y="309"/>
      <point x="216" y="388"/>
    </contour>
  </outline>
</glyph>
<glyph name="product" format="2">
  <advance width="712"/>
  <unicode hex="220F"/>
  <note>
product
</note>
  <outline>
    <contour>
      <point x="188" y="720" type="line"/>
      <point x="48" y="0" type="line"/>
      <point x="144" y="0" type="line"/>
      <point x="267" y="636" type="line"/>
      <point x="595" y="636" type="line"/>
      <point x="472" y="0" type="line"/>
      <point x="568" y="0" type="line"/>
      <point x="708" y="720" type="line"/>
    </contour>
  </outline>
</glyph>
<glyph name="minus" format="2">
  <advance width="616"/>
  <unicode hex="2212"/>
  <note>
minus
</note>
  <outline>
    <contour>
      <point x="64" y="356" type="line"/>
      <point x="64" y="276" type="line"/>
      <point x="552" y="276" type="line"/>
      <point x="552" y="356" type="line"/>
    </contour>
  </outline>
</glyph>
<glyph name="radical" format="2">
  <advance width="588"/>
  <unicode hex="221A"/>
  <note>
radical
</note>
  <outline>
    <contour>
      <point x="40" y="372" type="line"/>
      <point x="24" y="304" type="line"/>
      <point x="151" y="304" type="line"/>
      <point x="224" y="-120" type="line"/>
      <point x="300" y="-120" type="line"/>
      <point x="716" y="720" type="line"/>
      <point x="624" y="720" type="line"/>
      <point x="287" y="29" type="line"/>
      <point x="232" y="372" type="line"/>
    </contour>
  </outline>
</glyph>
<glyph name="lessequal" format="2">
  <advance width="616"/>
  <unicode hex="2264"/>
  <note>
lessequal
</note>
  <outline>
    <contour>
      <point x="84" y="80" type="line"/>
      <point x="84" y="0" type="line"/>
      <point x="532" y="0" type="line"/>
      <point x="532" y="80" type="line"/>
    </contour>
    <contour>
      <point x="84" y="372" type="line"/>
      <point x="524" y="148" type="line"/>
      <point x="532" y="148" type="line"/>
      <point x="532" y="236" type="line"/>
      <point x="200" y="400" type="line"/>
      <point x="532" y="568" type="line"/>
      <point x="532" y="656" type="line"/>
      <point x="524" y="656" type="line"/>
      <point x="84" y="428" type="line"/>
    </contour>
  </outline>
</glyph>
<glyph name="greaterequal" format="2">
  <advance width="616"/>
  <unicode hex="2265"/>
  <note>
greaterequal
</note>
  <outline>
    <contour>
      <point x="92" y="148" type="line"/>
      <point x="532" y="372" type="line"/>
      <point x="532" y="428" type="line"/>
      <point x="92" y="656" type="line"/>
      <point x="84" y="656" type="line"/>
      <point x="84" y="568" type="line"/>
      <point x="416" y="400" type="line"/>
      <point x="84" y="236" type="line"/>
      <point x="84" y="148" type="line"/>
    </contour>
    <contour>
      <point x="84" y="80" type="line"/>
      <point x="84" y="0" type="line"/>
      <point x="532" y="0" type="line"/>
      <point x="532" y="80" type="line"/>
    </contour>
  </outline>
</glyph>
<glyph name="blackSquare" format="2">
  <advance width="912"/>
  <unicode hex="25A0"/>
  <note>
uni25A0
</note>
  <outline>
    <contour>
      <point x="116" y="720" type="line"/>
      <point x="116" y="0" type="line"/>
      <point x="836" y="0" type="line"/>
      <point x="836" y="720" type="line"/>
    </contour>
  </outline>
</glyph>
<glyph name="rightWhiteTriangle" format="2">
  <advance width="648"/>
  <unicode hex="25B7"/>
  <note>
uni25B7
</note>
  <outline>
    <contour>
      <point x="116" y="-30" type="line"/>
      <point x="648" y="266" type="line"/>
      <point x="116" y="562" type="line"/>
    </contour>
    <contour>
      <point x="208" y="114" type="line"/>
      <point x="208" y="417" type="line"/>
      <point x="480" y="266" type="line"/>
    </contour>
  </outline>
</glyph>
<glyph name="lozenge" format="2">
  <advance width="610"/>
  <unicode hex="25CA"/>
  <note>
lozenge
</note>
  <outline>
    <contour>
      <point x="276" y="-120" type="line"/>
      <point x="584" y="300" type="line"/>
      <point x="440" y="720" type="line"/>
      <point x="352" y="720" type="line"/>
      <point x="44" y="300" type="line"/>
      <point x="188" y="-120" type="line"/>
    </contour>
    <contour>
      <point x="381" y="638" type="line"/>
      <point x="496" y="300" type="line"/>
      <point x="247" y="-38" type="line"/>
      <point x="132" y="300" type="line"/>
    </contour>
  </outline>
</glyph>
<glyph name="mediumWhiteSquare" format="2">
  <advance width="720"/>
  <unicode hex="25FB"/>
  <note>
uni25FB
</note>
  <outline>
    <contour>
      <point x="116" y="536" type="line"/>
      <point x="116" y="0" type="line"/>
      <point x="644" y="0" type="line"/>
      <point x="644" y="536" type="line"/>
    </contour>
    <contour>
      <point x="548" y="88" type="line"/>
      <point x="212" y="88" type="line"/>
      <point x="212" y="448" type="line"/>
      <point x="548" y="448" type="line"/>
    </contour>
  </outline>
</glyph>
<glyph name="parenleft-ar" format="2">
  <advance width="456"/>
  <unicode hex="FD3E"/>
  <outline>
    <contour>
      <point x="271" y="470" type="line"/>
      <point x="291" y="596"/>
      <point x="344" y="699"/>
      <point x="419" y="780" type="curve"/>
      <point x="419" y="784" type="line"/>
      <point x="323" y="784" type="line"/>
      <point x="259" y="717"/>
      <point x="206" y="602"/>
      <point x="187" y="467" type="curve"/>
    </contour>
    <contour>
      <point x="191" y="228" type="line"/>
      <point x="213" y="104"/>
      <point x="263" y="-1"/>
      <point x="323" y="-64" type="curve"/>
      <point x="419" y="-64" type="line"/>
      <point x="419" y="-60" type="line"/>
      <point x="348" y="16"/>
      <point x="297" y="112"/>
      <point x="275" y="227" type="curve"/>
    </contour>
    <contour>
      <point x="436" y="350" type="curve" smooth="yes"/>
      <point x="436" y="465"/>
      <point x="347" y="512"/>
      <point x="228" y="512" type="curve" smooth="yes"/>
      <point x="109" y="512"/>
      <point x="20" y="465"/>
      <point x="20" y="350" type="curve" smooth="yes"/>
      <point x="20" y="235"/>
      <point x="109" y="188"/>
      <point x="228" y="188" type="curve" smooth="yes"/>
      <point x="347" y="188"/>
      <point x="436" y="235"/>
    </contour>
    <contour>
      <point x="369" y="350" type="curve" smooth="yes"/>
      <point x="369" y="293"/>
      <point x="316" y="271"/>
      <point x="228" y="271" type="curve" smooth="yes"/>
      <point x="141" y="271"/>
      <point x="87" y="293"/>
      <point x="87" y="350" type="curve" smooth="yes"/>
      <point x="87" y="407"/>
      <point x="141" y="429"/>
      <point x="228" y="429" type="curve" smooth="yes"/>
      <point x="316" y="429"/>
      <point x="369" y="407"/>
    </contour>
  </outline>
</glyph>
<glyph name="_alefMaksura_hah-ar.2.init" format="2">
  <advance width="750"/>
  <anchor x="274" y="0" name="bottom"/>
  <anchor x="699" y="380" name="bottom_1"/>
  <anchor x="368" y="410" name="top"/>
  <anchor x="596" y="620" name="top_1"/>
  <outline>
    <contour>
      <point x="600" y="85" type="line" smooth="yes"/>
      <point x="511" y="85"/>
      <point x="259" y="398"/>
      <point x="152" y="556" type="curve"/>
      <point x="144" y="556" type="line"/>
      <point x="80" y="496" type="line"/>
      <point x="239" y="275"/>
      <point x="374" y="125"/>
      <point x="470" y="73" type="curve"/>
      <point x="495" y="85" type="line"/>
      <point x="0" y="85" type="line"/>
      <point x="-20" y="65" type="line"/>
      <point x="-20" y="-2" type="line"/>
      <point x="691" y="0" type="line"/>
      <point x="715" y="77" type="line"/>
      <point x="715" y="85" type="line"/>
    </contour>
    <contour>
      <point x="349" y="279" type="line"/>
      <point x="378" y="262"/>
      <point x="408" y="256"/>
      <point x="436" y="256" type="curve" smooth="yes"/>
      <point x="564" y="256"/>
      <point x="648" y="322"/>
      <point x="648" y="520" type="curve" smooth="yes"/>
      <point x="648" y="640" type="line"/>
      <point x="640" y="640" type="line"/>
      <point x="556" y="628" type="line"/>
      <point x="556" y="484" type="line" smooth="yes"/>
      <point x="556" y="418"/>
      <point x="552" y="384"/>
      <point x="543" y="350" type="curve"/>
      <point x="564" y="385" type="line"/>
      <point x="534" y="348"/>
      <point x="485" y="331"/>
      <point x="432" y="331" type="curve" smooth="yes"/>
      <point x="371" y="331"/>
      <point x="306" y="354"/>
      <point x="259" y="396" type="curve"/>
    </contour>
  </outline>
</glyph>
<glyph name="_loop-ar" format="2">
  <advance width="988"/>
  <anchor x="721" y="0" name="*entry"/>
  <anchor x="60" y="0" name="*exit"/>
  <anchor x="402" y="0" name="bottom"/>
  <anchor x="401" y="405" name="top"/>
  <anchor x="33" y="44" name="verticalbar"/>
  <outline>
    <contour>
      <point x="10" y="85" type="line"/>
      <point x="10" y="0" type="line"/>
      <point x="726" y="0" type="line" smooth="yes"/>
      <point x="864" y="0"/>
      <point x="928" y="75"/>
      <point x="928" y="179" type="curve" smooth="yes"/>
      <point x="928" y="273"/>
      <point x="865" y="359"/>
      <point x="816" y="406" type="curve"/>
      <point x="804" y="406" type="line"/>
      <point x="764" y="395"/>
      <point x="704" y="394"/>
      <point x="652" y="394" type="curve" smooth="yes"/>
      <point x="72" y="394" type="line"/>
      <point x="38" y="309" type="line"/>
      <point x="652" y="309" type="line" smooth="yes"/>
      <point x="723" y="309"/>
      <point x="743" y="310"/>
      <point x="803" y="322" type="curve"/>
      <point x="754" y="342" type="line"/>
      <point x="807" y="292"/>
      <point x="836" y="223"/>
      <point x="836" y="173" type="curve" smooth="yes"/>
      <point x="836" y="106"/>
      <point x="797" y="85"/>
      <point x="747" y="85" type="curve" smooth="yes"/>
    </contour>
  </outline>
</glyph>
<glyph name="a.sc" format="2">
  <advance width="612"/>
  <note>
a.sc
</note>
  <anchor x="250" y="0" name="bottom"/>
  <anchor x="464" y="0" name="ogonek"/>
  <anchor x="376" y="572" name="top"/>
  <outline>
    <contour>
      <point x="8" y="0" type="line"/>
      <point x="104" y="0" type="line"/>
      <point x="244" y="376" type="line" smooth="yes"/>
      <point x="274" y="456"/>
      <point x="320" y="500"/>
      <point x="428" y="500" type="curve" smooth="yes"/>
      <point x="452" y="500"/>
      <point x="476" y="496"/>
      <point x="492" y="492" type="curve"/>
      <point x="480" y="516" type="line"/>
      <point x="473" y="500"/>
      <point x="467" y="482"/>
      <point x="464" y="464" type="curve" smooth="yes"/>
      <point x="372" y="0" type="line"/>
      <point x="464" y="0" type="line"/>
      <point x="552" y="448" type="line" smooth="yes"/>
      <point x="558" y="480"/>
      <point x="568" y="521"/>
      <point x="580" y="552" type="curve"/>
      <point x="576" y="564" type="line"/>
      <point x="532" y="574"/>
      <point x="491" y="580"/>
      <point x="448" y="580" type="curve" smooth="yes"/>
      <point x="277" y="580"/>
      <point x="204" y="517"/>
      <point x="152" y="380" type="curve" smooth="yes"/>
    </contour>
    <contour>
      <point x="132" y="168" type="line"/>
      <point x="432" y="168" type="line"/>
      <point x="448" y="248" type="line"/>
      <point x="160" y="248" type="line"/>
    </contour>
  </outline>
</glyph>
<glyph name="ae.sc" format="2">
  <advance width="880"/>
  <note>
ae.sc
</note>
  <anchor x="456" y="0" name="bottom"/>
  <anchor x="567" y="572" name="top"/>
  <anchor x="464" y="0" name="ogonek"/>
  <outline>
    <contour>
      <point x="420" y="0" type="line"/>
      <point x="776" y="0" type="line"/>
      <point x="792" y="80" type="line"/>
      <point x="440" y="80" type="line"/>
    </contour>
    <contour>
      <point x="476" y="260" type="line"/>
      <point x="768" y="260" type="line"/>
      <point x="784" y="336" type="line"/>
      <point x="492" y="336" type="line"/>
    </contour>
    <contour>
      <point x="520" y="492" type="line"/>
      <point x="864" y="492" type="line"/>
      <point x="880" y="572" type="line"/>
      <point x="536" y="572" type="line"/>
    </contour>
    <component base="a.sc"/>
  </outline>
</glyph>
<glyph name="ain-ar.init" format="2">
  <advance width="576"/>
  <note>
uni0639.init
</note>
  <anchor x="228" y="0" name="bottom"/>
  <anchor x="208" y="442" name="top"/>
  <outline>
    <contour>
      <point x="-20" y="0" type="line"/>
      <point x="508" y="0" type="line"/>
      <point x="536" y="77" type="line"/>
      <point x="536" y="85" type="line"/>
      <point x="312" y="85" type="line" smooth="yes"/>
      <point x="238" y="85"/>
      <point x="176" y="128"/>
      <point x="176" y="194" type="curve" smooth="yes"/>
      <point x="176" y="274"/>
      <point x="233" y="338"/>
      <point x="420" y="468" type="curve"/>
      <point x="388" y="544" type="line"/>
      <point x="380" y="544" type="line"/>
      <point x="188" y="415"/>
      <point x="88" y="307"/>
      <point x="88" y="196" type="curve" smooth="yes"/>
      <point x="88" y="111"/>
      <point x="136" y="76"/>
      <point x="187" y="50" type="curve"/>
      <point x="220" y="85" type="line"/>
      <point x="0" y="85" type="line"/>
      <point x="-20" y="65" type="line"/>
    </contour>
  </outline>
</glyph>
<glyph name="ain-ar.short" format="2">
  <advance width="496"/>
  <note>
uni0639.short
</note>
  <anchor x="224" y="-256" name="bottom"/>
  <anchor x="373" y="-146" name="center"/>
  <anchor x="204" y="442" name="top"/>
  <outline>
    <contour>
      <point x="9" y="-100" type="curve" smooth="yes"/>
      <point x="9" y="-202"/>
      <point x="85" y="-256"/>
      <point x="192" y="-256" type="curve" smooth="yes"/>
      <point x="230" y="-256" type="line"/>
      <point x="258" y="-179" type="line"/>
      <point x="258" y="-171" type="line"/>
      <point x="237" y="-171" type="line" smooth="yes"/>
      <point x="138" y="-171"/>
      <point x="76" y="-155"/>
      <point x="58" y="-84" type="curve"/>
      <point x="71" y="-126" type="line"/>
      <point x="75" y="-61"/>
      <point x="137" y="0"/>
      <point x="272" y="0" type="curve" smooth="yes"/>
      <point x="428" y="0" type="line"/>
      <point x="456" y="77" type="line"/>
      <point x="456" y="85" type="line"/>
      <point x="308" y="85" type="line" smooth="yes"/>
      <point x="234" y="85"/>
      <point x="172" y="128"/>
      <point x="172" y="194" type="curve" smooth="yes"/>
      <point x="172" y="274"/>
      <point x="229" y="338"/>
      <point x="416" y="468" type="curve"/>
      <point x="384" y="544" type="line"/>
      <point x="376" y="544" type="line"/>
      <point x="184" y="415"/>
      <point x="84" y="307"/>
      <point x="84" y="196" type="curve" smooth="yes"/>
      <point x="84" y="111"/>
      <point x="132" y="71"/>
      <point x="183" y="50" type="curve"/>
      <point x="226" y="76" type="line"/>
      <point x="65" y="57"/>
      <point x="9" y="-31"/>
    </contour>
  </outline>
</glyph>
<glyph name="alefMaksura-ar.fina.ss01" format="2">
  <advance width="600"/>
  <note>
uni0649.long
</note>
  <outline>
    <contour>
      <point x="600" y="0" type="curve"/>
      <point x="620" y="20" type="line"/>
      <point x="620" y="80" type="line"/>
      <point x="487" y="80"/>
      <point x="456" y="119"/>
      <point x="348" y="284" type="curve"/>
      <point x="336" y="284" type="line"/>
      <point x="213" y="222"/>
      <point x="60" y="111"/>
      <point x="60" y="-42" type="curve" smooth="yes"/>
      <point x="60" y="-162"/>
      <point x="143" y="-256"/>
      <point x="344" y="-256" type="curve" smooth="yes"/>
      <point x="588" y="-256" type="line"/>
      <point x="612" y="-184" type="line"/>
      <point x="612" y="-176" type="line"/>
      <point x="378" y="-176" type="line" smooth="yes"/>
      <point x="253" y="-176"/>
      <point x="152" y="-149"/>
      <point x="152" y="-42" type="curve" smooth="yes"/>
      <point x="152" y="63"/>
      <point x="264" y="166"/>
      <point x="337" y="195" type="curve"/>
      <point x="284" y="223" type="line"/>
      <point x="423" y="18"/>
      <point x="472" y="0"/>
    </contour>
  </outline>
</glyph>
<glyph name="asciitilde.sc" format="2">
  <advance width="568"/>
  <note>
asciitilde.sc
</note>
  <outline>
    <contour>
      <point x="80" y="208" type="curve"/>
      <point x="156" y="208" type="line"/>
      <point x="159" y="265"/>
      <point x="171" y="288"/>
      <point x="204" y="288" type="curve" smooth="yes"/>
      <point x="249" y="288"/>
      <point x="304" y="208"/>
      <point x="380" y="208" type="curve" smooth="yes"/>
      <point x="478" y="208"/>
      <point x="501" y="281"/>
      <point x="504" y="368" type="curve"/>
      <point x="428" y="368" type="line"/>
      <point x="425" y="311"/>
      <point x="413" y="288"/>
      <point x="380" y="288" type="curve" smooth="yes"/>
      <point x="335" y="288"/>
      <point x="280" y="368"/>
      <point x="204" y="368" type="curve" smooth="yes"/>
      <point x="106" y="368"/>
      <point x="83" y="295"/>
    </contour>
  </outline>
</glyph>
<glyph name="at.sc" format="2">
  <advance width="856"/>
  <note>
at.sc
</note>
  <guideline x="500" y="188" angle="259.6952"/>
  <outline>
    <contour>
      <point x="412" y="-128" type="curve" smooth="yes"/>
      <point x="472" y="-128"/>
      <point x="524" y="-120"/>
      <point x="564" y="-104" type="curve"/>
      <point x="576" y="-32" type="line"/>
      <point x="568" y="-32" type="line"/>
      <point x="532" y="-48"/>
      <point x="472" y="-60"/>
      <point x="416" y="-60" type="curve" smooth="yes"/>
      <point x="252" y="-60"/>
      <point x="124" y="12"/>
      <point x="124" y="176" type="curve" smooth="yes"/>
      <point x="124" y="388"/>
      <point x="272" y="516"/>
      <point x="472" y="516" type="curve" smooth="yes"/>
      <point x="628" y="516"/>
      <point x="736" y="436"/>
      <point x="736" y="320" type="curve" smooth="yes"/>
      <point x="736" y="188"/>
      <point x="666" y="126"/>
      <point x="559" y="103" type="curve"/>
      <point x="563" y="126"/>
      <point x="569" y="151"/>
      <point x="572" y="168" type="curve" smooth="yes"/>
      <point x="588" y="248" type="line" smooth="yes"/>
      <point x="608" y="348"/>
      <point x="556" y="404"/>
      <point x="444" y="404" type="curve" smooth="yes"/>
      <point x="400" y="404"/>
      <point x="364" y="392"/>
      <point x="332" y="380" type="curve"/>
      <point x="320" y="316" type="line"/>
      <point x="324" y="316" type="line"/>
      <point x="344" y="324"/>
      <point x="388" y="336"/>
      <point x="428" y="336" type="curve" smooth="yes"/>
      <point x="512" y="336"/>
      <point x="522" y="308"/>
      <point x="508" y="232" type="curve" smooth="yes"/>
      <point x="492" y="144" type="line" smooth="yes"/>
      <point x="487" y="116"/>
      <point x="488" y="88"/>
      <point x="496" y="72" type="curve"/>
      <point x="516" y="100" type="line"/>
      <point x="492" y="92"/>
      <point x="468" y="87"/>
      <point x="440" y="87" type="curve" smooth="yes"/>
      <point x="372" y="87"/>
      <point x="328" y="100"/>
      <point x="328" y="140" type="curve" smooth="yes"/>
      <point x="328" y="180"/>
      <point x="364" y="200"/>
      <point x="436" y="200" type="curve" smooth="yes"/>
      <point x="468" y="200"/>
      <point x="496" y="196"/>
      <point x="520" y="188" type="curve"/>
      <point x="528" y="240" type="line"/>
      <point x="504" y="252"/>
      <point x="480" y="260"/>
      <point x="436" y="260" type="curve" smooth="yes"/>
      <point x="324" y="260"/>
      <point x="252" y="216"/>
      <point x="252" y="136" type="curve" smooth="yes"/>
      <point x="252" y="56"/>
      <point x="312" y="24"/>
      <point x="436" y="24" type="curve" smooth="yes"/>
      <point x="660" y="24"/>
      <point x="816" y="124"/>
      <point x="816" y="324" type="curve" smooth="yes"/>
      <point x="816" y="476"/>
      <point x="684" y="584"/>
      <point x="476" y="584" type="curve" smooth="yes"/>
      <point x="224" y="584"/>
      <point x="40" y="424"/>
      <point x="40" y="172" type="curve" smooth="yes"/>
      <point x="40" y="-32"/>
      <point x="200" y="-128"/>
    </contour>
  </outline>
</glyph>
<glyph name="backslash.sc" format="2">
  <advance width="487"/>
  <note>
backslash.sc
</note>
  <outline>
    <contour>
      <point x="320" y="0" type="line"/>
      <point x="396" y="0" type="line"/>
      <point x="172" y="572" type="line"/>
      <point x="96" y="572" type="line"/>
    </contour>
  </outline>
</glyph>
<glyph name="braceright.sc" format="2">
  <advance width="333"/>
  <note>
braceright.sc
</note>
  <outline>
    <contour>
      <point x="-40" y="-72" type="line"/>
      <point x="24" y="-72" type="line" smooth="yes"/>
      <point x="112" y="-72"/>
      <point x="159" y="-29"/>
      <point x="176" y="52" type="curve"/>
      <point x="196" y="168" type="line"/>
      <point x="203" y="200"/>
      <point x="223" y="228"/>
      <point x="264" y="228" type="curve" smooth="yes"/>
      <point x="308" y="228" type="line"/>
      <point x="320" y="304" type="line"/>
      <point x="280" y="304" type="line" smooth="yes"/>
      <point x="236" y="304"/>
      <point x="229" y="332"/>
      <point x="236" y="364" type="curve" smooth="yes"/>
      <point x="260" y="480" type="line" smooth="yes"/>
      <point x="276" y="557"/>
      <point x="237" y="604"/>
      <point x="148" y="604" type="curve" smooth="yes"/>
      <point x="84" y="604" type="line"/>
      <point x="72" y="532" type="line"/>
      <point x="136" y="532" type="line" smooth="yes"/>
      <point x="170" y="532"/>
      <point x="183" y="515"/>
      <point x="176" y="480" type="curve" smooth="yes"/>
      <point x="152" y="364" type="line" smooth="yes"/>
      <point x="140" y="308"/>
      <point x="171" y="272"/>
      <point x="216" y="264" type="curve"/>
      <point x="168" y="257"/>
      <point x="122" y="226"/>
      <point x="112" y="168" type="curve" smooth="yes"/>
      <point x="92" y="56" type="line" smooth="yes"/>
      <point x="85" y="15"/>
      <point x="63" y="0"/>
      <point x="28" y="0" type="curve" smooth="yes"/>
      <point x="-28" y="0" type="line"/>
    </contour>
  </outline>
</glyph>
<glyph name="c.inferior" format="2">
  <advance width="371"/>
  <note>
c.inferior
</note>
  <outline>
    <contour>
      <point x="-10" y="3" type="curve" smooth="yes"/>
      <point x="-10" y="-107"/>
      <point x="56" y="-167"/>
      <point x="174" y="-167" type="curve" smooth="yes"/>
      <point x="208" y="-167"/>
      <point x="240" y="-161"/>
      <point x="266" y="-150" type="curve"/>
      <point x="280" y="-77" type="line"/>
      <point x="273" y="-77" type="line"/>
      <point x="252" y="-86"/>
      <point x="224" y="-96"/>
      <point x="188" y="-96" type="curve" smooth="yes"/>
      <point x="119" y="-96"/>
      <point x="76" y="-63"/>
      <point x="76" y="5" type="curve" smooth="yes"/>
      <point x="76" y="114"/>
      <point x="150" y="176"/>
      <point x="243" y="176" type="curve" smooth="yes"/>
      <point x="280" y="176"/>
      <point x="302" y="169"/>
      <point x="319" y="159" type="curve"/>
      <point x="325" y="159" type="line"/>
      <point x="339" y="230" type="line"/>
      <point x="318" y="241"/>
      <point x="281" y="247"/>
      <point x="246" y="247" type="curve" smooth="yes"/>
      <point x="96" y="247"/>
      <point x="-10" y="150"/>
    </contour>
  </outline>
</glyph>
<glyph name="caroncomb.alt" format="2">
  <anchor x="236" y="544" name="_topright"/>
  <outline>
    <contour>
      <point x="226" y="664" type="curve"/>
      <point x="166" y="582" type="line"/>
      <point x="166" y="576" type="line"/>
      <point x="222" y="576" type="line"/>
      <point x="278" y="652" type="line" smooth="yes"/>
      <point x="288" y="665"/>
      <point x="306" y="686"/>
      <point x="306" y="716" type="curve" smooth="yes"/>
      <point x="306" y="742"/>
      <point x="287" y="760"/>
      <point x="262" y="760" type="curve" smooth="yes"/>
      <point x="231" y="760"/>
      <point x="202" y="739"/>
      <point x="202" y="700" type="curve" smooth="yes"/>
      <point x="202" y="680"/>
      <point x="215" y="668"/>
    </contour>
  </outline>
</glyph>
<glyph name="cent.sc" format="2">
  <advance width="568"/>
  <note>
cent.sc
</note>
  <outline>
    <contour>
      <point x="300" y="72" type="curve" smooth="yes"/>
      <point x="340" y="72"/>
      <point x="381" y="79"/>
      <point x="412" y="92" type="curve"/>
      <point x="428" y="168" type="line"/>
      <point x="420" y="168" type="line"/>
      <point x="394" y="157"/>
      <point x="360" y="148"/>
      <point x="316" y="148" type="curve" smooth="yes"/>
      <point x="232" y="148"/>
      <point x="180" y="180"/>
      <point x="180" y="256" type="curve" smooth="yes"/>
      <point x="180" y="372"/>
      <point x="264" y="444"/>
      <point x="380" y="444" type="curve" smooth="yes"/>
      <point x="424" y="444"/>
      <point x="452" y="436"/>
      <point x="472" y="428" type="curve"/>
      <point x="480" y="428" type="line"/>
      <point x="492" y="504" type="line"/>
      <point x="460" y="516"/>
      <point x="424" y="520"/>
      <point x="388" y="520" type="curve" smooth="yes"/>
      <point x="224" y="520"/>
      <point x="88" y="424"/>
      <point x="88" y="252" type="curve" smooth="yes"/>
      <point x="88" y="136"/>
      <point x="164" y="72"/>
    </contour>
    <contour>
      <point x="324" y="492" type="line"/>
      <point x="404" y="492" type="line"/>
      <point x="432" y="636" type="line"/>
      <point x="352" y="636" type="line"/>
    </contour>
    <contour>
      <point x="220" y="-52" type="line"/>
      <point x="300" y="-52" type="line"/>
      <point x="328" y="92" type="line"/>
      <point x="248" y="92" type="line"/>
    </contour>
  </outline>
</glyph>
<glyph name="daggerdbl.sc" format="2">
  <advance width="511"/>
  <note>
daggerdbl.sc
</note>
  <outline>
    <contour>
      <point x="124" y="-196" type="line"/>
      <point x="208" y="-196" type="line"/>
      <point x="360" y="572" type="line"/>
      <point x="276" y="572" type="line"/>
    </contour>
    <contour>
      <point x="-8" y="0" type="line"/>
      <point x="420" y="0" type="line"/>
      <point x="432" y="72" type="line"/>
      <point x="4" y="72" type="line"/>
    </contour>
    <contour>
      <point x="48" y="296" type="line"/>
      <point x="480" y="296" type="line"/>
      <point x="492" y="368" type="line"/>
      <point x="60" y="368" type="line"/>
    </contour>
  </outline>
</glyph>
<glyph name="degree.sc" format="2">
  <advance width="392"/>
  <note>
degree.sc
</note>
  <outline>
    <contour>
      <point x="234" y="328" type="curve" smooth="yes"/>
      <point x="310" y="328"/>
      <point x="370" y="376"/>
      <point x="370" y="456" type="curve" smooth="yes"/>
      <point x="370" y="536"/>
      <point x="310" y="584"/>
      <point x="234" y="584" type="curve" smooth="yes"/>
      <point x="158" y="584"/>
      <point x="98" y="536"/>
      <point x="98" y="456" type="curve" smooth="yes"/>
      <point x="98" y="376"/>
      <point x="158" y="328"/>
    </contour>
    <contour>
      <point x="234" y="380" type="curve" smooth="yes"/>
      <point x="188" y="380"/>
      <point x="158" y="408"/>
      <point x="158" y="456" type="curve" smooth="yes"/>
      <point x="158" y="504"/>
      <point x="188" y="532"/>
      <point x="234" y="532" type="curve" smooth="yes"/>
      <point x="280" y="532"/>
      <point x="310" y="504"/>
      <point x="310" y="456" type="curve" smooth="yes"/>
      <point x="310" y="408"/>
      <point x="280" y="380"/>
    </contour>
  </outline>
</glyph>
<glyph name="divide.sc" format="2">
  <advance width="568"/>
  <note>
divide.sc
</note>
  <outline>
    <contour>
      <point x="292" y="384" type="curve" smooth="yes"/>
      <point x="326" y="384"/>
      <point x="352" y="406"/>
      <point x="352" y="444" type="curve" smooth="yes"/>
      <point x="352" y="481"/>
      <point x="326" y="504"/>
      <point x="292" y="504" type="curve" smooth="yes"/>
      <point x="258" y="504"/>
      <point x="232" y="481"/>
      <point x="232" y="444" type="curve" smooth="yes"/>
      <point x="232" y="406"/>
      <point x="258" y="384"/>
    </contour>
    <contour>
      <point x="80" y="328" type="line"/>
      <point x="80" y="248" type="line"/>
      <point x="504" y="248" type="line"/>
      <point x="504" y="328" type="line"/>
    </contour>
    <contour>
      <point x="232" y="132" type="curve" smooth="yes"/>
      <point x="232" y="94"/>
      <point x="258" y="72"/>
      <point x="292" y="72" type="curve" smooth="yes"/>
      <point x="326" y="72"/>
      <point x="352" y="94"/>
      <point x="352" y="132" type="curve" smooth="yes"/>
      <point x="352" y="169"/>
      <point x="326" y="192"/>
      <point x="292" y="192" type="curve" smooth="yes"/>
      <point x="258" y="192"/>
      <point x="232" y="169"/>
    </contour>
  </outline>
</glyph>
<glyph name="dollar.inferior" format="2">
  <advance width="397"/>
  <note>
dollar.inferior
</note>
  <outline>
    <contour>
      <point x="106" y="-168" type="curve" smooth="yes"/>
      <point x="213" y="-168"/>
      <point x="292" y="-125"/>
      <point x="292" y="-43" type="curve" smooth="yes"/>
      <point x="292" y="20"/>
      <point x="255" y="47"/>
      <point x="193" y="61" type="curve" smooth="yes"/>
      <point x="160" y="68" type="line" smooth="yes"/>
      <point x="130" y="74"/>
      <point x="109" y="86"/>
      <point x="109" y="114" type="curve" smooth="yes"/>
      <point x="109" y="156"/>
      <point x="150" y="180"/>
      <point x="218" y="180" type="curve" smooth="yes"/>
      <point x="255" y="180"/>
      <point x="285" y="171"/>
      <point x="302" y="163" type="curve"/>
      <point x="309" y="163" type="line"/>
      <point x="322" y="233" type="line"/>
      <point x="297" y="241"/>
      <point x="258" y="245"/>
      <point x="223" y="245" type="curve" smooth="yes"/>
      <point x="105" y="245"/>
      <point x="25" y="198"/>
      <point x="25" y="108" type="curve" smooth="yes"/>
      <point x="25" y="47"/>
      <point x="63" y="17"/>
      <point x="130" y="3" type="curve" smooth="yes"/>
      <point x="164" y="-4" type="line" smooth="yes"/>
      <point x="194" y="-11"/>
      <point x="208" y="-20"/>
      <point x="208" y="-46" type="curve" smooth="yes"/>
      <point x="208" y="-83"/>
      <point x="172" y="-100"/>
      <point x="115" y="-100" type="curve" smooth="yes"/>
      <point x="66" y="-100"/>
      <point x="28" y="-88"/>
      <point x="4" y="-74" type="curve"/>
      <point x="-2" y="-74" type="line"/>
      <point x="-16" y="-145" type="line"/>
      <point x="11" y="-157"/>
      <point x="62" y="-168"/>
    </contour>
    <contour>
      <point x="73" y="-249" type="line"/>
      <point x="144" y="-249" type="line"/>
      <point x="161" y="-148" type="line"/>
      <point x="90" y="-151" type="line"/>
    </contour>
    <contour>
      <point x="165" y="225" type="line"/>
      <point x="237" y="229" type="line"/>
      <point x="254" y="318" type="line"/>
      <point x="182" y="318" type="line"/>
    </contour>
  </outline>
</glyph>
<glyph name="dollar.sc" format="2">
  <advance width="568"/>
  <note>
dollar.sc
</note>
  <guideline x="310" y="318" angle="347.0054"/>
  <guideline x="278" y="242" angle="167.0054"/>
  <outline>
    <contour>
      <point x="216" y="-12" type="curve"/>
      <point x="376" y="-12"/>
      <point x="472" y="60"/>
      <point x="472" y="168" type="curve" smooth="yes"/>
      <point x="472" y="252"/>
      <point x="427" y="291"/>
      <point x="336" y="312" type="curve" smooth="yes"/>
      <point x="284" y="324" type="line" smooth="yes"/>
      <point x="228" y="337"/>
      <point x="200" y="352"/>
      <point x="200" y="396" type="curve" smooth="yes"/>
      <point x="200" y="468"/>
      <point x="272" y="504"/>
      <point x="372" y="504" type="curve" smooth="yes"/>
      <point x="428" y="504"/>
      <point x="468" y="492"/>
      <point x="492" y="484" type="curve"/>
      <point x="500" y="484" type="line"/>
      <point x="516" y="564" type="line"/>
      <point x="472" y="576"/>
      <point x="408" y="584"/>
      <point x="360" y="584" type="curve" smooth="yes"/>
      <point x="236" y="584"/>
      <point x="108" y="512"/>
      <point x="108" y="392" type="curve" smooth="yes"/>
      <point x="108" y="304"/>
      <point x="161" y="269"/>
      <point x="252" y="248" type="curve" smooth="yes"/>
      <point x="304" y="236" type="line" smooth="yes"/>
      <point x="356" y="224"/>
      <point x="380" y="208"/>
      <point x="380" y="164" type="curve" smooth="yes"/>
      <point x="380" y="96"/>
      <point x="312" y="68"/>
      <point x="224" y="68" type="curve" smooth="yes"/>
      <point x="156" y="68"/>
      <point x="104" y="84"/>
      <point x="68" y="104" type="curve"/>
      <point x="60" y="104" type="line"/>
      <point x="44" y="20" type="line"/>
      <point x="92" y="0"/>
      <point x="148" y="-12"/>
    </contour>
    <contour>
      <point x="180" y="-128" type="line"/>
      <point x="260" y="-128" type="line"/>
      <point x="288" y="20" type="line"/>
      <point x="208" y="20" type="line"/>
    </contour>
    <contour>
      <point x="312" y="548" type="line"/>
      <point x="392" y="548" type="line"/>
      <point x="416" y="684" type="line"/>
      <point x="336" y="684" type="line"/>
    </contour>
  </outline>
</glyph>
